M48
INCH
T1C0.0157
T2C0.0236
T3C0.0315
T4C0.0354
T5C0.0394
T6C0.0433
T7C0.0512
T8C0.0591
T9C0.0984
%
G90
G05
T1
X4.7543Y-4.054
X5.4063Y-4.652
X5.535Y-3.55
X5.5496Y-3.8603
X5.6143Y-4.1193
X5.8671Y-3.2924
X5.9371Y-3.2631
X5.9839Y-3.1805
X5.9961Y-4.6942
X6.1325Y-3.2436
X6.2563Y-3.2091
X6.2598Y-3.4483
X6.9013Y-2.6781
X6.9179Y-3.4121
X6.9311Y-2.7662
X6.9599Y-2.9545
X6.9974Y-1.9781
X7.0012Y-3.0754
T2
X3.984Y-4.7793
X3.984Y-4.858
T3
X3.329Y-4.147
X3.329Y-4.443
X3.33Y-4.293
X3.33Y-4.59
X3.331Y-4.001
X3.65Y-1.964
X3.65Y-2.364
X3.65Y-2.4966
X3.65Y-2.8966
X3.729Y-4.147
X3.729Y-4.443
X3.73Y-4.293
X3.73Y-4.59
X3.731Y-4.001
X3.78Y-1.964
X3.78Y-2.364
X3.78Y-2.4966
X3.78Y-2.8966
X3.869Y-3.9956
X3.869Y-4.1924
X4.0344Y-4.0084
X4.0344Y-4.1084
X4.0344Y-4.2084
X4.0344Y-4.3084
X4.0524Y-1.9738
X4.0524Y-2.0738
X4.0524Y-2.1738
X4.0524Y-2.2738
X4.0524Y-2.3738
X4.0524Y-2.4738
X4.0524Y-2.5738
X4.0524Y-2.6738
X4.0524Y-2.7738
X4.0524Y-2.8738
X4.0706Y-4.523
X4.1046Y-1.83
X4.1586Y-4.6996
X4.1586Y-4.8964
X4.2674Y-4.523
X4.3014Y-1.83
X4.3026Y-4.6996
X4.3026Y-4.8964
X4.3344Y-4.0084
X4.3344Y-4.1084
X4.3344Y-4.2084
X4.3344Y-4.3084
X4.3524Y-1.9738
X4.3524Y-2.0738
X4.3524Y-2.1738
X4.3524Y-2.2738
X4.3524Y-2.3738
X4.3524Y-2.4738
X4.3524Y-2.5738
X4.3524Y-2.6738
X4.3524Y-2.7738
X4.3524Y-2.8738
X4.489Y-4.814
X4.49Y-5.154
X4.49Y-5.32
X4.5294Y-4.0078
X4.5294Y-4.1078
X4.5294Y-4.2078
X4.5294Y-4.3078
X4.5294Y-4.4078
X4.5294Y-4.5078
X4.5294Y-4.6078
X4.5818Y-2.9392
X4.5818Y-3.3392
X4.582Y-1.4288
X4.582Y-1.8288
X4.5868Y-2.4492
X4.5868Y-2.7492
X4.587Y-1.9888
X4.587Y-2.2888
X4.6868Y-2.4492
X4.6868Y-2.7492
X4.687Y-1.9888
X4.687Y-2.2888
X4.7118Y-2.9392
X4.7118Y-3.3392
X4.712Y-1.4288
X4.712Y-1.8288
X4.7868Y-2.4492
X4.7868Y-2.7492
X4.787Y-1.9888
X4.787Y-2.2888
X4.8294Y-4.0078
X4.8294Y-4.1078
X4.8294Y-4.2078
X4.8294Y-4.3078
X4.8294Y-4.4078
X4.8294Y-4.5078
X4.8294Y-4.6078
X4.842Y-1.4288
X4.842Y-1.8288
X4.842Y-2.9388
X4.842Y-3.3388
X4.8868Y-2.4492
X4.8868Y-2.7492
X4.887Y-1.9888
X4.887Y-2.2888
X4.889Y-4.814
X4.89Y-5.154
X4.89Y-5.32
X4.972Y-1.4288
X4.972Y-1.8288
X4.972Y-2.9388
X4.972Y-3.3388
X4.974Y-4.133
X4.974Y-4.533
X4.9868Y-2.4492
X4.9868Y-2.7492
X4.987Y-1.9888
X4.987Y-2.2888
X5.0868Y-2.4492
X5.0868Y-2.7492
X5.087Y-1.9888
X5.087Y-2.2888
X5.102Y-1.4288
X5.102Y-1.8288
X5.102Y-2.9388
X5.102Y-3.3388
X5.104Y-4.0316
X5.104Y-4.2284
X5.104Y-4.367
X5.104Y-4.5639
X5.185Y-4.812
X5.1868Y-2.4492
X5.1868Y-2.7492
X5.187Y-1.9888
X5.187Y-2.2888
X5.232Y-1.4288
X5.232Y-1.8288
X5.232Y-2.9388
X5.232Y-3.3388
X5.238Y-4.007
X5.238Y-4.107
X5.238Y-4.207
X5.238Y-4.307
X5.238Y-4.407
X5.238Y-4.507
X5.238Y-4.607
X5.2868Y-2.4492
X5.2868Y-2.7492
X5.287Y-1.9888
X5.287Y-2.2888
X5.3403Y-5.2857
X5.362Y-1.4288
X5.362Y-1.8288
X5.362Y-2.9388
X5.362Y-3.3388
X5.3868Y-2.4492
X5.3868Y-2.7492
X5.387Y-1.9888
X5.387Y-2.2888
X5.419Y-5.2857
X5.4868Y-2.4492
X5.4868Y-2.7492
X5.487Y-1.9888
X5.487Y-2.2888
X5.492Y-1.4288
X5.492Y-1.8288
X5.492Y-2.9388
X5.492Y-3.3388
X5.4977Y-5.2857
X5.538Y-4.007
X5.538Y-4.107
X5.538Y-4.207
X5.538Y-4.307
X5.538Y-4.407
X5.538Y-4.507
X5.538Y-4.607
X5.585Y-4.812
X5.642Y-2.0551
X5.642Y-2.252
X5.642Y-2.5051
X5.642Y-2.702
X5.689Y-4.131
X5.689Y-4.531
X5.774Y-4.818
X5.802Y-1.4288
X5.802Y-1.8288
X5.802Y-2.9386
X5.802Y-3.3386
X5.8068Y-1.9892
X5.8068Y-2.2892
X5.8068Y-2.449
X5.8068Y-2.749
X5.8394Y-4.0078
X5.8394Y-4.1078
X5.8394Y-4.2078
X5.8394Y-4.3078
X5.8394Y-4.4078
X5.8394Y-4.5078
X5.8394Y-4.6078
X5.9068Y-1.9892
X5.9068Y-2.2892
X5.9068Y-2.449
X5.9068Y-2.749
X5.932Y-1.4288
X5.932Y-1.8288
X5.932Y-2.9386
X5.932Y-3.3386
X6.0068Y-1.9892
X6.0068Y-2.2892
X6.0068Y-2.449
X6.0068Y-2.749
X6.0476Y-5.8259
X6.062Y-1.4288
X6.062Y-1.8288
X6.062Y-2.9386
X6.062Y-3.3386
X6.1068Y-1.9892
X6.1068Y-2.2892
X6.1068Y-2.449
X6.1068Y-2.749
X6.1394Y-4.0078
X6.1394Y-4.1078
X6.1394Y-4.2078
X6.1394Y-4.3078
X6.1394Y-4.4078
X6.1394Y-4.5078
X6.1394Y-4.6078
X6.174Y-4.818
X6.192Y-1.4288
X6.192Y-1.8288
X6.192Y-2.9386
X6.192Y-3.3386
X6.2068Y-1.9892
X6.2068Y-2.2892
X6.2068Y-2.449
X6.2068Y-2.749
X6.3068Y-1.9892
X6.3068Y-2.2892
X6.3068Y-2.449
X6.3068Y-2.749
X6.322Y-1.4288
X6.322Y-1.8288
X6.322Y-2.9386
X6.322Y-3.3386
X6.3704Y-4.0028
X6.3704Y-4.1028
X6.3704Y-4.2028
X6.3704Y-4.3028
X6.3704Y-4.4028
X6.3704Y-4.5028
X6.3704Y-4.6028
X6.4068Y-1.9892
X6.4068Y-2.2892
X6.4068Y-2.449
X6.4068Y-2.749
X6.42Y-4.818
X6.452Y-1.4288
X6.452Y-1.8288
X6.452Y-2.9386
X6.452Y-3.3386
X6.5068Y-1.9892
X6.5068Y-2.2892
X6.5068Y-2.449
X6.5068Y-2.749
X6.582Y-1.4288
X6.582Y-1.8288
X6.582Y-2.9386
X6.582Y-3.3386
X6.6068Y-1.9892
X6.6068Y-2.2892
X6.6068Y-2.449
X6.6068Y-2.749
X6.6169Y-4.818
X6.6203Y-5.2847
X6.6704Y-4.0028
X6.6704Y-4.1028
X6.6704Y-4.2028
X6.6704Y-4.3028
X6.6704Y-4.4028
X6.6704Y-4.5028
X6.6704Y-4.6028
X6.699Y-5.2847
X6.7068Y-1.9892
X6.7068Y-2.2892
X6.7068Y-2.449
X6.7068Y-2.749
X6.712Y-1.4288
X6.712Y-1.8288
X6.712Y-2.9386
X6.712Y-3.3386
X6.7777Y-5.2847
X6.82Y-4.0
X6.82Y-4.1969
X6.82Y-4.5
X6.82Y-4.9
X7.03Y-1.904
X7.03Y-2.304
X7.1746Y-1.904
X7.1746Y-2.304
T4
X3.3748Y-1.764
X3.3748Y-2.0816
X3.3748Y-2.484
X3.3748Y-2.7816
X3.4748Y-1.764
X3.4748Y-2.0816
X3.4748Y-2.484
X3.4748Y-2.7816
X3.65Y-1.0798
X3.65Y-1.1798
X3.819Y-5.2332
X3.819Y-5.3332
X3.856Y-1.0798
X3.856Y-1.1798
X3.988Y-3.602
X3.988Y-3.702
X4.2Y-3.5998
X4.2Y-3.6998
X4.235Y-1.0798
X4.235Y-1.1798
X4.4Y-3.6
X4.4Y-3.7
X4.437Y-1.0798
X4.437Y-1.1798
X4.529Y-4.978
X4.6Y-3.6
X4.6Y-3.7
X4.637Y-1.0798
X4.637Y-1.1798
X4.8Y-3.6
X4.8Y-3.7
X4.829Y-4.978
X4.837Y-1.0798
X4.837Y-1.1798
X5.0Y-3.6
X5.0Y-3.7
X5.092Y-1.0798
X5.092Y-1.1798
X5.2Y-3.6
X5.2Y-3.7
X5.24Y-4.978
X5.34Y-1.0778
X5.34Y-1.1778
X5.4Y-3.6
X5.4Y-3.7
X5.54Y-4.978
X5.627Y-1.0798
X5.627Y-1.1798
X5.6302Y-3.5996
X5.6302Y-3.6996
X5.82Y-4.978
X5.827Y-1.0798
X5.827Y-1.1798
X5.8302Y-3.5996
X5.8302Y-3.6996
X6.027Y-1.0798
X6.027Y-1.1798
X6.0302Y-3.5996
X6.0302Y-3.6996
X6.12Y-4.978
X6.227Y-1.0798
X6.227Y-1.1798
X6.2302Y-3.5996
X6.2302Y-3.6996
X6.34Y-4.978
X6.4211Y-3.5996
X6.4211Y-3.6996
X6.427Y-1.0798
X6.427Y-1.1798
X6.6211Y-3.5996
X6.6211Y-3.6996
X6.627Y-1.0798
X6.627Y-1.1798
X6.64Y-4.978
X6.8211Y-3.5996
X6.8211Y-3.6996
X6.827Y-1.0798
X6.827Y-1.1798
X7.0211Y-3.5996
X7.0211Y-3.6996
X7.027Y-1.0798
X7.027Y-1.1798
X7.03Y-1.584
X7.03Y-1.684
T5
X4.103Y-5.103
X4.103Y-5.203
X4.203Y-5.103
X4.203Y-5.203
X4.303Y-5.103
X4.303Y-5.203
X5.979Y-5.284
X6.079Y-5.284
X7.0598Y-2.564
X7.06Y-2.894
X7.1598Y-2.564
X7.16Y-2.894
X7.3064Y-3.254
X7.3064Y-3.354
X7.3064Y-3.454
X7.3064Y-3.554
X7.3064Y-3.654
X7.3064Y-3.754
X7.3064Y-3.854
X7.3064Y-3.954
X7.3064Y-4.054
X7.3064Y-4.154
X7.3064Y-4.254
X7.3064Y-4.354
X7.3064Y-4.454
X7.3064Y-4.554
X7.3064Y-4.654
X7.3064Y-4.754
X7.3064Y-4.854
X7.3064Y-4.954
X7.3064Y-5.054
X7.3064Y-5.154
X7.396Y-2.564
X7.4064Y-3.254
X7.4064Y-3.354
X7.4064Y-3.454
X7.4064Y-3.554
X7.4064Y-3.654
X7.4064Y-3.754
X7.4064Y-3.854
X7.4064Y-3.954
X7.4064Y-4.054
X7.4064Y-4.154
X7.4064Y-4.254
X7.4064Y-4.354
X7.4064Y-4.454
X7.4064Y-4.554
X7.4064Y-4.654
X7.4064Y-4.754
X7.4064Y-4.854
X7.4064Y-4.954
X7.4064Y-5.054
X7.4064Y-5.154
T6
X3.5092Y-3.1651
X3.5092Y-3.3422
X3.6906Y-5.6402
X3.6906Y-5.8174
X3.7651Y-3.1651
X3.7651Y-3.3422
X3.9465Y-5.6402
X3.9465Y-5.8174
X4.4949Y-5.6402
X4.4949Y-5.8174
X4.7508Y-5.6402
X4.7508Y-5.8174
X5.2806Y-5.6402
X5.2806Y-5.8174
X5.5365Y-5.6402
X5.5365Y-5.8174
X6.5706Y-5.6402
X6.5706Y-5.8174
X6.8265Y-5.6402
X6.8265Y-5.8174
T7
X3.39Y-3.154
X3.39Y-3.3509
X3.5735Y-5.6316
X3.5735Y-5.8284
X3.8821Y-3.154
X3.8821Y-3.3509
X4.0657Y-5.6316
X4.0657Y-5.8284
X4.3779Y-5.6316
X4.3779Y-5.8284
X4.87Y-5.6316
X4.87Y-5.8284
X5.1635Y-5.6316
X5.1635Y-5.8284
X5.6557Y-5.6316
X5.6557Y-5.8284
X5.9496Y-5.8249
X6.048Y-5.7264
X6.1464Y-5.8249
X6.4535Y-5.6316
X6.4535Y-5.8284
X6.9457Y-5.6316
X6.9457Y-5.8284
T8
X5.2576Y-5.2857
X5.5804Y-5.2857
X6.5376Y-5.2847
X6.8604Y-5.2847
T9
X3.32Y-1.119
X3.324Y-5.948
X7.47Y-1.129
X7.474Y-5.953
T0
M30
