%TF.GenerationSoftware,KiCad,Pcbnew,(6.0.9)*%
%TF.CreationDate,2022-11-23T18:20:09+10:30*%
%TF.ProjectId,DasBlinkenLights,44617342-6c69-46e6-9b65-6e4c69676874,rev?*%
%TF.SameCoordinates,Original*%
%TF.FileFunction,Soldermask,Bot*%
%TF.FilePolarity,Negative*%
%FSLAX46Y46*%
G04 Gerber Fmt 4.6, Leading zero omitted, Abs format (unit mm)*
G04 Created by KiCad (PCBNEW (6.0.9)) date 2022-11-23 18:20:09*
%MOMM*%
%LPD*%
G01*
G04 APERTURE LIST*
G04 Aperture macros list*
%AMRoundRect*
0 Rectangle with rounded corners*
0 $1 Rounding radius*
0 $2 $3 $4 $5 $6 $7 $8 $9 X,Y pos of 4 corners*
0 Add a 4 corners polygon primitive as box body*
4,1,4,$2,$3,$4,$5,$6,$7,$8,$9,$2,$3,0*
0 Add four circle primitives for the rounded corners*
1,1,$1+$1,$2,$3*
1,1,$1+$1,$4,$5*
1,1,$1+$1,$6,$7*
1,1,$1+$1,$8,$9*
0 Add four rect primitives between the rounded corners*
20,1,$1+$1,$2,$3,$4,$5,0*
20,1,$1+$1,$4,$5,$6,$7,0*
20,1,$1+$1,$6,$7,$8,$9,0*
20,1,$1+$1,$8,$9,$2,$3,0*%
G04 Aperture macros list end*
%ADD10R,1.600000X1.600000*%
%ADD11O,1.600000X1.600000*%
%ADD12R,1.800000X1.800000*%
%ADD13C,1.800000*%
%ADD14C,1.600000*%
%ADD15O,1.800000X1.800000*%
%ADD16C,5.000000*%
%ADD17R,1.200000X1.200000*%
%ADD18C,1.200000*%
%ADD19R,1.700000X1.700000*%
%ADD20O,2.200000X3.500000*%
%ADD21R,1.500000X2.500000*%
%ADD22O,1.500000X2.500000*%
%ADD23RoundRect,0.250000X-0.600000X-0.600000X0.600000X-0.600000X0.600000X0.600000X-0.600000X0.600000X0*%
%ADD24C,1.700000*%
%ADD25C,2.000000*%
%ADD26O,3.048000X1.850000*%
%ADD27O,1.700000X1.700000*%
%ADD28C,2.340000*%
G04 APERTURE END LIST*
D10*
%TO.C,U6*%
X139369800Y-50514800D03*
D11*
X136829800Y-50514800D03*
X134289800Y-50514800D03*
X131749800Y-50514800D03*
X129209800Y-50514800D03*
X126669800Y-50514800D03*
X124129800Y-50514800D03*
X121589800Y-50514800D03*
X119049800Y-50514800D03*
X116509800Y-50514800D03*
X116509800Y-58134800D03*
X119049800Y-58134800D03*
X121589800Y-58134800D03*
X124129800Y-58134800D03*
X126669800Y-58134800D03*
X129209800Y-58134800D03*
X131749800Y-58134800D03*
X134289800Y-58134800D03*
X136829800Y-58134800D03*
X139369800Y-58134800D03*
%TD*%
D10*
%TO.C,U4*%
X139364800Y-62208800D03*
D11*
X136824800Y-62208800D03*
X134284800Y-62208800D03*
X131744800Y-62208800D03*
X129204800Y-62208800D03*
X126664800Y-62208800D03*
X124124800Y-62208800D03*
X121584800Y-62208800D03*
X119044800Y-62208800D03*
X116504800Y-62208800D03*
X116504800Y-69828800D03*
X119044800Y-69828800D03*
X121584800Y-69828800D03*
X124124800Y-69828800D03*
X126664800Y-69828800D03*
X129204800Y-69828800D03*
X131744800Y-69828800D03*
X134284800Y-69828800D03*
X136824800Y-69828800D03*
X139364800Y-69828800D03*
%TD*%
D12*
%TO.C,D36*%
X85720000Y-52872000D03*
D13*
X88260000Y-52872000D03*
%TD*%
D12*
%TO.C,D32*%
X107569000Y-27427200D03*
D13*
X107569000Y-29967200D03*
%TD*%
D14*
%TO.C,R7*%
X163880800Y-74639800D03*
D11*
X163880800Y-84799800D03*
%TD*%
D12*
%TO.C,D17*%
X106680000Y-93975000D03*
D13*
X106680000Y-91435000D03*
%TD*%
D14*
%TO.C,R10*%
X153974800Y-74639800D03*
D11*
X153974800Y-84799800D03*
%TD*%
D14*
%TO.C,R44*%
X114020600Y-122275600D03*
D11*
X124180600Y-122275600D03*
%TD*%
D14*
%TO.C,R42*%
X92710000Y-63413000D03*
D11*
X92710000Y-73573000D03*
%TD*%
D14*
%TO.C,R38*%
X116382800Y-46450800D03*
D11*
X116382800Y-36290800D03*
%TD*%
D14*
%TO.C,R34*%
X129590800Y-46450800D03*
D11*
X129590800Y-36290800D03*
%TD*%
D14*
%TO.C,R49*%
X84607400Y-101625400D03*
D11*
X94767400Y-101625400D03*
%TD*%
D12*
%TO.C,D8*%
X153167000Y-93970000D03*
D13*
X153167000Y-91430000D03*
%TD*%
D14*
%TO.C,R15*%
X132892800Y-74644800D03*
D11*
X132892800Y-84804800D03*
%TD*%
D12*
%TO.C,D22*%
X163245800Y-27427200D03*
D13*
X163245800Y-29967200D03*
%TD*%
D12*
%TO.C,D42*%
X122656600Y-126441200D03*
D15*
X115036600Y-126441200D03*
%TD*%
D14*
%TO.C,C9*%
X98272600Y-106487600D03*
X98272600Y-101487600D03*
%TD*%
D12*
%TO.C,D27*%
X135636000Y-27376400D03*
D13*
X135636000Y-29916400D03*
%TD*%
D14*
%TO.C,R23*%
X163880800Y-46450800D03*
D11*
X163880800Y-36290800D03*
%TD*%
D12*
%TO.C,D18*%
X101295200Y-94030800D03*
D13*
X101295200Y-91490800D03*
%TD*%
D14*
%TO.C,R28*%
X147370800Y-46450800D03*
D11*
X147370800Y-36290800D03*
%TD*%
D14*
%TO.C,R39*%
X96012000Y-60045600D03*
D11*
X96012000Y-49885600D03*
%TD*%
D12*
%TO.C,D29*%
X122859800Y-27427200D03*
D13*
X122859800Y-29967200D03*
%TD*%
D12*
%TO.C,D16*%
X111760000Y-93980000D03*
D13*
X111760000Y-91440000D03*
%TD*%
D12*
%TO.C,D34*%
X92710000Y-27427200D03*
D13*
X92710000Y-29967200D03*
%TD*%
D14*
%TO.C,R30*%
X126339600Y-104978200D03*
D11*
X126339600Y-115138200D03*
%TD*%
D14*
%TO.C,R48*%
X94742000Y-116586000D03*
D11*
X84582000Y-116586000D03*
%TD*%
D14*
%TO.C,R27*%
X150672800Y-46450800D03*
D11*
X150672800Y-36290800D03*
%TD*%
D16*
%TO.C,H1*%
X84328000Y-28422600D03*
%TD*%
D12*
%TO.C,D4*%
X173257200Y-93970000D03*
D13*
X173257200Y-91430000D03*
%TD*%
D14*
%TO.C,R19*%
X119679800Y-74654800D03*
D11*
X119679800Y-84814800D03*
%TD*%
D17*
%TO.C,C6*%
X101193600Y-123393200D03*
D18*
X101193600Y-121393200D03*
%TD*%
D12*
%TO.C,D12*%
X132080000Y-93980000D03*
D13*
X132080000Y-91440000D03*
%TD*%
D14*
%TO.C,R14*%
X136194800Y-74644800D03*
D11*
X136194800Y-84804800D03*
%TD*%
D14*
%TO.C,R4*%
X173228000Y-114300000D03*
D11*
X173228000Y-124460000D03*
%TD*%
D16*
%TO.C,H3*%
X189839600Y-151206200D03*
%TD*%
D19*
%TO.C,J3*%
X187858400Y-65125600D03*
%TD*%
D14*
%TO.C,R26*%
X153974800Y-46450800D03*
D11*
X153974800Y-36290800D03*
%TD*%
D14*
%TO.C,R3*%
X178562000Y-58521600D03*
D11*
X178562000Y-48361600D03*
%TD*%
D12*
%TO.C,D30*%
X117779800Y-27427200D03*
D13*
X117779800Y-29967200D03*
%TD*%
D10*
%TO.C,U2*%
X161808000Y-101671200D03*
D11*
X161808000Y-104211200D03*
X161808000Y-106751200D03*
X161808000Y-109291200D03*
X161808000Y-111831200D03*
X161808000Y-114371200D03*
X161808000Y-116911200D03*
X169428000Y-116911200D03*
X169428000Y-114371200D03*
X169428000Y-111831200D03*
X169428000Y-109291200D03*
X169428000Y-106751200D03*
X169428000Y-104211200D03*
X169428000Y-101671200D03*
%TD*%
D12*
%TO.C,D3*%
X178337200Y-93970000D03*
D13*
X178337200Y-91430000D03*
%TD*%
D14*
%TO.C,C1*%
X163068000Y-122377200D03*
X168068000Y-122377200D03*
%TD*%
D20*
%TO.C,SW4*%
X174254600Y-134231700D03*
X166054600Y-134231700D03*
D21*
X168154600Y-134231700D03*
D22*
X170154600Y-134231700D03*
X172154600Y-134231700D03*
%TD*%
D12*
%TO.C,D41*%
X140716000Y-126441200D03*
D15*
X133096000Y-126441200D03*
%TD*%
D14*
%TO.C,R33*%
X132892800Y-46450800D03*
D11*
X132892800Y-36290800D03*
%TD*%
D14*
%TO.C,C5*%
X108392600Y-114884200D03*
X103392600Y-114884200D03*
%TD*%
%TO.C,C7*%
X129641600Y-102402000D03*
X129641600Y-107402000D03*
%TD*%
%TO.C,R18*%
X122986800Y-74644800D03*
D11*
X122986800Y-84804800D03*
%TD*%
D14*
%TO.C,R8*%
X160578800Y-74639800D03*
D11*
X160578800Y-84799800D03*
%TD*%
D14*
%TO.C,R24*%
X160578800Y-46450800D03*
D11*
X160578800Y-36290800D03*
%TD*%
D12*
%TO.C,D2*%
X97002600Y-135463200D03*
D13*
X97002600Y-132923200D03*
%TD*%
D14*
%TO.C,C2*%
X143306800Y-68630800D03*
X143306800Y-63630800D03*
%TD*%
%TO.C,R36*%
X122986800Y-46450800D03*
D11*
X122986800Y-36290800D03*
%TD*%
D12*
%TO.C,D39*%
X168656000Y-126441200D03*
D15*
X161036000Y-126441200D03*
%TD*%
D14*
%TO.C,R46*%
X141859000Y-122224800D03*
D11*
X131699000Y-122224800D03*
%TD*%
D14*
%TO.C,R50*%
X84556600Y-105333800D03*
D11*
X94716600Y-105333800D03*
%TD*%
D12*
%TO.C,D26*%
X142925800Y-27427200D03*
D13*
X142925800Y-29967200D03*
%TD*%
D23*
%TO.C,J1*%
X185581900Y-82651600D03*
D24*
X185581900Y-85191600D03*
X185581900Y-87731600D03*
X185581900Y-90271600D03*
X185581900Y-92811600D03*
X185581900Y-95351600D03*
X185581900Y-97891600D03*
X185581900Y-100431600D03*
X185581900Y-102971600D03*
X185581900Y-105511600D03*
X185581900Y-108051600D03*
X185581900Y-110591600D03*
X185581900Y-113131600D03*
X185581900Y-115671600D03*
X185581900Y-118211600D03*
X185581900Y-120751600D03*
X185581900Y-123291600D03*
X185581900Y-125831600D03*
X185581900Y-128371600D03*
X185581900Y-130911600D03*
X188121900Y-130911600D03*
X188121900Y-128371600D03*
X188121900Y-125831600D03*
X188121900Y-123291600D03*
X188121900Y-120751600D03*
X188121900Y-118211600D03*
X188121900Y-115671600D03*
X188121900Y-113131600D03*
X188121900Y-110591600D03*
X188121900Y-108051600D03*
X188121900Y-105511600D03*
X188121900Y-102971600D03*
X188121900Y-100431600D03*
X188121900Y-97891600D03*
X188121900Y-95351600D03*
X188121900Y-92811600D03*
X188121900Y-90271600D03*
X188121900Y-87731600D03*
X188121900Y-85191600D03*
X188121900Y-82651600D03*
%TD*%
D10*
%TO.C,U8*%
X133045200Y-101777800D03*
D11*
X133045200Y-104317800D03*
X133045200Y-106857800D03*
X133045200Y-109397800D03*
X133045200Y-111937800D03*
X133045200Y-114477800D03*
X133045200Y-117017800D03*
X140665200Y-117017800D03*
X140665200Y-114477800D03*
X140665200Y-111937800D03*
X140665200Y-109397800D03*
X140665200Y-106857800D03*
X140665200Y-104317800D03*
X140665200Y-101777800D03*
%TD*%
D14*
%TO.C,R16*%
X129590800Y-74644800D03*
D11*
X129590800Y-84804800D03*
%TD*%
D12*
%TO.C,D7*%
X158247000Y-93970000D03*
D13*
X158247000Y-91430000D03*
%TD*%
D25*
%TO.C,SW1*%
X100240000Y-147761200D03*
X93740000Y-147761200D03*
D26*
X90768000Y-148042000D03*
X103268000Y-148042000D03*
D25*
X100240000Y-143261200D03*
D26*
X90768000Y-143042000D03*
D25*
X93740000Y-143261200D03*
D26*
X103268000Y-143042000D03*
%TD*%
D12*
%TO.C,D13*%
X127000000Y-93980000D03*
D13*
X127000000Y-91440000D03*
%TD*%
D14*
%TO.C,C8*%
X104256200Y-46482000D03*
X109256200Y-46482000D03*
%TD*%
D12*
%TO.C,D15*%
X116840000Y-93980000D03*
D13*
X116840000Y-91440000D03*
%TD*%
D14*
%TO.C,C4*%
X129641600Y-110921800D03*
X129641600Y-115921800D03*
%TD*%
%TO.C,R45*%
X114046000Y-135128000D03*
D11*
X124206000Y-135128000D03*
%TD*%
D14*
%TO.C,C10*%
X109285800Y-124368800D03*
X109285800Y-119368800D03*
%TD*%
D12*
%TO.C,D9*%
X148087000Y-93970000D03*
D13*
X148087000Y-91430000D03*
%TD*%
D12*
%TO.C,D37*%
X85720000Y-63093600D03*
D13*
X88260000Y-63093600D03*
%TD*%
D14*
%TO.C,R2*%
X156819600Y-122377200D03*
D11*
X146659600Y-122377200D03*
%TD*%
D14*
%TO.C,R31*%
X139496800Y-46450800D03*
D11*
X139496800Y-36290800D03*
%TD*%
D12*
%TO.C,D10*%
X143007000Y-93970000D03*
D13*
X143007000Y-91430000D03*
%TD*%
D14*
%TO.C,R1*%
X144500600Y-104927400D03*
D11*
X144500600Y-115087400D03*
%TD*%
D26*
%TO.C,SW7*%
X111198000Y-148042000D03*
D25*
X114170000Y-147761200D03*
X120670000Y-147761200D03*
D26*
X123698000Y-148042000D03*
X111198000Y-143042000D03*
D25*
X120670000Y-143261200D03*
X114170000Y-143261200D03*
D26*
X123698000Y-143042000D03*
%TD*%
D12*
%TO.C,D20*%
X173405800Y-27427200D03*
D13*
X173405800Y-29967200D03*
%TD*%
D12*
%TO.C,D28*%
X129336800Y-27427200D03*
D13*
X129336800Y-29967200D03*
%TD*%
D14*
%TO.C,R37*%
X119684800Y-46450800D03*
D11*
X119684800Y-36290800D03*
%TD*%
D14*
%TO.C,R41*%
X96012000Y-63413000D03*
D11*
X96012000Y-73573000D03*
%TD*%
D14*
%TO.C,R22*%
X167182800Y-46450800D03*
D11*
X167182800Y-36290800D03*
%TD*%
D12*
%TO.C,D23*%
X158165800Y-27427200D03*
D13*
X158165800Y-29967200D03*
%TD*%
D14*
%TO.C,R47*%
X124206000Y-130911600D03*
D11*
X114046000Y-130911600D03*
%TD*%
D19*
%TO.C,J5*%
X104216200Y-132156200D03*
D27*
X104216200Y-129616200D03*
X106756200Y-132156200D03*
X106756200Y-129616200D03*
X109296200Y-132156200D03*
X109296200Y-129616200D03*
%TD*%
D20*
%TO.C,SW6*%
X141742600Y-134257100D03*
X133542600Y-134257100D03*
D21*
X135642600Y-134257100D03*
D22*
X137642600Y-134257100D03*
X139642600Y-134257100D03*
%TD*%
D12*
%TO.C,D19*%
X178485800Y-27427200D03*
D13*
X178485800Y-29967200D03*
%TD*%
D14*
%TO.C,R29*%
X84556600Y-112852200D03*
D11*
X94716600Y-112852200D03*
%TD*%
D14*
%TO.C,R25*%
X157276800Y-46450800D03*
D11*
X157276800Y-36290800D03*
%TD*%
D14*
%TO.C,R32*%
X136194800Y-46450800D03*
D11*
X136194800Y-36290800D03*
%TD*%
D10*
%TO.C,U3*%
X170352800Y-62203800D03*
D11*
X167812800Y-62203800D03*
X165272800Y-62203800D03*
X162732800Y-62203800D03*
X160192800Y-62203800D03*
X157652800Y-62203800D03*
X155112800Y-62203800D03*
X152572800Y-62203800D03*
X150032800Y-62203800D03*
X147492800Y-62203800D03*
X147492800Y-69823800D03*
X150032800Y-69823800D03*
X152572800Y-69823800D03*
X155112800Y-69823800D03*
X157652800Y-69823800D03*
X160192800Y-69823800D03*
X162732800Y-69823800D03*
X165272800Y-69823800D03*
X167812800Y-69823800D03*
X170352800Y-69823800D03*
%TD*%
D14*
%TO.C,R51*%
X94742000Y-109042200D03*
D11*
X84582000Y-109042200D03*
%TD*%
D10*
%TO.C,U5*%
X170352800Y-50524800D03*
D11*
X167812800Y-50524800D03*
X165272800Y-50524800D03*
X162732800Y-50524800D03*
X160192800Y-50524800D03*
X157652800Y-50524800D03*
X155112800Y-50524800D03*
X152572800Y-50524800D03*
X150032800Y-50524800D03*
X147492800Y-50524800D03*
X147492800Y-58144800D03*
X150032800Y-58144800D03*
X152572800Y-58144800D03*
X155112800Y-58144800D03*
X157652800Y-58144800D03*
X160192800Y-58144800D03*
X162732800Y-58144800D03*
X165272800Y-58144800D03*
X167812800Y-58144800D03*
X170352800Y-58144800D03*
%TD*%
D14*
%TO.C,R20*%
X116377800Y-74654800D03*
D11*
X116377800Y-84814800D03*
%TD*%
D14*
%TO.C,R9*%
X157276800Y-74639800D03*
D11*
X157276800Y-84799800D03*
%TD*%
D12*
%TO.C,D24*%
X153085800Y-27427200D03*
D13*
X153085800Y-29967200D03*
%TD*%
D12*
%TO.C,D1*%
X178562000Y-40233600D03*
D13*
X178562000Y-42773600D03*
%TD*%
D19*
%TO.C,J2*%
X179319000Y-65125600D03*
D27*
X181859000Y-65125600D03*
%TD*%
D14*
%TO.C,R40*%
X92710000Y-60045600D03*
D11*
X92710000Y-49885600D03*
%TD*%
D12*
%TO.C,D11*%
X137160000Y-93980000D03*
D13*
X137160000Y-91440000D03*
%TD*%
D12*
%TO.C,D35*%
X85720000Y-44805600D03*
D13*
X88260000Y-44805600D03*
%TD*%
D14*
%TO.C,R21*%
X170484800Y-46450800D03*
D11*
X170484800Y-36290800D03*
%TD*%
D25*
%TO.C,SW3*%
X173392000Y-147761200D03*
D26*
X163920000Y-148042000D03*
D25*
X166892000Y-147761200D03*
D26*
X176420000Y-148042000D03*
D25*
X166892000Y-143261200D03*
D26*
X163920000Y-143042000D03*
D25*
X173392000Y-143261200D03*
D26*
X176420000Y-143042000D03*
%TD*%
D14*
%TO.C,C11*%
X105628200Y-124368800D03*
X105628200Y-119368800D03*
%TD*%
D28*
%TO.C,RV1*%
X151118800Y-147951600D03*
D14*
X153608000Y-147977000D03*
D28*
X153618800Y-145451600D03*
X156118800Y-147951600D03*
%TD*%
D12*
%TO.C,D14*%
X121920000Y-93980000D03*
D13*
X121920000Y-91440000D03*
%TD*%
D12*
%TO.C,D5*%
X168177200Y-93970000D03*
D13*
X168177200Y-91430000D03*
%TD*%
D16*
%TO.C,H4*%
X84429600Y-151079200D03*
%TD*%
D12*
%TO.C,D31*%
X112699800Y-27427200D03*
D13*
X112699800Y-29967200D03*
%TD*%
D19*
%TO.C,J4*%
X154406600Y-134213600D03*
D27*
X151866600Y-134213600D03*
%TD*%
D14*
%TO.C,R5*%
X170484800Y-74639800D03*
D11*
X170484800Y-84799800D03*
%TD*%
D14*
%TO.C,R43*%
X182234200Y-58521600D03*
D11*
X182234200Y-48361600D03*
%TD*%
D26*
%TO.C,SW5*%
X143654000Y-148042000D03*
D25*
X140626000Y-147761200D03*
D26*
X131154000Y-148042000D03*
D25*
X134126000Y-147761200D03*
D26*
X143654000Y-143042000D03*
D25*
X140626000Y-143261200D03*
X134126000Y-143261200D03*
D26*
X131154000Y-143042000D03*
%TD*%
D14*
%TO.C,R6*%
X167182800Y-74639800D03*
D11*
X167182800Y-84799800D03*
%TD*%
D12*
%TO.C,D33*%
X97942400Y-27427200D03*
D13*
X97942400Y-29967200D03*
%TD*%
D14*
%TO.C,R17*%
X126288800Y-74644800D03*
D11*
X126288800Y-84804800D03*
%TD*%
D14*
%TO.C,R35*%
X126288800Y-46450800D03*
D11*
X126288800Y-36290800D03*
%TD*%
D12*
%TO.C,D25*%
X148005800Y-27427200D03*
D13*
X148005800Y-29967200D03*
%TD*%
D16*
%TO.C,H2*%
X189738000Y-28676600D03*
%TD*%
D14*
%TO.C,R13*%
X139496800Y-74644800D03*
D11*
X139496800Y-84804800D03*
%TD*%
D14*
%TO.C,R12*%
X147370800Y-74639800D03*
D11*
X147370800Y-84799800D03*
%TD*%
D14*
%TO.C,C3*%
X143306800Y-57200800D03*
X143306800Y-52200800D03*
%TD*%
D10*
%TO.C,U9*%
X115046600Y-101798200D03*
D11*
X115046600Y-104338200D03*
X115046600Y-106878200D03*
X115046600Y-109418200D03*
X115046600Y-111958200D03*
X115046600Y-114498200D03*
X115046600Y-117038200D03*
X122666600Y-117038200D03*
X122666600Y-114498200D03*
X122666600Y-111958200D03*
X122666600Y-109418200D03*
X122666600Y-106878200D03*
X122666600Y-104338200D03*
X122666600Y-101798200D03*
%TD*%
D12*
%TO.C,D21*%
X168325800Y-27427200D03*
D13*
X168325800Y-29967200D03*
%TD*%
D19*
%TO.C,J6*%
X179324000Y-73507600D03*
D27*
X181864000Y-73507600D03*
%TD*%
D12*
%TO.C,D6*%
X163097200Y-93970000D03*
D13*
X163097200Y-91430000D03*
%TD*%
D10*
%TO.C,U1*%
X148320600Y-101798200D03*
D11*
X148320600Y-104338200D03*
X148320600Y-106878200D03*
X148320600Y-109418200D03*
X148320600Y-111958200D03*
X148320600Y-114498200D03*
X148320600Y-117038200D03*
X155940600Y-117038200D03*
X155940600Y-114498200D03*
X155940600Y-111958200D03*
X155940600Y-109418200D03*
X155940600Y-106878200D03*
X155940600Y-104338200D03*
X155940600Y-101798200D03*
%TD*%
D12*
%TO.C,D40*%
X155448000Y-126441200D03*
D15*
X147828000Y-126441200D03*
%TD*%
D14*
%TO.C,R11*%
X150672800Y-74639800D03*
D11*
X150672800Y-84799800D03*
%TD*%
D12*
%TO.C,D38*%
X85720000Y-70652000D03*
D13*
X88260000Y-70652000D03*
%TD*%
D26*
%TO.C,SW2*%
X98606000Y-80111600D03*
X86106000Y-80111600D03*
D25*
X95634000Y-80392400D03*
X89134000Y-80392400D03*
X89134000Y-84892400D03*
X95634000Y-84892400D03*
D26*
X86106000Y-85111600D03*
X98606000Y-85111600D03*
%TD*%
D10*
%TO.C,U7*%
X102930800Y-50133800D03*
D11*
X102930800Y-52673800D03*
X102930800Y-55213800D03*
X102930800Y-57753800D03*
X102930800Y-60293800D03*
X102930800Y-62833800D03*
X102930800Y-65373800D03*
X102930800Y-67913800D03*
X102930800Y-70453800D03*
X102930800Y-72993800D03*
X110550800Y-72993800D03*
X110550800Y-70453800D03*
X110550800Y-67913800D03*
X110550800Y-65373800D03*
X110550800Y-62833800D03*
X110550800Y-60293800D03*
X110550800Y-57753800D03*
X110550800Y-55213800D03*
X110550800Y-52673800D03*
X110550800Y-50133800D03*
%TD*%
D14*
%TO.C,C12*%
X173228000Y-101600000D03*
X173228000Y-106600000D03*
%TD*%
D10*
%TO.C,U10*%
X102473600Y-101813200D03*
D11*
X102473600Y-104353200D03*
X102473600Y-106893200D03*
X102473600Y-109433200D03*
X110093600Y-109433200D03*
X110093600Y-106893200D03*
X110093600Y-104353200D03*
X110093600Y-101813200D03*
%TD*%
M02*
