%TF.GenerationSoftware,KiCad,Pcbnew,(6.0.9)*%
%TF.CreationDate,2022-11-23T18:20:09+10:30*%
%TF.ProjectId,DasBlinkenLights,44617342-6c69-46e6-9b65-6e4c69676874,rev?*%
%TF.SameCoordinates,Original*%
%TF.FileFunction,Legend,Top*%
%TF.FilePolarity,Positive*%
%FSLAX46Y46*%
G04 Gerber Fmt 4.6, Leading zero omitted, Abs format (unit mm)*
G04 Created by KiCad (PCBNEW (6.0.9)) date 2022-11-23 18:20:09*
%MOMM*%
%LPD*%
G01*
G04 APERTURE LIST*
%ADD10C,0.150000*%
%ADD11C,0.250000*%
%ADD12C,0.300000*%
%ADD13C,0.200000*%
%ADD14C,0.120000*%
G04 APERTURE END LIST*
D10*
X119354600Y-97180400D02*
X119354600Y-97383600D01*
X139039600Y-97383600D02*
X99669600Y-97383600D01*
X141071600Y-97383600D02*
X141071600Y-96875600D01*
X139039600Y-97383600D02*
X139039600Y-96875600D01*
X141020800Y-33553400D02*
X180390800Y-33553400D01*
X180060600Y-97383600D02*
X141071600Y-97383600D01*
X141020800Y-33553400D02*
X141020800Y-33045400D01*
X160629600Y-97231200D02*
X160629600Y-97383600D01*
X180390800Y-33553400D02*
X180390800Y-32918400D01*
X99618800Y-97383600D02*
X99618800Y-96875600D01*
X180060600Y-97383600D02*
X180060600Y-96748600D01*
X81203800Y-25338400D02*
X192963800Y-25338400D01*
X192963800Y-25338400D02*
X192963800Y-154573600D01*
X192963800Y-154573600D02*
X81203800Y-154573600D01*
X81203800Y-154573600D02*
X81203800Y-25338400D01*
X160705800Y-28448200D02*
X160705800Y-28956200D01*
X128690761Y-32894542D02*
X128643142Y-32942161D01*
X128500285Y-32989780D01*
X128405047Y-32989780D01*
X128262190Y-32942161D01*
X128166952Y-32846923D01*
X128119333Y-32751685D01*
X128071714Y-32561209D01*
X128071714Y-32418352D01*
X128119333Y-32227876D01*
X128166952Y-32132638D01*
X128262190Y-32037400D01*
X128405047Y-31989780D01*
X128500285Y-31989780D01*
X128643142Y-32037400D01*
X128690761Y-32085019D01*
X129595523Y-32989780D02*
X129119333Y-32989780D01*
X129119333Y-31989780D01*
X129928857Y-32989780D02*
X129928857Y-31989780D01*
X130500285Y-32989780D02*
X130071714Y-32418352D01*
X130500285Y-31989780D02*
X129928857Y-32561209D01*
X136547314Y-96534266D02*
X137023504Y-96534266D01*
X136452076Y-96819980D02*
X136785409Y-95819980D01*
X137118742Y-96819980D01*
X137594933Y-96248552D02*
X137499695Y-96200933D01*
X137452076Y-96153314D01*
X137404457Y-96058076D01*
X137404457Y-96010457D01*
X137452076Y-95915219D01*
X137499695Y-95867600D01*
X137594933Y-95819980D01*
X137785409Y-95819980D01*
X137880647Y-95867600D01*
X137928266Y-95915219D01*
X137975885Y-96010457D01*
X137975885Y-96058076D01*
X137928266Y-96153314D01*
X137880647Y-96200933D01*
X137785409Y-96248552D01*
X137594933Y-96248552D01*
X137499695Y-96296171D01*
X137452076Y-96343790D01*
X137404457Y-96439028D01*
X137404457Y-96629504D01*
X137452076Y-96724742D01*
X137499695Y-96772361D01*
X137594933Y-96819980D01*
X137785409Y-96819980D01*
X137880647Y-96772361D01*
X137928266Y-96724742D01*
X137975885Y-96629504D01*
X137975885Y-96439028D01*
X137928266Y-96343790D01*
X137880647Y-96296171D01*
X137785409Y-96248552D01*
D11*
X92264523Y-41053076D02*
X92264523Y-40398314D01*
X92205000Y-40279266D01*
X92085952Y-40219742D01*
X91847857Y-40219742D01*
X91728809Y-40279266D01*
X92264523Y-40993552D02*
X92145476Y-41053076D01*
X91847857Y-41053076D01*
X91728809Y-40993552D01*
X91669285Y-40874504D01*
X91669285Y-40755457D01*
X91728809Y-40636409D01*
X91847857Y-40576885D01*
X92145476Y-40576885D01*
X92264523Y-40517361D01*
X92859761Y-40219742D02*
X92859761Y-41053076D01*
X92859761Y-40338790D02*
X92919285Y-40279266D01*
X93038333Y-40219742D01*
X93216904Y-40219742D01*
X93335952Y-40279266D01*
X93395476Y-40398314D01*
X93395476Y-41053076D01*
X94526428Y-41053076D02*
X94526428Y-39803076D01*
X94526428Y-40993552D02*
X94407380Y-41053076D01*
X94169285Y-41053076D01*
X94050238Y-40993552D01*
X93990714Y-40934028D01*
X93931190Y-40814980D01*
X93931190Y-40457838D01*
X93990714Y-40338790D01*
X94050238Y-40279266D01*
X94169285Y-40219742D01*
X94407380Y-40219742D01*
X94526428Y-40279266D01*
X96014523Y-40993552D02*
X96133571Y-41053076D01*
X96371666Y-41053076D01*
X96490714Y-40993552D01*
X96550238Y-40874504D01*
X96550238Y-40814980D01*
X96490714Y-40695933D01*
X96371666Y-40636409D01*
X96193095Y-40636409D01*
X96074047Y-40576885D01*
X96014523Y-40457838D01*
X96014523Y-40398314D01*
X96074047Y-40279266D01*
X96193095Y-40219742D01*
X96371666Y-40219742D01*
X96490714Y-40279266D01*
X97085952Y-41053076D02*
X97085952Y-40219742D01*
X97085952Y-39803076D02*
X97026428Y-39862600D01*
X97085952Y-39922123D01*
X97145476Y-39862600D01*
X97085952Y-39803076D01*
X97085952Y-39922123D01*
X97681190Y-40219742D02*
X97681190Y-41053076D01*
X97681190Y-40338790D02*
X97740714Y-40279266D01*
X97859761Y-40219742D01*
X98038333Y-40219742D01*
X98157380Y-40279266D01*
X98216904Y-40398314D01*
X98216904Y-41053076D01*
X99347857Y-40219742D02*
X99347857Y-41231647D01*
X99288333Y-41350695D01*
X99228809Y-41410219D01*
X99109761Y-41469742D01*
X98931190Y-41469742D01*
X98812142Y-41410219D01*
X99347857Y-40993552D02*
X99228809Y-41053076D01*
X98990714Y-41053076D01*
X98871666Y-40993552D01*
X98812142Y-40934028D01*
X98752619Y-40814980D01*
X98752619Y-40457838D01*
X98812142Y-40338790D01*
X98871666Y-40279266D01*
X98990714Y-40219742D01*
X99228809Y-40219742D01*
X99347857Y-40279266D01*
X100121666Y-41053076D02*
X100002619Y-40993552D01*
X99943095Y-40874504D01*
X99943095Y-39803076D01*
X101074047Y-40993552D02*
X100955000Y-41053076D01*
X100716904Y-41053076D01*
X100597857Y-40993552D01*
X100538333Y-40874504D01*
X100538333Y-40398314D01*
X100597857Y-40279266D01*
X100716904Y-40219742D01*
X100955000Y-40219742D01*
X101074047Y-40279266D01*
X101133571Y-40398314D01*
X101133571Y-40517361D01*
X100538333Y-40636409D01*
X102562142Y-40993552D02*
X102681190Y-41053076D01*
X102919285Y-41053076D01*
X103038333Y-40993552D01*
X103097857Y-40874504D01*
X103097857Y-40814980D01*
X103038333Y-40695933D01*
X102919285Y-40636409D01*
X102740714Y-40636409D01*
X102621666Y-40576885D01*
X102562142Y-40457838D01*
X102562142Y-40398314D01*
X102621666Y-40279266D01*
X102740714Y-40219742D01*
X102919285Y-40219742D01*
X103038333Y-40279266D01*
X103455000Y-40219742D02*
X103931190Y-40219742D01*
X103633571Y-39803076D02*
X103633571Y-40874504D01*
X103693095Y-40993552D01*
X103812142Y-41053076D01*
X103931190Y-41053076D01*
X104824047Y-40993552D02*
X104705000Y-41053076D01*
X104466904Y-41053076D01*
X104347857Y-40993552D01*
X104288333Y-40874504D01*
X104288333Y-40398314D01*
X104347857Y-40279266D01*
X104466904Y-40219742D01*
X104705000Y-40219742D01*
X104824047Y-40279266D01*
X104883571Y-40398314D01*
X104883571Y-40517361D01*
X104288333Y-40636409D01*
X105419285Y-40219742D02*
X105419285Y-41469742D01*
X105419285Y-40279266D02*
X105538333Y-40219742D01*
X105776428Y-40219742D01*
X105895476Y-40279266D01*
X105955000Y-40338790D01*
X106014523Y-40457838D01*
X106014523Y-40814980D01*
X105955000Y-40934028D01*
X105895476Y-40993552D01*
X105776428Y-41053076D01*
X105538333Y-41053076D01*
X105419285Y-40993552D01*
X106550238Y-40219742D02*
X106550238Y-41469742D01*
X106550238Y-40279266D02*
X106669285Y-40219742D01*
X106907380Y-40219742D01*
X107026428Y-40279266D01*
X107085952Y-40338790D01*
X107145476Y-40457838D01*
X107145476Y-40814980D01*
X107085952Y-40934028D01*
X107026428Y-40993552D01*
X106907380Y-41053076D01*
X106669285Y-41053076D01*
X106550238Y-40993552D01*
X108157380Y-40993552D02*
X108038333Y-41053076D01*
X107800238Y-41053076D01*
X107681190Y-40993552D01*
X107621666Y-40874504D01*
X107621666Y-40398314D01*
X107681190Y-40279266D01*
X107800238Y-40219742D01*
X108038333Y-40219742D01*
X108157380Y-40279266D01*
X108216904Y-40398314D01*
X108216904Y-40517361D01*
X107621666Y-40636409D01*
X108752619Y-41053076D02*
X108752619Y-40219742D01*
X108752619Y-40457838D02*
X108812142Y-40338790D01*
X108871666Y-40279266D01*
X108990714Y-40219742D01*
X109109761Y-40219742D01*
D10*
X157642323Y-32989780D02*
X157642323Y-31989780D01*
X157880419Y-31989780D01*
X158023276Y-32037400D01*
X158118514Y-32132638D01*
X158166133Y-32227876D01*
X158213752Y-32418352D01*
X158213752Y-32561209D01*
X158166133Y-32751685D01*
X158118514Y-32846923D01*
X158023276Y-32942161D01*
X157880419Y-32989780D01*
X157642323Y-32989780D01*
X159070895Y-32989780D02*
X159070895Y-32465971D01*
X159023276Y-32370733D01*
X158928038Y-32323114D01*
X158737561Y-32323114D01*
X158642323Y-32370733D01*
X159070895Y-32942161D02*
X158975657Y-32989780D01*
X158737561Y-32989780D01*
X158642323Y-32942161D01*
X158594704Y-32846923D01*
X158594704Y-32751685D01*
X158642323Y-32656447D01*
X158737561Y-32608828D01*
X158975657Y-32608828D01*
X159070895Y-32561209D01*
X159404228Y-32323114D02*
X159785180Y-32323114D01*
X159547085Y-31989780D02*
X159547085Y-32846923D01*
X159594704Y-32942161D01*
X159689942Y-32989780D01*
X159785180Y-32989780D01*
X160547085Y-32989780D02*
X160547085Y-32465971D01*
X160499466Y-32370733D01*
X160404228Y-32323114D01*
X160213752Y-32323114D01*
X160118514Y-32370733D01*
X160547085Y-32942161D02*
X160451847Y-32989780D01*
X160213752Y-32989780D01*
X160118514Y-32942161D01*
X160070895Y-32846923D01*
X160070895Y-32751685D01*
X160118514Y-32656447D01*
X160213752Y-32608828D01*
X160451847Y-32608828D01*
X160547085Y-32561209D01*
X162118514Y-32465971D02*
X162261371Y-32513590D01*
X162308990Y-32561209D01*
X162356609Y-32656447D01*
X162356609Y-32799304D01*
X162308990Y-32894542D01*
X162261371Y-32942161D01*
X162166133Y-32989780D01*
X161785180Y-32989780D01*
X161785180Y-31989780D01*
X162118514Y-31989780D01*
X162213752Y-32037400D01*
X162261371Y-32085019D01*
X162308990Y-32180257D01*
X162308990Y-32275495D01*
X162261371Y-32370733D01*
X162213752Y-32418352D01*
X162118514Y-32465971D01*
X161785180Y-32465971D01*
X163213752Y-32323114D02*
X163213752Y-32989780D01*
X162785180Y-32323114D02*
X162785180Y-32846923D01*
X162832800Y-32942161D01*
X162928038Y-32989780D01*
X163070895Y-32989780D01*
X163166133Y-32942161D01*
X163213752Y-32894542D01*
X163642323Y-32942161D02*
X163737561Y-32989780D01*
X163928038Y-32989780D01*
X164023276Y-32942161D01*
X164070895Y-32846923D01*
X164070895Y-32799304D01*
X164023276Y-32704066D01*
X163928038Y-32656447D01*
X163785180Y-32656447D01*
X163689942Y-32608828D01*
X163642323Y-32513590D01*
X163642323Y-32465971D01*
X163689942Y-32370733D01*
X163785180Y-32323114D01*
X163928038Y-32323114D01*
X164023276Y-32370733D01*
X177186104Y-45131028D02*
X177948009Y-45131028D01*
X177567057Y-45511980D02*
X177567057Y-44750076D01*
X178900390Y-44511980D02*
X178424200Y-44511980D01*
X178376580Y-44988171D01*
X178424200Y-44940552D01*
X178519438Y-44892933D01*
X178757533Y-44892933D01*
X178852771Y-44940552D01*
X178900390Y-44988171D01*
X178948009Y-45083409D01*
X178948009Y-45321504D01*
X178900390Y-45416742D01*
X178852771Y-45464361D01*
X178757533Y-45511980D01*
X178519438Y-45511980D01*
X178424200Y-45464361D01*
X178376580Y-45416742D01*
X179281342Y-44845314D02*
X179519438Y-45511980D01*
X179757533Y-44845314D01*
D12*
X90226628Y-91204171D02*
X89726628Y-90489885D01*
X89369485Y-91204171D02*
X89369485Y-89704171D01*
X89940914Y-89704171D01*
X90083771Y-89775600D01*
X90155200Y-89847028D01*
X90226628Y-89989885D01*
X90226628Y-90204171D01*
X90155200Y-90347028D01*
X90083771Y-90418457D01*
X89940914Y-90489885D01*
X89369485Y-90489885D01*
X90869485Y-90418457D02*
X91369485Y-90418457D01*
X91583771Y-91204171D02*
X90869485Y-91204171D01*
X90869485Y-89704171D01*
X91583771Y-89704171D01*
X92155200Y-91132742D02*
X92369485Y-91204171D01*
X92726628Y-91204171D01*
X92869485Y-91132742D01*
X92940914Y-91061314D01*
X93012342Y-90918457D01*
X93012342Y-90775600D01*
X92940914Y-90632742D01*
X92869485Y-90561314D01*
X92726628Y-90489885D01*
X92440914Y-90418457D01*
X92298057Y-90347028D01*
X92226628Y-90275600D01*
X92155200Y-90132742D01*
X92155200Y-89989885D01*
X92226628Y-89847028D01*
X92298057Y-89775600D01*
X92440914Y-89704171D01*
X92798057Y-89704171D01*
X93012342Y-89775600D01*
X93655200Y-90418457D02*
X94155200Y-90418457D01*
X94369485Y-91204171D02*
X93655200Y-91204171D01*
X93655200Y-89704171D01*
X94369485Y-89704171D01*
X94798057Y-89704171D02*
X95655200Y-89704171D01*
X95226628Y-91204171D02*
X95226628Y-89704171D01*
D10*
X100104723Y-96280266D02*
X100580914Y-96280266D01*
X100009485Y-96565980D02*
X100342819Y-95565980D01*
X100676152Y-96565980D01*
X101533295Y-96565980D02*
X100961866Y-96565980D01*
X101247580Y-96565980D02*
X101247580Y-95565980D01*
X101152342Y-95708838D01*
X101057104Y-95804076D01*
X100961866Y-95851695D01*
X102438057Y-95565980D02*
X101961866Y-95565980D01*
X101914247Y-96042171D01*
X101961866Y-95994552D01*
X102057104Y-95946933D01*
X102295200Y-95946933D01*
X102390438Y-95994552D01*
X102438057Y-96042171D01*
X102485676Y-96137409D01*
X102485676Y-96375504D01*
X102438057Y-96470742D01*
X102390438Y-96518361D01*
X102295200Y-96565980D01*
X102057104Y-96565980D01*
X101961866Y-96518361D01*
X101914247Y-96470742D01*
D13*
X103771742Y-135412514D02*
X103943171Y-135469657D01*
X104228885Y-135469657D01*
X104343171Y-135412514D01*
X104400314Y-135355371D01*
X104457457Y-135241085D01*
X104457457Y-135126800D01*
X104400314Y-135012514D01*
X104343171Y-134955371D01*
X104228885Y-134898228D01*
X104000314Y-134841085D01*
X103886028Y-134783942D01*
X103828885Y-134726800D01*
X103771742Y-134612514D01*
X103771742Y-134498228D01*
X103828885Y-134383942D01*
X103886028Y-134326800D01*
X104000314Y-134269657D01*
X104286028Y-134269657D01*
X104457457Y-134326800D01*
D10*
X177747704Y-33014980D02*
X177747704Y-32014980D01*
X177985800Y-32014980D01*
X178128657Y-32062600D01*
X178223895Y-32157838D01*
X178271514Y-32253076D01*
X178319133Y-32443552D01*
X178319133Y-32586409D01*
X178271514Y-32776885D01*
X178223895Y-32872123D01*
X178128657Y-32967361D01*
X177985800Y-33014980D01*
X177747704Y-33014980D01*
X178938180Y-32014980D02*
X179033419Y-32014980D01*
X179128657Y-32062600D01*
X179176276Y-32110219D01*
X179223895Y-32205457D01*
X179271514Y-32395933D01*
X179271514Y-32634028D01*
X179223895Y-32824504D01*
X179176276Y-32919742D01*
X179128657Y-32967361D01*
X179033419Y-33014980D01*
X178938180Y-33014980D01*
X178842942Y-32967361D01*
X178795323Y-32919742D01*
X178747704Y-32824504D01*
X178700085Y-32634028D01*
X178700085Y-32395933D01*
X178747704Y-32205457D01*
X178795323Y-32110219D01*
X178842942Y-32062600D01*
X178938180Y-32014980D01*
X177822314Y-96534266D02*
X178298504Y-96534266D01*
X177727076Y-96819980D02*
X178060409Y-95819980D01*
X178393742Y-96819980D01*
X178917552Y-95819980D02*
X179012790Y-95819980D01*
X179108028Y-95867600D01*
X179155647Y-95915219D01*
X179203266Y-96010457D01*
X179250885Y-96200933D01*
X179250885Y-96439028D01*
X179203266Y-96629504D01*
X179155647Y-96724742D01*
X179108028Y-96772361D01*
X179012790Y-96819980D01*
X178917552Y-96819980D01*
X178822314Y-96772361D01*
X178774695Y-96724742D01*
X178727076Y-96629504D01*
X178679457Y-96439028D01*
X178679457Y-96200933D01*
X178727076Y-96010457D01*
X178774695Y-95915219D01*
X178822314Y-95867600D01*
X178917552Y-95819980D01*
X84947380Y-47785600D02*
X86090238Y-47785600D01*
X85185476Y-49067980D02*
X85185476Y-48067980D01*
X85518809Y-48782266D01*
X85852142Y-48067980D01*
X85852142Y-49067980D01*
X86090238Y-47785600D02*
X87090238Y-47785600D01*
X86899761Y-49067980D02*
X86566428Y-48591790D01*
X86328333Y-49067980D02*
X86328333Y-48067980D01*
X86709285Y-48067980D01*
X86804523Y-48115600D01*
X86852142Y-48163219D01*
X86899761Y-48258457D01*
X86899761Y-48401314D01*
X86852142Y-48496552D01*
X86804523Y-48544171D01*
X86709285Y-48591790D01*
X86328333Y-48591790D01*
X87090238Y-47785600D02*
X87995000Y-47785600D01*
X87328333Y-48544171D02*
X87661666Y-48544171D01*
X87804523Y-49067980D02*
X87328333Y-49067980D01*
X87328333Y-48067980D01*
X87804523Y-48067980D01*
X87995000Y-47785600D02*
X89042619Y-47785600D01*
X88899761Y-49163219D02*
X88804523Y-49115600D01*
X88709285Y-49020361D01*
X88566428Y-48877504D01*
X88471190Y-48829885D01*
X88375952Y-48829885D01*
X88423571Y-49067980D02*
X88328333Y-49020361D01*
X88233095Y-48925123D01*
X88185476Y-48734647D01*
X88185476Y-48401314D01*
X88233095Y-48210838D01*
X88328333Y-48115600D01*
X88423571Y-48067980D01*
X88614047Y-48067980D01*
X88709285Y-48115600D01*
X88804523Y-48210838D01*
X88852142Y-48401314D01*
X88852142Y-48734647D01*
X88804523Y-48925123D01*
X88709285Y-49020361D01*
X88614047Y-49067980D01*
X88423571Y-49067980D01*
D13*
X109366028Y-134841085D02*
X108966028Y-134841085D01*
X108966028Y-135469657D02*
X108966028Y-134269657D01*
X109537457Y-134269657D01*
D10*
X134532857Y-31783600D02*
X135532857Y-31783600D01*
X135342380Y-33065980D02*
X135009047Y-32589790D01*
X134770952Y-33065980D02*
X134770952Y-32065980D01*
X135151904Y-32065980D01*
X135247142Y-32113600D01*
X135294761Y-32161219D01*
X135342380Y-32256457D01*
X135342380Y-32399314D01*
X135294761Y-32494552D01*
X135247142Y-32542171D01*
X135151904Y-32589790D01*
X134770952Y-32589790D01*
X135532857Y-31783600D02*
X136485238Y-31783600D01*
X135723333Y-33018361D02*
X135866190Y-33065980D01*
X136104285Y-33065980D01*
X136199523Y-33018361D01*
X136247142Y-32970742D01*
X136294761Y-32875504D01*
X136294761Y-32780266D01*
X136247142Y-32685028D01*
X136199523Y-32637409D01*
X136104285Y-32589790D01*
X135913809Y-32542171D01*
X135818571Y-32494552D01*
X135770952Y-32446933D01*
X135723333Y-32351695D01*
X135723333Y-32256457D01*
X135770952Y-32161219D01*
X135818571Y-32113600D01*
X135913809Y-32065980D01*
X136151904Y-32065980D01*
X136294761Y-32113600D01*
X136485238Y-31783600D02*
X137247142Y-31783600D01*
X136580476Y-32065980D02*
X137151904Y-32065980D01*
X136866190Y-33065980D02*
X136866190Y-32065980D01*
X142262314Y-96534266D02*
X142738504Y-96534266D01*
X142167076Y-96819980D02*
X142500409Y-95819980D01*
X142833742Y-96819980D01*
X143071838Y-95819980D02*
X143738504Y-95819980D01*
X143309933Y-96819980D01*
X97044000Y-31783600D02*
X98044000Y-31783600D01*
X97853523Y-33065980D02*
X97520190Y-32589790D01*
X97282095Y-33065980D02*
X97282095Y-32065980D01*
X97663047Y-32065980D01*
X97758285Y-32113600D01*
X97805904Y-32161219D01*
X97853523Y-32256457D01*
X97853523Y-32399314D01*
X97805904Y-32494552D01*
X97758285Y-32542171D01*
X97663047Y-32589790D01*
X97282095Y-32589790D01*
X98044000Y-31783600D02*
X99044000Y-31783600D01*
X98282095Y-33065980D02*
X98282095Y-32065980D01*
X98520190Y-32065980D01*
X98663047Y-32113600D01*
X98758285Y-32208838D01*
X98805904Y-32304076D01*
X98853523Y-32494552D01*
X98853523Y-32637409D01*
X98805904Y-32827885D01*
X98758285Y-32923123D01*
X98663047Y-33018361D01*
X98520190Y-33065980D01*
X98282095Y-33065980D01*
X85661666Y-65565600D02*
X86709285Y-65565600D01*
X85899761Y-66847980D02*
X85899761Y-65847980D01*
X86471190Y-66847980D01*
X86471190Y-65847980D01*
X86709285Y-65565600D02*
X87852142Y-65565600D01*
X86947380Y-66847980D02*
X86947380Y-65847980D01*
X87280714Y-66562266D01*
X87614047Y-65847980D01*
X87614047Y-66847980D01*
X87852142Y-65565600D02*
X88328333Y-65565600D01*
X88090238Y-66847980D02*
X88090238Y-65847980D01*
X111080752Y-31834400D02*
X112223609Y-31834400D01*
X111223609Y-32116780D02*
X111461704Y-33116780D01*
X111652180Y-32402495D01*
X111842657Y-33116780D01*
X112080752Y-32116780D01*
X112223609Y-31834400D02*
X113080752Y-31834400D01*
X112414085Y-32831066D02*
X112890276Y-32831066D01*
X112318847Y-33116780D02*
X112652180Y-32116780D01*
X112985514Y-33116780D01*
X113080752Y-31834400D02*
X113556942Y-31834400D01*
X113318847Y-33116780D02*
X113318847Y-32116780D01*
X113556942Y-31834400D02*
X114318847Y-31834400D01*
X113652180Y-32116780D02*
X114223609Y-32116780D01*
X113937895Y-33116780D02*
X113937895Y-32116780D01*
X85852142Y-73185600D02*
X86328333Y-73185600D01*
X86090238Y-74467980D02*
X86090238Y-73467980D01*
X86328333Y-73185600D02*
X87375952Y-73185600D01*
X86566428Y-74467980D02*
X86566428Y-73467980D01*
X87137857Y-74467980D01*
X87137857Y-73467980D01*
X87375952Y-73185600D02*
X88137857Y-73185600D01*
X87471190Y-73467980D02*
X88042619Y-73467980D01*
X87756904Y-74467980D02*
X87756904Y-73467980D01*
D13*
X106407000Y-135520457D02*
X106407000Y-134320457D01*
X106807000Y-135177600D01*
X107207000Y-134320457D01*
X107207000Y-135520457D01*
D10*
X91638571Y-31783600D02*
X92781428Y-31783600D01*
X91781428Y-32065980D02*
X92019523Y-33065980D01*
X92210000Y-32351695D01*
X92400476Y-33065980D01*
X92638571Y-32065980D01*
X92781428Y-31783600D02*
X93781428Y-31783600D01*
X93590952Y-33065980D02*
X93257619Y-32589790D01*
X93019523Y-33065980D02*
X93019523Y-32065980D01*
X93400476Y-32065980D01*
X93495714Y-32113600D01*
X93543333Y-32161219D01*
X93590952Y-32256457D01*
X93590952Y-32399314D01*
X93543333Y-32494552D01*
X93495714Y-32542171D01*
X93400476Y-32589790D01*
X93019523Y-32589790D01*
X148382647Y-153614380D02*
X148382647Y-152614380D01*
X148763600Y-152614380D01*
X148858838Y-152662000D01*
X148906457Y-152709619D01*
X148954076Y-152804857D01*
X148954076Y-152947714D01*
X148906457Y-153042952D01*
X148858838Y-153090571D01*
X148763600Y-153138190D01*
X148382647Y-153138190D01*
X149382647Y-152614380D02*
X149382647Y-153423904D01*
X149430266Y-153519142D01*
X149477885Y-153566761D01*
X149573123Y-153614380D01*
X149763600Y-153614380D01*
X149858838Y-153566761D01*
X149906457Y-153519142D01*
X149954076Y-153423904D01*
X149954076Y-152614380D01*
X150906457Y-153614380D02*
X150430266Y-153614380D01*
X150430266Y-152614380D01*
X151192171Y-153566761D02*
X151335028Y-153614380D01*
X151573123Y-153614380D01*
X151668361Y-153566761D01*
X151715980Y-153519142D01*
X151763600Y-153423904D01*
X151763600Y-153328666D01*
X151715980Y-153233428D01*
X151668361Y-153185809D01*
X151573123Y-153138190D01*
X151382647Y-153090571D01*
X151287409Y-153042952D01*
X151239790Y-152995333D01*
X151192171Y-152900095D01*
X151192171Y-152804857D01*
X151239790Y-152709619D01*
X151287409Y-152662000D01*
X151382647Y-152614380D01*
X151620742Y-152614380D01*
X151763600Y-152662000D01*
X152192171Y-153090571D02*
X152525504Y-153090571D01*
X152668361Y-153614380D02*
X152192171Y-153614380D01*
X152192171Y-152614380D01*
X152668361Y-152614380D01*
X153811219Y-153566761D02*
X153954076Y-153614380D01*
X154192171Y-153614380D01*
X154287409Y-153566761D01*
X154335028Y-153519142D01*
X154382647Y-153423904D01*
X154382647Y-153328666D01*
X154335028Y-153233428D01*
X154287409Y-153185809D01*
X154192171Y-153138190D01*
X154001695Y-153090571D01*
X153906457Y-153042952D01*
X153858838Y-152995333D01*
X153811219Y-152900095D01*
X153811219Y-152804857D01*
X153858838Y-152709619D01*
X153906457Y-152662000D01*
X154001695Y-152614380D01*
X154239790Y-152614380D01*
X154382647Y-152662000D01*
X154811219Y-153614380D02*
X154811219Y-152614380D01*
X155192171Y-152614380D01*
X155287409Y-152662000D01*
X155335028Y-152709619D01*
X155382647Y-152804857D01*
X155382647Y-152947714D01*
X155335028Y-153042952D01*
X155287409Y-153090571D01*
X155192171Y-153138190D01*
X154811219Y-153138190D01*
X155811219Y-153090571D02*
X156144552Y-153090571D01*
X156287409Y-153614380D02*
X155811219Y-153614380D01*
X155811219Y-152614380D01*
X156287409Y-152614380D01*
X156715980Y-153090571D02*
X157049314Y-153090571D01*
X157192171Y-153614380D02*
X156715980Y-153614380D01*
X156715980Y-152614380D01*
X157192171Y-152614380D01*
X157620742Y-153614380D02*
X157620742Y-152614380D01*
X157858838Y-152614380D01*
X158001695Y-152662000D01*
X158096933Y-152757238D01*
X158144552Y-152852476D01*
X158192171Y-153042952D01*
X158192171Y-153185809D01*
X158144552Y-153376285D01*
X158096933Y-153471523D01*
X158001695Y-153566761D01*
X157858838Y-153614380D01*
X157620742Y-153614380D01*
X121761380Y-31809000D02*
X122904238Y-31809000D01*
X121999476Y-33091380D02*
X121999476Y-32091380D01*
X122332809Y-32805666D01*
X122666142Y-32091380D01*
X122666142Y-33091380D01*
X122904238Y-31809000D02*
X123856619Y-31809000D01*
X123666142Y-33091380D02*
X123094714Y-33091380D01*
X123380428Y-33091380D02*
X123380428Y-32091380D01*
X123285190Y-32234238D01*
X123189952Y-32329476D01*
X123094714Y-32377095D01*
X109860819Y-96534266D02*
X110337009Y-96534266D01*
X109765580Y-96819980D02*
X110098914Y-95819980D01*
X110432247Y-96819980D01*
X111194152Y-96819980D02*
X111194152Y-95819980D01*
X111194152Y-96772361D02*
X111098914Y-96819980D01*
X110908438Y-96819980D01*
X110813200Y-96772361D01*
X110765580Y-96724742D01*
X110717961Y-96629504D01*
X110717961Y-96343790D01*
X110765580Y-96248552D01*
X110813200Y-96200933D01*
X110908438Y-96153314D01*
X111098914Y-96153314D01*
X111194152Y-96200933D01*
X112098914Y-96819980D02*
X112098914Y-95819980D01*
X112098914Y-96772361D02*
X112003676Y-96819980D01*
X111813200Y-96819980D01*
X111717961Y-96772361D01*
X111670342Y-96724742D01*
X111622723Y-96629504D01*
X111622723Y-96343790D01*
X111670342Y-96248552D01*
X111717961Y-96200933D01*
X111813200Y-96153314D01*
X112003676Y-96153314D01*
X112098914Y-96200933D01*
X112575104Y-96819980D02*
X112575104Y-96153314D01*
X112575104Y-96343790D02*
X112622723Y-96248552D01*
X112670342Y-96200933D01*
X112765580Y-96153314D01*
X112860819Y-96153314D01*
X113575104Y-96772361D02*
X113479866Y-96819980D01*
X113289390Y-96819980D01*
X113194152Y-96772361D01*
X113146533Y-96677123D01*
X113146533Y-96296171D01*
X113194152Y-96200933D01*
X113289390Y-96153314D01*
X113479866Y-96153314D01*
X113575104Y-96200933D01*
X113622723Y-96296171D01*
X113622723Y-96391409D01*
X113146533Y-96486647D01*
X114003676Y-96772361D02*
X114098914Y-96819980D01*
X114289390Y-96819980D01*
X114384628Y-96772361D01*
X114432247Y-96677123D01*
X114432247Y-96629504D01*
X114384628Y-96534266D01*
X114289390Y-96486647D01*
X114146533Y-96486647D01*
X114051295Y-96439028D01*
X114003676Y-96343790D01*
X114003676Y-96296171D01*
X114051295Y-96200933D01*
X114146533Y-96153314D01*
X114289390Y-96153314D01*
X114384628Y-96200933D01*
X114813200Y-96772361D02*
X114908438Y-96819980D01*
X115098914Y-96819980D01*
X115194152Y-96772361D01*
X115241771Y-96677123D01*
X115241771Y-96629504D01*
X115194152Y-96534266D01*
X115098914Y-96486647D01*
X114956057Y-96486647D01*
X114860819Y-96439028D01*
X114813200Y-96343790D01*
X114813200Y-96296171D01*
X114860819Y-96200933D01*
X114956057Y-96153314D01*
X115098914Y-96153314D01*
X115194152Y-96200933D01*
X116765580Y-96296171D02*
X116908438Y-96343790D01*
X116956057Y-96391409D01*
X117003676Y-96486647D01*
X117003676Y-96629504D01*
X116956057Y-96724742D01*
X116908438Y-96772361D01*
X116813200Y-96819980D01*
X116432247Y-96819980D01*
X116432247Y-95819980D01*
X116765580Y-95819980D01*
X116860819Y-95867600D01*
X116908438Y-95915219D01*
X116956057Y-96010457D01*
X116956057Y-96105695D01*
X116908438Y-96200933D01*
X116860819Y-96248552D01*
X116765580Y-96296171D01*
X116432247Y-96296171D01*
X117860819Y-96153314D02*
X117860819Y-96819980D01*
X117432247Y-96153314D02*
X117432247Y-96677123D01*
X117479866Y-96772361D01*
X117575104Y-96819980D01*
X117717961Y-96819980D01*
X117813200Y-96772361D01*
X117860819Y-96724742D01*
X118289390Y-96772361D02*
X118384628Y-96819980D01*
X118575104Y-96819980D01*
X118670342Y-96772361D01*
X118717961Y-96677123D01*
X118717961Y-96629504D01*
X118670342Y-96534266D01*
X118575104Y-96486647D01*
X118432247Y-96486647D01*
X118337009Y-96439028D01*
X118289390Y-96343790D01*
X118289390Y-96296171D01*
X118337009Y-96200933D01*
X118432247Y-96153314D01*
X118575104Y-96153314D01*
X118670342Y-96200933D01*
X119908438Y-96819980D02*
X119908438Y-95819980D01*
X119908438Y-96296171D02*
X120479866Y-96296171D01*
X120479866Y-96819980D02*
X120479866Y-95819980D01*
X120956057Y-96819980D02*
X120956057Y-96153314D01*
X120956057Y-95819980D02*
X120908438Y-95867600D01*
X120956057Y-95915219D01*
X121003676Y-95867600D01*
X120956057Y-95819980D01*
X120956057Y-95915219D01*
X121860819Y-96153314D02*
X121860819Y-96962838D01*
X121813199Y-97058076D01*
X121765580Y-97105695D01*
X121670342Y-97153314D01*
X121527485Y-97153314D01*
X121432247Y-97105695D01*
X121860819Y-96772361D02*
X121765580Y-96819980D01*
X121575104Y-96819980D01*
X121479866Y-96772361D01*
X121432247Y-96724742D01*
X121384628Y-96629504D01*
X121384628Y-96343790D01*
X121432247Y-96248552D01*
X121479866Y-96200933D01*
X121575104Y-96153314D01*
X121765580Y-96153314D01*
X121860819Y-96200933D01*
X122337009Y-96819980D02*
X122337009Y-95819980D01*
X122765580Y-96819980D02*
X122765580Y-96296171D01*
X122717961Y-96200933D01*
X122622723Y-96153314D01*
X122479866Y-96153314D01*
X122384628Y-96200933D01*
X122337009Y-96248552D01*
X124337009Y-96296171D02*
X124479866Y-96343790D01*
X124527485Y-96391409D01*
X124575104Y-96486647D01*
X124575104Y-96629504D01*
X124527485Y-96724742D01*
X124479866Y-96772361D01*
X124384628Y-96819980D01*
X124003676Y-96819980D01*
X124003676Y-95819980D01*
X124337009Y-95819980D01*
X124432247Y-95867600D01*
X124479866Y-95915219D01*
X124527485Y-96010457D01*
X124527485Y-96105695D01*
X124479866Y-96200933D01*
X124432247Y-96248552D01*
X124337009Y-96296171D01*
X124003676Y-96296171D01*
X124908438Y-96153314D02*
X125146533Y-96819980D01*
X125384628Y-96153314D02*
X125146533Y-96819980D01*
X125051295Y-97058076D01*
X125003676Y-97105695D01*
X124908438Y-97153314D01*
X125622723Y-96153314D02*
X126003676Y-96153314D01*
X125765580Y-95819980D02*
X125765580Y-96677123D01*
X125813199Y-96772361D01*
X125908438Y-96819980D01*
X126003676Y-96819980D01*
X126717961Y-96772361D02*
X126622723Y-96819980D01*
X126432247Y-96819980D01*
X126337009Y-96772361D01*
X126289390Y-96677123D01*
X126289390Y-96296171D01*
X126337009Y-96200933D01*
X126432247Y-96153314D01*
X126622723Y-96153314D01*
X126717961Y-96200933D01*
X126765580Y-96296171D01*
X126765580Y-96391409D01*
X126289390Y-96486647D01*
X116470276Y-31834400D02*
X117517895Y-31834400D01*
X116708371Y-33116780D02*
X116708371Y-32116780D01*
X116708371Y-32592971D02*
X117279800Y-32592971D01*
X117279800Y-33116780D02*
X117279800Y-32116780D01*
X117517895Y-31834400D02*
X118327419Y-31834400D01*
X118232180Y-33116780D02*
X117755990Y-33116780D01*
X117755990Y-32116780D01*
X118327419Y-31834400D02*
X119089323Y-31834400D01*
X118422657Y-32116780D02*
X118994085Y-32116780D01*
X118708371Y-33116780D02*
X118708371Y-32116780D01*
X151142133Y-96534266D02*
X151618323Y-96534266D01*
X151046895Y-96819980D02*
X151380228Y-95819980D01*
X151713561Y-96819980D01*
X152475466Y-96819980D02*
X152475466Y-95819980D01*
X152475466Y-96772361D02*
X152380228Y-96819980D01*
X152189752Y-96819980D01*
X152094514Y-96772361D01*
X152046895Y-96724742D01*
X151999276Y-96629504D01*
X151999276Y-96343790D01*
X152046895Y-96248552D01*
X152094514Y-96200933D01*
X152189752Y-96153314D01*
X152380228Y-96153314D01*
X152475466Y-96200933D01*
X153380228Y-96819980D02*
X153380228Y-95819980D01*
X153380228Y-96772361D02*
X153284990Y-96819980D01*
X153094514Y-96819980D01*
X152999276Y-96772361D01*
X152951657Y-96724742D01*
X152904038Y-96629504D01*
X152904038Y-96343790D01*
X152951657Y-96248552D01*
X152999276Y-96200933D01*
X153094514Y-96153314D01*
X153284990Y-96153314D01*
X153380228Y-96200933D01*
X153856419Y-96819980D02*
X153856419Y-96153314D01*
X153856419Y-96343790D02*
X153904038Y-96248552D01*
X153951657Y-96200933D01*
X154046895Y-96153314D01*
X154142133Y-96153314D01*
X154856419Y-96772361D02*
X154761180Y-96819980D01*
X154570704Y-96819980D01*
X154475466Y-96772361D01*
X154427847Y-96677123D01*
X154427847Y-96296171D01*
X154475466Y-96200933D01*
X154570704Y-96153314D01*
X154761180Y-96153314D01*
X154856419Y-96200933D01*
X154904038Y-96296171D01*
X154904038Y-96391409D01*
X154427847Y-96486647D01*
X155284990Y-96772361D02*
X155380228Y-96819980D01*
X155570704Y-96819980D01*
X155665942Y-96772361D01*
X155713561Y-96677123D01*
X155713561Y-96629504D01*
X155665942Y-96534266D01*
X155570704Y-96486647D01*
X155427847Y-96486647D01*
X155332609Y-96439028D01*
X155284990Y-96343790D01*
X155284990Y-96296171D01*
X155332609Y-96200933D01*
X155427847Y-96153314D01*
X155570704Y-96153314D01*
X155665942Y-96200933D01*
X156094514Y-96772361D02*
X156189752Y-96819980D01*
X156380228Y-96819980D01*
X156475466Y-96772361D01*
X156523085Y-96677123D01*
X156523085Y-96629504D01*
X156475466Y-96534266D01*
X156380228Y-96486647D01*
X156237371Y-96486647D01*
X156142133Y-96439028D01*
X156094514Y-96343790D01*
X156094514Y-96296171D01*
X156142133Y-96200933D01*
X156237371Y-96153314D01*
X156380228Y-96153314D01*
X156475466Y-96200933D01*
X158046895Y-96296171D02*
X158189752Y-96343790D01*
X158237371Y-96391409D01*
X158284990Y-96486647D01*
X158284990Y-96629504D01*
X158237371Y-96724742D01*
X158189752Y-96772361D01*
X158094514Y-96819980D01*
X157713561Y-96819980D01*
X157713561Y-95819980D01*
X158046895Y-95819980D01*
X158142133Y-95867600D01*
X158189752Y-95915219D01*
X158237371Y-96010457D01*
X158237371Y-96105695D01*
X158189752Y-96200933D01*
X158142133Y-96248552D01*
X158046895Y-96296171D01*
X157713561Y-96296171D01*
X159142133Y-96153314D02*
X159142133Y-96819980D01*
X158713561Y-96153314D02*
X158713561Y-96677123D01*
X158761180Y-96772361D01*
X158856419Y-96819980D01*
X158999276Y-96819980D01*
X159094514Y-96772361D01*
X159142133Y-96724742D01*
X159570704Y-96772361D02*
X159665942Y-96819980D01*
X159856419Y-96819980D01*
X159951657Y-96772361D01*
X159999276Y-96677123D01*
X159999276Y-96629504D01*
X159951657Y-96534266D01*
X159856419Y-96486647D01*
X159713561Y-96486647D01*
X159618323Y-96439028D01*
X159570704Y-96343790D01*
X159570704Y-96296171D01*
X159618323Y-96200933D01*
X159713561Y-96153314D01*
X159856419Y-96153314D01*
X159951657Y-96200933D01*
X161665942Y-96819980D02*
X161189752Y-96819980D01*
X161189752Y-95819980D01*
X162142133Y-96819980D02*
X162046895Y-96772361D01*
X161999276Y-96724742D01*
X161951657Y-96629504D01*
X161951657Y-96343790D01*
X161999276Y-96248552D01*
X162046895Y-96200933D01*
X162142133Y-96153314D01*
X162284990Y-96153314D01*
X162380228Y-96200933D01*
X162427847Y-96248552D01*
X162475466Y-96343790D01*
X162475466Y-96629504D01*
X162427847Y-96724742D01*
X162380228Y-96772361D01*
X162284990Y-96819980D01*
X162142133Y-96819980D01*
X162808800Y-96153314D02*
X162999276Y-96819980D01*
X163189752Y-96343790D01*
X163380228Y-96819980D01*
X163570704Y-96153314D01*
X165046895Y-96296171D02*
X165189752Y-96343790D01*
X165237371Y-96391409D01*
X165284990Y-96486647D01*
X165284990Y-96629504D01*
X165237371Y-96724742D01*
X165189752Y-96772361D01*
X165094514Y-96819980D01*
X164713561Y-96819980D01*
X164713561Y-95819980D01*
X165046895Y-95819980D01*
X165142133Y-95867600D01*
X165189752Y-95915219D01*
X165237371Y-96010457D01*
X165237371Y-96105695D01*
X165189752Y-96200933D01*
X165142133Y-96248552D01*
X165046895Y-96296171D01*
X164713561Y-96296171D01*
X165618323Y-96153314D02*
X165856419Y-96819980D01*
X166094514Y-96153314D02*
X165856419Y-96819980D01*
X165761180Y-97058076D01*
X165713561Y-97105695D01*
X165618323Y-97153314D01*
X166332609Y-96153314D02*
X166713561Y-96153314D01*
X166475466Y-95819980D02*
X166475466Y-96677123D01*
X166523085Y-96772361D01*
X166618323Y-96819980D01*
X166713561Y-96819980D01*
X167427847Y-96772361D02*
X167332609Y-96819980D01*
X167142133Y-96819980D01*
X167046895Y-96772361D01*
X166999276Y-96677123D01*
X166999276Y-96296171D01*
X167046895Y-96200933D01*
X167142133Y-96153314D01*
X167332609Y-96153314D01*
X167427847Y-96200933D01*
X167475466Y-96296171D01*
X167475466Y-96391409D01*
X166999276Y-96486647D01*
X188666380Y-57996361D02*
X187666380Y-57996361D01*
X187666380Y-57758266D01*
X187714000Y-57615409D01*
X187809238Y-57520171D01*
X187904476Y-57472552D01*
X188094952Y-57424933D01*
X188237809Y-57424933D01*
X188428285Y-57472552D01*
X188523523Y-57520171D01*
X188618761Y-57615409D01*
X188666380Y-57758266D01*
X188666380Y-57996361D01*
X188618761Y-56615409D02*
X188666380Y-56710647D01*
X188666380Y-56901123D01*
X188618761Y-56996361D01*
X188523523Y-57043980D01*
X188142571Y-57043980D01*
X188047333Y-56996361D01*
X187999714Y-56901123D01*
X187999714Y-56710647D01*
X188047333Y-56615409D01*
X188142571Y-56567790D01*
X188237809Y-56567790D01*
X188333047Y-57043980D01*
X188618761Y-56186838D02*
X188666380Y-56091600D01*
X188666380Y-55901123D01*
X188618761Y-55805885D01*
X188523523Y-55758266D01*
X188475904Y-55758266D01*
X188380666Y-55805885D01*
X188333047Y-55901123D01*
X188333047Y-56043980D01*
X188285428Y-56139219D01*
X188190190Y-56186838D01*
X188142571Y-56186838D01*
X188047333Y-56139219D01*
X187999714Y-56043980D01*
X187999714Y-55901123D01*
X188047333Y-55805885D01*
X188666380Y-55329695D02*
X187999714Y-55329695D01*
X187666380Y-55329695D02*
X187714000Y-55377314D01*
X187761619Y-55329695D01*
X187714000Y-55282076D01*
X187666380Y-55329695D01*
X187761619Y-55329695D01*
X187999714Y-54424933D02*
X188809238Y-54424933D01*
X188904476Y-54472552D01*
X188952095Y-54520171D01*
X188999714Y-54615409D01*
X188999714Y-54758266D01*
X188952095Y-54853504D01*
X188618761Y-54424933D02*
X188666380Y-54520171D01*
X188666380Y-54710647D01*
X188618761Y-54805885D01*
X188571142Y-54853504D01*
X188475904Y-54901123D01*
X188190190Y-54901123D01*
X188094952Y-54853504D01*
X188047333Y-54805885D01*
X187999714Y-54710647D01*
X187999714Y-54520171D01*
X188047333Y-54424933D01*
X187999714Y-53948742D02*
X188666380Y-53948742D01*
X188094952Y-53948742D02*
X188047333Y-53901123D01*
X187999714Y-53805885D01*
X187999714Y-53663028D01*
X188047333Y-53567790D01*
X188142571Y-53520171D01*
X188666380Y-53520171D01*
X188618761Y-52663028D02*
X188666380Y-52758266D01*
X188666380Y-52948742D01*
X188618761Y-53043980D01*
X188523523Y-53091600D01*
X188142571Y-53091600D01*
X188047333Y-53043980D01*
X187999714Y-52948742D01*
X187999714Y-52758266D01*
X188047333Y-52663028D01*
X188142571Y-52615409D01*
X188237809Y-52615409D01*
X188333047Y-53091600D01*
X188666380Y-51758266D02*
X187666380Y-51758266D01*
X188618761Y-51758266D02*
X188666380Y-51853504D01*
X188666380Y-52043980D01*
X188618761Y-52139219D01*
X188571142Y-52186838D01*
X188475904Y-52234457D01*
X188190190Y-52234457D01*
X188094952Y-52186838D01*
X188047333Y-52139219D01*
X187999714Y-52043980D01*
X187999714Y-51853504D01*
X188047333Y-51758266D01*
X188666380Y-50520171D02*
X187666380Y-50520171D01*
X188047333Y-50520171D02*
X187999714Y-50424933D01*
X187999714Y-50234457D01*
X188047333Y-50139219D01*
X188094952Y-50091600D01*
X188190190Y-50043980D01*
X188475904Y-50043980D01*
X188571142Y-50091600D01*
X188618761Y-50139219D01*
X188666380Y-50234457D01*
X188666380Y-50424933D01*
X188618761Y-50520171D01*
X187999714Y-49710647D02*
X188666380Y-49472552D01*
X187999714Y-49234457D02*
X188666380Y-49472552D01*
X188904476Y-49567790D01*
X188952095Y-49615409D01*
X188999714Y-49710647D01*
X188571142Y-47520171D02*
X188618761Y-47567790D01*
X188666380Y-47710647D01*
X188666380Y-47805885D01*
X188618761Y-47948742D01*
X188523523Y-48043980D01*
X188428285Y-48091600D01*
X188237809Y-48139219D01*
X188094952Y-48139219D01*
X187904476Y-48091600D01*
X187809238Y-48043980D01*
X187714000Y-47948742D01*
X187666380Y-47805885D01*
X187666380Y-47710647D01*
X187714000Y-47567790D01*
X187761619Y-47520171D01*
X188666380Y-47091600D02*
X187999714Y-47091600D01*
X188190190Y-47091600D02*
X188094952Y-47043980D01*
X188047333Y-46996361D01*
X187999714Y-46901123D01*
X187999714Y-46805885D01*
X188666380Y-46043980D02*
X188142571Y-46043980D01*
X188047333Y-46091600D01*
X187999714Y-46186838D01*
X187999714Y-46377314D01*
X188047333Y-46472552D01*
X188618761Y-46043980D02*
X188666380Y-46139219D01*
X188666380Y-46377314D01*
X188618761Y-46472552D01*
X188523523Y-46520171D01*
X188428285Y-46520171D01*
X188333047Y-46472552D01*
X188285428Y-46377314D01*
X188285428Y-46139219D01*
X188237809Y-46043980D01*
X188666380Y-45567790D02*
X187999714Y-45567790D01*
X187666380Y-45567790D02*
X187714000Y-45615409D01*
X187761619Y-45567790D01*
X187714000Y-45520171D01*
X187666380Y-45567790D01*
X187761619Y-45567790D01*
X187999714Y-44663028D02*
X188809238Y-44663028D01*
X188904476Y-44710647D01*
X188952095Y-44758266D01*
X188999714Y-44853504D01*
X188999714Y-44996361D01*
X188952095Y-45091600D01*
X188618761Y-44663028D02*
X188666380Y-44758266D01*
X188666380Y-44948742D01*
X188618761Y-45043980D01*
X188571142Y-45091600D01*
X188475904Y-45139219D01*
X188190190Y-45139219D01*
X188094952Y-45091600D01*
X188047333Y-45043980D01*
X187999714Y-44948742D01*
X187999714Y-44758266D01*
X188047333Y-44663028D01*
X188666380Y-43424933D02*
X187666380Y-43424933D01*
X188142571Y-43424933D02*
X188142571Y-42853504D01*
X188666380Y-42853504D02*
X187666380Y-42853504D01*
X188666380Y-41948742D02*
X188142571Y-41948742D01*
X188047333Y-41996361D01*
X187999714Y-42091600D01*
X187999714Y-42282076D01*
X188047333Y-42377314D01*
X188618761Y-41948742D02*
X188666380Y-42043980D01*
X188666380Y-42282076D01*
X188618761Y-42377314D01*
X188523523Y-42424933D01*
X188428285Y-42424933D01*
X188333047Y-42377314D01*
X188285428Y-42282076D01*
X188285428Y-42043980D01*
X188237809Y-41948742D01*
X188666380Y-41472552D02*
X187999714Y-41472552D01*
X188190190Y-41472552D02*
X188094952Y-41424933D01*
X188047333Y-41377314D01*
X187999714Y-41282076D01*
X187999714Y-41186838D01*
X187999714Y-40996361D02*
X187999714Y-40615409D01*
X187666380Y-40853504D02*
X188523523Y-40853504D01*
X188618761Y-40805885D01*
X188666380Y-40710647D01*
X188666380Y-40615409D01*
X187761619Y-39567790D02*
X187714000Y-39520171D01*
X187666380Y-39424933D01*
X187666380Y-39186838D01*
X187714000Y-39091600D01*
X187761619Y-39043980D01*
X187856857Y-38996361D01*
X187952095Y-38996361D01*
X188094952Y-39043980D01*
X188666380Y-39615409D01*
X188666380Y-38996361D01*
X187666380Y-38377314D02*
X187666380Y-38282076D01*
X187714000Y-38186838D01*
X187761619Y-38139219D01*
X187856857Y-38091600D01*
X188047333Y-38043980D01*
X188285428Y-38043980D01*
X188475904Y-38091600D01*
X188571142Y-38139219D01*
X188618761Y-38186838D01*
X188666380Y-38282076D01*
X188666380Y-38377314D01*
X188618761Y-38472552D01*
X188571142Y-38520171D01*
X188475904Y-38567790D01*
X188285428Y-38615409D01*
X188047333Y-38615409D01*
X187856857Y-38567790D01*
X187761619Y-38520171D01*
X187714000Y-38472552D01*
X187666380Y-38377314D01*
X187761619Y-37663028D02*
X187714000Y-37615409D01*
X187666380Y-37520171D01*
X187666380Y-37282076D01*
X187714000Y-37186838D01*
X187761619Y-37139219D01*
X187856857Y-37091600D01*
X187952095Y-37091600D01*
X188094952Y-37139219D01*
X188666380Y-37710647D01*
X188666380Y-37091600D01*
X187761619Y-36710647D02*
X187714000Y-36663028D01*
X187666380Y-36567790D01*
X187666380Y-36329695D01*
X187714000Y-36234457D01*
X187761619Y-36186838D01*
X187856857Y-36139219D01*
X187952095Y-36139219D01*
X188094952Y-36186838D01*
X188666380Y-36758266D01*
X188666380Y-36139219D01*
X105691228Y-31834400D02*
X106691228Y-31834400D01*
X106500752Y-33116780D02*
X106167419Y-32640590D01*
X105929323Y-33116780D02*
X105929323Y-32116780D01*
X106310276Y-32116780D01*
X106405514Y-32164400D01*
X106453133Y-32212019D01*
X106500752Y-32307257D01*
X106500752Y-32450114D01*
X106453133Y-32545352D01*
X106405514Y-32592971D01*
X106310276Y-32640590D01*
X105929323Y-32640590D01*
X106691228Y-31834400D02*
X107548371Y-31834400D01*
X107262657Y-32592971D02*
X106929323Y-32592971D01*
X106929323Y-33116780D02*
X106929323Y-32116780D01*
X107405514Y-32116780D01*
X107548371Y-31834400D02*
X108500752Y-31834400D01*
X107738847Y-33069161D02*
X107881704Y-33116780D01*
X108119800Y-33116780D01*
X108215038Y-33069161D01*
X108262657Y-33021542D01*
X108310276Y-32926304D01*
X108310276Y-32831066D01*
X108262657Y-32735828D01*
X108215038Y-32688209D01*
X108119800Y-32640590D01*
X107929323Y-32592971D01*
X107834085Y-32545352D01*
X107786466Y-32497733D01*
X107738847Y-32402495D01*
X107738847Y-32307257D01*
X107786466Y-32212019D01*
X107834085Y-32164400D01*
X107929323Y-32116780D01*
X108167419Y-32116780D01*
X108310276Y-32164400D01*
X108500752Y-31834400D02*
X109548371Y-31834400D01*
X108738847Y-33116780D02*
X108738847Y-32116780D01*
X108738847Y-32592971D02*
X109310276Y-32592971D01*
X109310276Y-33116780D02*
X109310276Y-32116780D01*
X191079380Y-50694742D02*
X190603190Y-51028076D01*
X191079380Y-51266171D02*
X190079380Y-51266171D01*
X190079380Y-50885219D01*
X190127000Y-50789980D01*
X190174619Y-50742361D01*
X190269857Y-50694742D01*
X190412714Y-50694742D01*
X190507952Y-50742361D01*
X190555571Y-50789980D01*
X190603190Y-50885219D01*
X190603190Y-51266171D01*
X191031761Y-49885219D02*
X191079380Y-49980457D01*
X191079380Y-50170933D01*
X191031761Y-50266171D01*
X190936523Y-50313790D01*
X190555571Y-50313790D01*
X190460333Y-50266171D01*
X190412714Y-50170933D01*
X190412714Y-49980457D01*
X190460333Y-49885219D01*
X190555571Y-49837600D01*
X190650809Y-49837600D01*
X190746047Y-50313790D01*
X190412714Y-49504266D02*
X191079380Y-49266171D01*
X190412714Y-49028076D01*
X191079380Y-48647123D02*
X190412714Y-48647123D01*
X190079380Y-48647123D02*
X190127000Y-48694742D01*
X190174619Y-48647123D01*
X190127000Y-48599504D01*
X190079380Y-48647123D01*
X190174619Y-48647123D01*
X191031761Y-48218552D02*
X191079380Y-48123314D01*
X191079380Y-47932838D01*
X191031761Y-47837600D01*
X190936523Y-47789980D01*
X190888904Y-47789980D01*
X190793666Y-47837600D01*
X190746047Y-47932838D01*
X190746047Y-48075695D01*
X190698428Y-48170933D01*
X190603190Y-48218552D01*
X190555571Y-48218552D01*
X190460333Y-48170933D01*
X190412714Y-48075695D01*
X190412714Y-47932838D01*
X190460333Y-47837600D01*
X191079380Y-47361409D02*
X190412714Y-47361409D01*
X190079380Y-47361409D02*
X190127000Y-47409028D01*
X190174619Y-47361409D01*
X190127000Y-47313790D01*
X190079380Y-47361409D01*
X190174619Y-47361409D01*
X191079380Y-46742361D02*
X191031761Y-46837600D01*
X190984142Y-46885219D01*
X190888904Y-46932838D01*
X190603190Y-46932838D01*
X190507952Y-46885219D01*
X190460333Y-46837600D01*
X190412714Y-46742361D01*
X190412714Y-46599504D01*
X190460333Y-46504266D01*
X190507952Y-46456647D01*
X190603190Y-46409028D01*
X190888904Y-46409028D01*
X190984142Y-46456647D01*
X191031761Y-46504266D01*
X191079380Y-46599504D01*
X191079380Y-46742361D01*
X190412714Y-45980457D02*
X191079380Y-45980457D01*
X190507952Y-45980457D02*
X190460333Y-45932838D01*
X190412714Y-45837600D01*
X190412714Y-45694742D01*
X190460333Y-45599504D01*
X190555571Y-45551885D01*
X191079380Y-45551885D01*
X191079380Y-43789980D02*
X191079380Y-44361409D01*
X191079380Y-44075695D02*
X190079380Y-44075695D01*
X190222238Y-44170933D01*
X190317476Y-44266171D01*
X190365095Y-44361409D01*
X190984142Y-43361409D02*
X191031761Y-43313790D01*
X191079380Y-43361409D01*
X191031761Y-43409028D01*
X190984142Y-43361409D01*
X191079380Y-43361409D01*
X191079380Y-42361409D02*
X191079380Y-42932838D01*
X191079380Y-42647123D02*
X190079380Y-42647123D01*
X190222238Y-42742361D01*
X190317476Y-42837600D01*
X190365095Y-42932838D01*
X142187704Y-33014980D02*
X142187704Y-32014980D01*
X142425800Y-32014980D01*
X142568657Y-32062600D01*
X142663895Y-32157838D01*
X142711514Y-32253076D01*
X142759133Y-32443552D01*
X142759133Y-32586409D01*
X142711514Y-32776885D01*
X142663895Y-32872123D01*
X142568657Y-32967361D01*
X142425800Y-33014980D01*
X142187704Y-33014980D01*
X143092466Y-32014980D02*
X143759133Y-32014980D01*
X143330561Y-33014980D01*
X85209285Y-55659600D02*
X85685476Y-55659600D01*
X85447380Y-56941980D02*
X85447380Y-55941980D01*
X85685476Y-55659600D02*
X86733095Y-55659600D01*
X86114047Y-55941980D02*
X86304523Y-55941980D01*
X86399761Y-55989600D01*
X86495000Y-56084838D01*
X86542619Y-56275314D01*
X86542619Y-56608647D01*
X86495000Y-56799123D01*
X86399761Y-56894361D01*
X86304523Y-56941980D01*
X86114047Y-56941980D01*
X86018809Y-56894361D01*
X85923571Y-56799123D01*
X85875952Y-56608647D01*
X85875952Y-56275314D01*
X85923571Y-56084838D01*
X86018809Y-55989600D01*
X86114047Y-55941980D01*
X86733095Y-55659600D02*
X87733095Y-55659600D01*
X87542619Y-56941980D02*
X87209285Y-56465790D01*
X86971190Y-56941980D02*
X86971190Y-55941980D01*
X87352142Y-55941980D01*
X87447380Y-55989600D01*
X87495000Y-56037219D01*
X87542619Y-56132457D01*
X87542619Y-56275314D01*
X87495000Y-56370552D01*
X87447380Y-56418171D01*
X87352142Y-56465790D01*
X86971190Y-56465790D01*
X87733095Y-55659600D02*
X88780714Y-55659600D01*
X88637857Y-57037219D02*
X88542619Y-56989600D01*
X88447380Y-56894361D01*
X88304523Y-56751504D01*
X88209285Y-56703885D01*
X88114047Y-56703885D01*
X88161666Y-56941980D02*
X88066428Y-56894361D01*
X87971190Y-56799123D01*
X87923571Y-56608647D01*
X87923571Y-56275314D01*
X87971190Y-56084838D01*
X88066428Y-55989600D01*
X88161666Y-55941980D01*
X88352142Y-55941980D01*
X88447380Y-55989600D01*
X88542619Y-56084838D01*
X88590238Y-56275314D01*
X88590238Y-56608647D01*
X88542619Y-56799123D01*
X88447380Y-56894361D01*
X88352142Y-56941980D01*
X88161666Y-56941980D01*
D12*
X89250666Y-38485266D02*
X89250666Y-36735266D01*
X89667333Y-36735266D01*
X89917333Y-36818600D01*
X90084000Y-36985266D01*
X90167333Y-37151933D01*
X90250666Y-37485266D01*
X90250666Y-37735266D01*
X90167333Y-38068600D01*
X90084000Y-38235266D01*
X89917333Y-38401933D01*
X89667333Y-38485266D01*
X89250666Y-38485266D01*
X91750666Y-38485266D02*
X91750666Y-37568600D01*
X91667333Y-37401933D01*
X91500666Y-37318600D01*
X91167333Y-37318600D01*
X91000666Y-37401933D01*
X91750666Y-38401933D02*
X91584000Y-38485266D01*
X91167333Y-38485266D01*
X91000666Y-38401933D01*
X90917333Y-38235266D01*
X90917333Y-38068600D01*
X91000666Y-37901933D01*
X91167333Y-37818600D01*
X91584000Y-37818600D01*
X91750666Y-37735266D01*
X92500666Y-38401933D02*
X92667333Y-38485266D01*
X93000666Y-38485266D01*
X93167333Y-38401933D01*
X93250666Y-38235266D01*
X93250666Y-38151933D01*
X93167333Y-37985266D01*
X93000666Y-37901933D01*
X92750666Y-37901933D01*
X92584000Y-37818600D01*
X92500666Y-37651933D01*
X92500666Y-37568600D01*
X92584000Y-37401933D01*
X92750666Y-37318600D01*
X93000666Y-37318600D01*
X93167333Y-37401933D01*
X95917333Y-37568600D02*
X96167333Y-37651933D01*
X96250666Y-37735266D01*
X96334000Y-37901933D01*
X96334000Y-38151933D01*
X96250666Y-38318600D01*
X96167333Y-38401933D01*
X96000666Y-38485266D01*
X95334000Y-38485266D01*
X95334000Y-36735266D01*
X95917333Y-36735266D01*
X96084000Y-36818600D01*
X96167333Y-36901933D01*
X96250666Y-37068600D01*
X96250666Y-37235266D01*
X96167333Y-37401933D01*
X96084000Y-37485266D01*
X95917333Y-37568600D01*
X95334000Y-37568600D01*
X97334000Y-38485266D02*
X97167333Y-38401933D01*
X97084000Y-38235266D01*
X97084000Y-36735266D01*
X98000666Y-38485266D02*
X98000666Y-37318600D01*
X98000666Y-36735266D02*
X97917333Y-36818600D01*
X98000666Y-36901933D01*
X98084000Y-36818600D01*
X98000666Y-36735266D01*
X98000666Y-36901933D01*
X98834000Y-37318600D02*
X98834000Y-38485266D01*
X98834000Y-37485266D02*
X98917333Y-37401933D01*
X99084000Y-37318600D01*
X99334000Y-37318600D01*
X99500666Y-37401933D01*
X99584000Y-37568600D01*
X99584000Y-38485266D01*
X100417333Y-38485266D02*
X100417333Y-36735266D01*
X100584000Y-37818600D02*
X101084000Y-38485266D01*
X101084000Y-37318600D02*
X100417333Y-37985266D01*
X102500666Y-38401933D02*
X102334000Y-38485266D01*
X102000666Y-38485266D01*
X101834000Y-38401933D01*
X101750666Y-38235266D01*
X101750666Y-37568600D01*
X101834000Y-37401933D01*
X102000666Y-37318600D01*
X102334000Y-37318600D01*
X102500666Y-37401933D01*
X102584000Y-37568600D01*
X102584000Y-37735266D01*
X101750666Y-37901933D01*
X103334000Y-37318600D02*
X103334000Y-38485266D01*
X103334000Y-37485266D02*
X103417333Y-37401933D01*
X103584000Y-37318600D01*
X103834000Y-37318600D01*
X104000666Y-37401933D01*
X104084000Y-37568600D01*
X104084000Y-38485266D01*
X105750666Y-38485266D02*
X104917333Y-38485266D01*
X104917333Y-36735266D01*
X106334000Y-38485266D02*
X106334000Y-37318600D01*
X106334000Y-36735266D02*
X106250666Y-36818600D01*
X106334000Y-36901933D01*
X106417333Y-36818600D01*
X106334000Y-36735266D01*
X106334000Y-36901933D01*
X107917333Y-37318600D02*
X107917333Y-38735266D01*
X107834000Y-38901933D01*
X107750666Y-38985266D01*
X107584000Y-39068600D01*
X107334000Y-39068600D01*
X107167333Y-38985266D01*
X107917333Y-38401933D02*
X107750666Y-38485266D01*
X107417333Y-38485266D01*
X107250666Y-38401933D01*
X107167333Y-38318600D01*
X107084000Y-38151933D01*
X107084000Y-37651933D01*
X107167333Y-37485266D01*
X107250666Y-37401933D01*
X107417333Y-37318600D01*
X107750666Y-37318600D01*
X107917333Y-37401933D01*
X108750666Y-38485266D02*
X108750666Y-36735266D01*
X109500666Y-38485266D02*
X109500666Y-37568600D01*
X109417333Y-37401933D01*
X109250666Y-37318600D01*
X109000666Y-37318600D01*
X108834000Y-37401933D01*
X108750666Y-37485266D01*
X110084000Y-37318600D02*
X110750666Y-37318600D01*
X110334000Y-36735266D02*
X110334000Y-38235266D01*
X110417333Y-38401933D01*
X110584000Y-38485266D01*
X110750666Y-38485266D01*
X111250666Y-38401933D02*
X111417333Y-38485266D01*
X111750666Y-38485266D01*
X111917333Y-38401933D01*
X112000666Y-38235266D01*
X112000666Y-38151933D01*
X111917333Y-37985266D01*
X111750666Y-37901933D01*
X111500666Y-37901933D01*
X111334000Y-37818600D01*
X111250666Y-37651933D01*
X111250666Y-37568600D01*
X111334000Y-37401933D01*
X111500666Y-37318600D01*
X111750666Y-37318600D01*
X111917333Y-37401933D01*
D10*
%TO.C,U6*%
X113632180Y-57586704D02*
X113632180Y-56920038D01*
X114632180Y-57348609D01*
X113965514Y-56110514D02*
X114632180Y-56110514D01*
X113584561Y-56348609D02*
X114298847Y-56586704D01*
X114298847Y-55967657D01*
X114632180Y-55586704D02*
X113632180Y-55586704D01*
X114108371Y-55586704D02*
X114108371Y-55015276D01*
X114632180Y-55015276D02*
X113632180Y-55015276D01*
X114536942Y-53967657D02*
X114584561Y-54015276D01*
X114632180Y-54158133D01*
X114632180Y-54253371D01*
X114584561Y-54396228D01*
X114489323Y-54491466D01*
X114394085Y-54539085D01*
X114203609Y-54586704D01*
X114060752Y-54586704D01*
X113870276Y-54539085D01*
X113775038Y-54491466D01*
X113679800Y-54396228D01*
X113632180Y-54253371D01*
X113632180Y-54158133D01*
X113679800Y-54015276D01*
X113727419Y-53967657D01*
X113727419Y-53586704D02*
X113679800Y-53539085D01*
X113632180Y-53443847D01*
X113632180Y-53205752D01*
X113679800Y-53110514D01*
X113727419Y-53062895D01*
X113822657Y-53015276D01*
X113917895Y-53015276D01*
X114060752Y-53062895D01*
X114632180Y-53634323D01*
X114632180Y-53015276D01*
X113965514Y-52158133D02*
X114632180Y-52158133D01*
X113584561Y-52396228D02*
X114298847Y-52634323D01*
X114298847Y-52015276D01*
X113632180Y-51158133D02*
X113632180Y-51634323D01*
X114108371Y-51681942D01*
X114060752Y-51634323D01*
X114013133Y-51539085D01*
X114013133Y-51300990D01*
X114060752Y-51205752D01*
X114108371Y-51158133D01*
X114203609Y-51110514D01*
X114441704Y-51110514D01*
X114536942Y-51158133D01*
X114584561Y-51205752D01*
X114632180Y-51300990D01*
X114632180Y-51539085D01*
X114584561Y-51634323D01*
X114536942Y-51681942D01*
%TO.C,U4*%
X113627180Y-69280704D02*
X113627180Y-68614038D01*
X114627180Y-69042609D01*
X113960514Y-67804514D02*
X114627180Y-67804514D01*
X113579561Y-68042609D02*
X114293847Y-68280704D01*
X114293847Y-67661657D01*
X114627180Y-67280704D02*
X113627180Y-67280704D01*
X114103371Y-67280704D02*
X114103371Y-66709276D01*
X114627180Y-66709276D02*
X113627180Y-66709276D01*
X114531942Y-65661657D02*
X114579561Y-65709276D01*
X114627180Y-65852133D01*
X114627180Y-65947371D01*
X114579561Y-66090228D01*
X114484323Y-66185466D01*
X114389085Y-66233085D01*
X114198609Y-66280704D01*
X114055752Y-66280704D01*
X113865276Y-66233085D01*
X113770038Y-66185466D01*
X113674800Y-66090228D01*
X113627180Y-65947371D01*
X113627180Y-65852133D01*
X113674800Y-65709276D01*
X113722419Y-65661657D01*
X113722419Y-65280704D02*
X113674800Y-65233085D01*
X113627180Y-65137847D01*
X113627180Y-64899752D01*
X113674800Y-64804514D01*
X113722419Y-64756895D01*
X113817657Y-64709276D01*
X113912895Y-64709276D01*
X114055752Y-64756895D01*
X114627180Y-65328323D01*
X114627180Y-64709276D01*
X113960514Y-63852133D02*
X114627180Y-63852133D01*
X113579561Y-64090228D02*
X114293847Y-64328323D01*
X114293847Y-63709276D01*
X113627180Y-62852133D02*
X113627180Y-63328323D01*
X114103371Y-63375942D01*
X114055752Y-63328323D01*
X114008133Y-63233085D01*
X114008133Y-62994990D01*
X114055752Y-62899752D01*
X114103371Y-62852133D01*
X114198609Y-62804514D01*
X114436704Y-62804514D01*
X114531942Y-62852133D01*
X114579561Y-62899752D01*
X114627180Y-62994990D01*
X114627180Y-63233085D01*
X114579561Y-63328323D01*
X114531942Y-63375942D01*
%TO.C,R44*%
X118981552Y-122854980D02*
X118410123Y-122854980D01*
X118695838Y-122854980D02*
X118695838Y-121854980D01*
X118600600Y-121997838D01*
X118505361Y-122093076D01*
X118410123Y-122140695D01*
X119410123Y-122854980D02*
X119410123Y-121854980D01*
X119505361Y-122474028D02*
X119791076Y-122854980D01*
X119791076Y-122188314D02*
X119410123Y-122569266D01*
%TO.C,R49*%
X89092161Y-102128580D02*
X88520733Y-102128580D01*
X88806447Y-102128580D02*
X88806447Y-101128580D01*
X88711209Y-101271438D01*
X88615971Y-101366676D01*
X88520733Y-101414295D01*
X89711209Y-101128580D02*
X89806447Y-101128580D01*
X89901685Y-101176200D01*
X89949304Y-101223819D01*
X89996923Y-101319057D01*
X90044542Y-101509533D01*
X90044542Y-101747628D01*
X89996923Y-101938104D01*
X89949304Y-102033342D01*
X89901685Y-102080961D01*
X89806447Y-102128580D01*
X89711209Y-102128580D01*
X89615971Y-102080961D01*
X89568352Y-102033342D01*
X89520733Y-101938104D01*
X89473114Y-101747628D01*
X89473114Y-101509533D01*
X89520733Y-101319057D01*
X89568352Y-101223819D01*
X89615971Y-101176200D01*
X89711209Y-101128580D01*
X90473114Y-102128580D02*
X90473114Y-101128580D01*
X90568352Y-101747628D02*
X90854066Y-102128580D01*
X90854066Y-101461914D02*
X90473114Y-101842866D01*
%TO.C,D42*%
X116703742Y-126893580D02*
X116132314Y-126893580D01*
X116418028Y-126893580D02*
X116418028Y-125893580D01*
X116322790Y-126036438D01*
X116227552Y-126131676D01*
X116132314Y-126179295D01*
X117132314Y-126893580D02*
X117132314Y-125893580D01*
X117703742Y-126893580D01*
X117703742Y-125893580D01*
X118608504Y-126226914D02*
X118608504Y-126893580D01*
X118370409Y-125845961D02*
X118132314Y-126560247D01*
X118751361Y-126560247D01*
X119656123Y-126893580D02*
X119084695Y-126893580D01*
X119370409Y-126893580D02*
X119370409Y-125893580D01*
X119275171Y-126036438D01*
X119179933Y-126131676D01*
X119084695Y-126179295D01*
X120513266Y-126226914D02*
X120513266Y-126893580D01*
X120275171Y-125845961D02*
X120037076Y-126560247D01*
X120656123Y-126560247D01*
X121179933Y-126322152D02*
X121084695Y-126274533D01*
X121037076Y-126226914D01*
X120989457Y-126131676D01*
X120989457Y-126084057D01*
X121037076Y-125988819D01*
X121084695Y-125941200D01*
X121179933Y-125893580D01*
X121370409Y-125893580D01*
X121465647Y-125941200D01*
X121513266Y-125988819D01*
X121560885Y-126084057D01*
X121560885Y-126131676D01*
X121513266Y-126226914D01*
X121465647Y-126274533D01*
X121370409Y-126322152D01*
X121179933Y-126322152D01*
X121084695Y-126369771D01*
X121037076Y-126417390D01*
X120989457Y-126512628D01*
X120989457Y-126703104D01*
X121037076Y-126798342D01*
X121084695Y-126845961D01*
X121179933Y-126893580D01*
X121370409Y-126893580D01*
X121465647Y-126845961D01*
X121513266Y-126798342D01*
X121560885Y-126703104D01*
X121560885Y-126512628D01*
X121513266Y-126417390D01*
X121465647Y-126369771D01*
X121370409Y-126322152D01*
%TO.C,C9*%
X98775780Y-105055847D02*
X98775780Y-105627276D01*
X98775780Y-105341561D02*
X97775780Y-105341561D01*
X97918638Y-105436800D01*
X98013876Y-105532038D01*
X98061495Y-105627276D01*
X97775780Y-104436800D02*
X97775780Y-104341561D01*
X97823400Y-104246323D01*
X97871019Y-104198704D01*
X97966257Y-104151085D01*
X98156733Y-104103466D01*
X98394828Y-104103466D01*
X98585304Y-104151085D01*
X98680542Y-104198704D01*
X98728161Y-104246323D01*
X98775780Y-104341561D01*
X98775780Y-104436800D01*
X98728161Y-104532038D01*
X98680542Y-104579657D01*
X98585304Y-104627276D01*
X98394828Y-104674895D01*
X98156733Y-104674895D01*
X97966257Y-104627276D01*
X97871019Y-104579657D01*
X97823400Y-104532038D01*
X97775780Y-104436800D01*
X97775780Y-103484419D02*
X97775780Y-103389180D01*
X97823400Y-103293942D01*
X97871019Y-103246323D01*
X97966257Y-103198704D01*
X98156733Y-103151085D01*
X98394828Y-103151085D01*
X98585304Y-103198704D01*
X98680542Y-103246323D01*
X98728161Y-103293942D01*
X98775780Y-103389180D01*
X98775780Y-103484419D01*
X98728161Y-103579657D01*
X98680542Y-103627276D01*
X98585304Y-103674895D01*
X98394828Y-103722514D01*
X98156733Y-103722514D01*
X97966257Y-103674895D01*
X97871019Y-103627276D01*
X97823400Y-103579657D01*
X97775780Y-103484419D01*
X98109114Y-102722514D02*
X98775780Y-102722514D01*
X98204352Y-102722514D02*
X98156733Y-102674895D01*
X98109114Y-102579657D01*
X98109114Y-102436800D01*
X98156733Y-102341561D01*
X98251971Y-102293942D01*
X98775780Y-102293942D01*
%TO.C,R30*%
X126791980Y-110970866D02*
X126791980Y-111542295D01*
X126791980Y-111256580D02*
X125791980Y-111256580D01*
X125934838Y-111351819D01*
X126030076Y-111447057D01*
X126077695Y-111542295D01*
X125791980Y-110351819D02*
X125791980Y-110256580D01*
X125839600Y-110161342D01*
X125887219Y-110113723D01*
X125982457Y-110066104D01*
X126172933Y-110018485D01*
X126411028Y-110018485D01*
X126601504Y-110066104D01*
X126696742Y-110113723D01*
X126744361Y-110161342D01*
X126791980Y-110256580D01*
X126791980Y-110351819D01*
X126744361Y-110447057D01*
X126696742Y-110494676D01*
X126601504Y-110542295D01*
X126411028Y-110589914D01*
X126172933Y-110589914D01*
X125982457Y-110542295D01*
X125887219Y-110494676D01*
X125839600Y-110447057D01*
X125791980Y-110351819D01*
X125791980Y-109399438D02*
X125791980Y-109304200D01*
X125839600Y-109208961D01*
X125887219Y-109161342D01*
X125982457Y-109113723D01*
X126172933Y-109066104D01*
X126411028Y-109066104D01*
X126601504Y-109113723D01*
X126696742Y-109161342D01*
X126744361Y-109208961D01*
X126791980Y-109304200D01*
X126791980Y-109399438D01*
X126744361Y-109494676D01*
X126696742Y-109542295D01*
X126601504Y-109589914D01*
X126411028Y-109637533D01*
X126172933Y-109637533D01*
X125982457Y-109589914D01*
X125887219Y-109542295D01*
X125839600Y-109494676D01*
X125791980Y-109399438D01*
X126791980Y-108066104D02*
X126315790Y-108399438D01*
X126791980Y-108637533D02*
X125791980Y-108637533D01*
X125791980Y-108256580D01*
X125839600Y-108161342D01*
X125887219Y-108113723D01*
X125982457Y-108066104D01*
X126125314Y-108066104D01*
X126220552Y-108113723D01*
X126268171Y-108161342D01*
X126315790Y-108256580D01*
X126315790Y-108637533D01*
%TO.C,R48*%
X88495333Y-116987580D02*
X87923904Y-116987580D01*
X88209619Y-116987580D02*
X88209619Y-115987580D01*
X88114380Y-116130438D01*
X88019142Y-116225676D01*
X87923904Y-116273295D01*
X89114380Y-115987580D02*
X89209619Y-115987580D01*
X89304857Y-116035200D01*
X89352476Y-116082819D01*
X89400095Y-116178057D01*
X89447714Y-116368533D01*
X89447714Y-116606628D01*
X89400095Y-116797104D01*
X89352476Y-116892342D01*
X89304857Y-116939961D01*
X89209619Y-116987580D01*
X89114380Y-116987580D01*
X89019142Y-116939961D01*
X88971523Y-116892342D01*
X88923904Y-116797104D01*
X88876285Y-116606628D01*
X88876285Y-116368533D01*
X88923904Y-116178057D01*
X88971523Y-116082819D01*
X89019142Y-116035200D01*
X89114380Y-115987580D01*
X90066761Y-115987580D02*
X90162000Y-115987580D01*
X90257238Y-116035200D01*
X90304857Y-116082819D01*
X90352476Y-116178057D01*
X90400095Y-116368533D01*
X90400095Y-116606628D01*
X90352476Y-116797104D01*
X90304857Y-116892342D01*
X90257238Y-116939961D01*
X90162000Y-116987580D01*
X90066761Y-116987580D01*
X89971523Y-116939961D01*
X89923904Y-116892342D01*
X89876285Y-116797104D01*
X89828666Y-116606628D01*
X89828666Y-116368533D01*
X89876285Y-116178057D01*
X89923904Y-116082819D01*
X89971523Y-116035200D01*
X90066761Y-115987580D01*
X91400095Y-116987580D02*
X91066761Y-116511390D01*
X90828666Y-116987580D02*
X90828666Y-115987580D01*
X91209619Y-115987580D01*
X91304857Y-116035200D01*
X91352476Y-116082819D01*
X91400095Y-116178057D01*
X91400095Y-116320914D01*
X91352476Y-116416152D01*
X91304857Y-116463771D01*
X91209619Y-116511390D01*
X90828666Y-116511390D01*
%TO.C,C6*%
X101026933Y-126131580D02*
X100455504Y-126131580D01*
X100741219Y-126131580D02*
X100741219Y-125131580D01*
X100645980Y-125274438D01*
X100550742Y-125369676D01*
X100455504Y-125417295D01*
X101884076Y-125464914D02*
X101884076Y-126131580D01*
X101455504Y-125464914D02*
X101455504Y-125988723D01*
X101503123Y-126083961D01*
X101598361Y-126131580D01*
X101741219Y-126131580D01*
X101836457Y-126083961D01*
X101884076Y-126036342D01*
%TO.C,R4*%
X172680380Y-121064114D02*
X172680380Y-120445066D01*
X173061333Y-120778400D01*
X173061333Y-120635542D01*
X173108952Y-120540304D01*
X173156571Y-120492685D01*
X173251809Y-120445066D01*
X173489904Y-120445066D01*
X173585142Y-120492685D01*
X173632761Y-120540304D01*
X173680380Y-120635542D01*
X173680380Y-120921257D01*
X173632761Y-121016495D01*
X173585142Y-121064114D01*
X172680380Y-120111733D02*
X172680380Y-119492685D01*
X173061333Y-119826019D01*
X173061333Y-119683161D01*
X173108952Y-119587923D01*
X173156571Y-119540304D01*
X173251809Y-119492685D01*
X173489904Y-119492685D01*
X173585142Y-119540304D01*
X173632761Y-119587923D01*
X173680380Y-119683161D01*
X173680380Y-119968876D01*
X173632761Y-120064114D01*
X173585142Y-120111733D01*
X172680380Y-118873638D02*
X172680380Y-118778400D01*
X172728000Y-118683161D01*
X172775619Y-118635542D01*
X172870857Y-118587923D01*
X173061333Y-118540304D01*
X173299428Y-118540304D01*
X173489904Y-118587923D01*
X173585142Y-118635542D01*
X173632761Y-118683161D01*
X173680380Y-118778400D01*
X173680380Y-118873638D01*
X173632761Y-118968876D01*
X173585142Y-119016495D01*
X173489904Y-119064114D01*
X173299428Y-119111733D01*
X173061333Y-119111733D01*
X172870857Y-119064114D01*
X172775619Y-119016495D01*
X172728000Y-118968876D01*
X172680380Y-118873638D01*
X173680380Y-117540304D02*
X173204190Y-117873638D01*
X173680380Y-118111733D02*
X172680380Y-118111733D01*
X172680380Y-117730780D01*
X172728000Y-117635542D01*
X172775619Y-117587923D01*
X172870857Y-117540304D01*
X173013714Y-117540304D01*
X173108952Y-117587923D01*
X173156571Y-117635542D01*
X173204190Y-117730780D01*
X173204190Y-118111733D01*
%TO.C,J3*%
X185281971Y-61755600D02*
X186281971Y-61755600D01*
X186091495Y-63037980D02*
X185758161Y-62561790D01*
X185520066Y-63037980D02*
X185520066Y-62037980D01*
X185901019Y-62037980D01*
X185996257Y-62085600D01*
X186043876Y-62133219D01*
X186091495Y-62228457D01*
X186091495Y-62371314D01*
X186043876Y-62466552D01*
X185996257Y-62514171D01*
X185901019Y-62561790D01*
X185520066Y-62561790D01*
X186281971Y-61755600D02*
X187329590Y-61755600D01*
X186710542Y-62037980D02*
X186901019Y-62037980D01*
X186996257Y-62085600D01*
X187091495Y-62180838D01*
X187139114Y-62371314D01*
X187139114Y-62704647D01*
X187091495Y-62895123D01*
X186996257Y-62990361D01*
X186901019Y-63037980D01*
X186710542Y-63037980D01*
X186615304Y-62990361D01*
X186520066Y-62895123D01*
X186472447Y-62704647D01*
X186472447Y-62371314D01*
X186520066Y-62180838D01*
X186615304Y-62085600D01*
X186710542Y-62037980D01*
X187329590Y-61755600D02*
X188472447Y-61755600D01*
X187567685Y-63037980D02*
X187567685Y-62037980D01*
X187901019Y-62752266D01*
X188234352Y-62037980D01*
X188234352Y-63037980D01*
X188472447Y-61755600D02*
X189472447Y-61755600D01*
X189281971Y-62942742D02*
X189234352Y-62990361D01*
X189091495Y-63037980D01*
X188996257Y-63037980D01*
X188853400Y-62990361D01*
X188758161Y-62895123D01*
X188710542Y-62799885D01*
X188662923Y-62609409D01*
X188662923Y-62466552D01*
X188710542Y-62276076D01*
X188758161Y-62180838D01*
X188853400Y-62085600D01*
X188996257Y-62037980D01*
X189091495Y-62037980D01*
X189234352Y-62085600D01*
X189281971Y-62133219D01*
X189472447Y-61755600D02*
X190424828Y-61755600D01*
X189662923Y-62990361D02*
X189805780Y-63037980D01*
X190043876Y-63037980D01*
X190139114Y-62990361D01*
X190186733Y-62942742D01*
X190234352Y-62847504D01*
X190234352Y-62752266D01*
X190186733Y-62657028D01*
X190139114Y-62609409D01*
X190043876Y-62561790D01*
X189853400Y-62514171D01*
X189758161Y-62466552D01*
X189710542Y-62418933D01*
X189662923Y-62323695D01*
X189662923Y-62228457D01*
X189710542Y-62133219D01*
X189758161Y-62085600D01*
X189853400Y-62037980D01*
X190091495Y-62037980D01*
X190234352Y-62085600D01*
%TO.C,R3*%
X178014380Y-55354314D02*
X178014380Y-54735266D01*
X178395333Y-55068600D01*
X178395333Y-54925742D01*
X178442952Y-54830504D01*
X178490571Y-54782885D01*
X178585809Y-54735266D01*
X178823904Y-54735266D01*
X178919142Y-54782885D01*
X178966761Y-54830504D01*
X179014380Y-54925742D01*
X179014380Y-55211457D01*
X178966761Y-55306695D01*
X178919142Y-55354314D01*
X178014380Y-54401933D02*
X178014380Y-53782885D01*
X178395333Y-54116219D01*
X178395333Y-53973361D01*
X178442952Y-53878123D01*
X178490571Y-53830504D01*
X178585809Y-53782885D01*
X178823904Y-53782885D01*
X178919142Y-53830504D01*
X178966761Y-53878123D01*
X179014380Y-53973361D01*
X179014380Y-54259076D01*
X178966761Y-54354314D01*
X178919142Y-54401933D01*
X178014380Y-53163838D02*
X178014380Y-53068600D01*
X178062000Y-52973361D01*
X178109619Y-52925742D01*
X178204857Y-52878123D01*
X178395333Y-52830504D01*
X178633428Y-52830504D01*
X178823904Y-52878123D01*
X178919142Y-52925742D01*
X178966761Y-52973361D01*
X179014380Y-53068600D01*
X179014380Y-53163838D01*
X178966761Y-53259076D01*
X178919142Y-53306695D01*
X178823904Y-53354314D01*
X178633428Y-53401933D01*
X178395333Y-53401933D01*
X178204857Y-53354314D01*
X178109619Y-53306695D01*
X178062000Y-53259076D01*
X178014380Y-53163838D01*
X179014380Y-51830504D02*
X178538190Y-52163838D01*
X179014380Y-52401933D02*
X178014380Y-52401933D01*
X178014380Y-52020980D01*
X178062000Y-51925742D01*
X178109619Y-51878123D01*
X178204857Y-51830504D01*
X178347714Y-51830504D01*
X178442952Y-51878123D01*
X178490571Y-51925742D01*
X178538190Y-52020980D01*
X178538190Y-52401933D01*
%TO.C,U2*%
X162832285Y-118693580D02*
X163498952Y-118693580D01*
X163070380Y-119693580D01*
X164308476Y-119026914D02*
X164308476Y-119693580D01*
X164070380Y-118645961D02*
X163832285Y-119360247D01*
X164451333Y-119360247D01*
X164832285Y-119693580D02*
X164832285Y-118693580D01*
X164832285Y-119169771D02*
X165403714Y-119169771D01*
X165403714Y-119693580D02*
X165403714Y-118693580D01*
X166451333Y-119598342D02*
X166403714Y-119645961D01*
X166260857Y-119693580D01*
X166165619Y-119693580D01*
X166022761Y-119645961D01*
X165927523Y-119550723D01*
X165879904Y-119455485D01*
X165832285Y-119265009D01*
X165832285Y-119122152D01*
X165879904Y-118931676D01*
X165927523Y-118836438D01*
X166022761Y-118741200D01*
X166165619Y-118693580D01*
X166260857Y-118693580D01*
X166403714Y-118741200D01*
X166451333Y-118788819D01*
X166784666Y-118693580D02*
X167451333Y-118693580D01*
X167022761Y-119693580D01*
X168260857Y-119026914D02*
X168260857Y-119693580D01*
X168022761Y-118645961D02*
X167784666Y-119360247D01*
X168403714Y-119360247D01*
%TO.C,C1*%
X164448952Y-122827080D02*
X163877523Y-122827080D01*
X164163238Y-122827080D02*
X164163238Y-121827080D01*
X164068000Y-121969938D01*
X163972761Y-122065176D01*
X163877523Y-122112795D01*
X165068000Y-121827080D02*
X165163238Y-121827080D01*
X165258476Y-121874700D01*
X165306095Y-121922319D01*
X165353714Y-122017557D01*
X165401333Y-122208033D01*
X165401333Y-122446128D01*
X165353714Y-122636604D01*
X165306095Y-122731842D01*
X165258476Y-122779461D01*
X165163238Y-122827080D01*
X165068000Y-122827080D01*
X164972761Y-122779461D01*
X164925142Y-122731842D01*
X164877523Y-122636604D01*
X164829904Y-122446128D01*
X164829904Y-122208033D01*
X164877523Y-122017557D01*
X164925142Y-121922319D01*
X164972761Y-121874700D01*
X165068000Y-121827080D01*
X166020380Y-121827080D02*
X166115619Y-121827080D01*
X166210857Y-121874700D01*
X166258476Y-121922319D01*
X166306095Y-122017557D01*
X166353714Y-122208033D01*
X166353714Y-122446128D01*
X166306095Y-122636604D01*
X166258476Y-122731842D01*
X166210857Y-122779461D01*
X166115619Y-122827080D01*
X166020380Y-122827080D01*
X165925142Y-122779461D01*
X165877523Y-122731842D01*
X165829904Y-122636604D01*
X165782285Y-122446128D01*
X165782285Y-122208033D01*
X165829904Y-122017557D01*
X165877523Y-121922319D01*
X165925142Y-121874700D01*
X166020380Y-121827080D01*
X166782285Y-122160414D02*
X166782285Y-122827080D01*
X166782285Y-122255652D02*
X166829904Y-122208033D01*
X166925142Y-122160414D01*
X167068000Y-122160414D01*
X167163238Y-122208033D01*
X167210857Y-122303271D01*
X167210857Y-122827080D01*
%TO.C,SW4*%
X167226028Y-137684080D02*
X166892695Y-137207890D01*
X166654600Y-137684080D02*
X166654600Y-136684080D01*
X167035552Y-136684080D01*
X167130790Y-136731700D01*
X167178409Y-136779319D01*
X167226028Y-136874557D01*
X167226028Y-137017414D01*
X167178409Y-137112652D01*
X167130790Y-137160271D01*
X167035552Y-137207890D01*
X166654600Y-137207890D01*
X168083171Y-137017414D02*
X168083171Y-137684080D01*
X167654600Y-137017414D02*
X167654600Y-137541223D01*
X167702219Y-137636461D01*
X167797457Y-137684080D01*
X167940314Y-137684080D01*
X168035552Y-137636461D01*
X168083171Y-137588842D01*
X168559361Y-137017414D02*
X168559361Y-137684080D01*
X168559361Y-137112652D02*
X168606980Y-137065033D01*
X168702219Y-137017414D01*
X168845076Y-137017414D01*
X168940314Y-137065033D01*
X168987933Y-137160271D01*
X168987933Y-137684080D01*
X170178409Y-136636461D02*
X169321266Y-137922176D01*
X170464123Y-137636461D02*
X170606980Y-137684080D01*
X170845076Y-137684080D01*
X170940314Y-137636461D01*
X170987933Y-137588842D01*
X171035552Y-137493604D01*
X171035552Y-137398366D01*
X170987933Y-137303128D01*
X170940314Y-137255509D01*
X170845076Y-137207890D01*
X170654600Y-137160271D01*
X170559361Y-137112652D01*
X170511742Y-137065033D01*
X170464123Y-136969795D01*
X170464123Y-136874557D01*
X170511742Y-136779319D01*
X170559361Y-136731700D01*
X170654600Y-136684080D01*
X170892695Y-136684080D01*
X171035552Y-136731700D01*
X171321266Y-136684080D02*
X171892695Y-136684080D01*
X171606980Y-137684080D02*
X171606980Y-136684080D01*
X172226028Y-137160271D02*
X172559361Y-137160271D01*
X172702219Y-137684080D02*
X172226028Y-137684080D01*
X172226028Y-136684080D01*
X172702219Y-136684080D01*
X173130790Y-137684080D02*
X173130790Y-136684080D01*
X173511742Y-136684080D01*
X173606980Y-136731700D01*
X173654600Y-136779319D01*
X173702219Y-136874557D01*
X173702219Y-137017414D01*
X173654600Y-137112652D01*
X173606980Y-137160271D01*
X173511742Y-137207890D01*
X173130790Y-137207890D01*
%TO.C,D41*%
X134864742Y-126791980D02*
X134293314Y-126791980D01*
X134579028Y-126791980D02*
X134579028Y-125791980D01*
X134483790Y-125934838D01*
X134388552Y-126030076D01*
X134293314Y-126077695D01*
X135293314Y-126791980D02*
X135293314Y-125791980D01*
X135864742Y-126791980D01*
X135864742Y-125791980D01*
X136769504Y-126125314D02*
X136769504Y-126791980D01*
X136531409Y-125744361D02*
X136293314Y-126458647D01*
X136912361Y-126458647D01*
X137817123Y-126791980D02*
X137245695Y-126791980D01*
X137531409Y-126791980D02*
X137531409Y-125791980D01*
X137436171Y-125934838D01*
X137340933Y-126030076D01*
X137245695Y-126077695D01*
X138674266Y-126125314D02*
X138674266Y-126791980D01*
X138436171Y-125744361D02*
X138198076Y-126458647D01*
X138817123Y-126458647D01*
X139340933Y-126220552D02*
X139245695Y-126172933D01*
X139198076Y-126125314D01*
X139150457Y-126030076D01*
X139150457Y-125982457D01*
X139198076Y-125887219D01*
X139245695Y-125839600D01*
X139340933Y-125791980D01*
X139531409Y-125791980D01*
X139626647Y-125839600D01*
X139674266Y-125887219D01*
X139721885Y-125982457D01*
X139721885Y-126030076D01*
X139674266Y-126125314D01*
X139626647Y-126172933D01*
X139531409Y-126220552D01*
X139340933Y-126220552D01*
X139245695Y-126268171D01*
X139198076Y-126315790D01*
X139150457Y-126411028D01*
X139150457Y-126601504D01*
X139198076Y-126696742D01*
X139245695Y-126744361D01*
X139340933Y-126791980D01*
X139531409Y-126791980D01*
X139626647Y-126744361D01*
X139674266Y-126696742D01*
X139721885Y-126601504D01*
X139721885Y-126411028D01*
X139674266Y-126315790D01*
X139626647Y-126268171D01*
X139531409Y-126220552D01*
%TO.C,C5*%
X105122742Y-115336580D02*
X104551314Y-115336580D01*
X104837028Y-115336580D02*
X104837028Y-114336580D01*
X104741790Y-114479438D01*
X104646552Y-114574676D01*
X104551314Y-114622295D01*
X105741790Y-114336580D02*
X105837028Y-114336580D01*
X105932266Y-114384200D01*
X105979885Y-114431819D01*
X106027504Y-114527057D01*
X106075123Y-114717533D01*
X106075123Y-114955628D01*
X106027504Y-115146104D01*
X105979885Y-115241342D01*
X105932266Y-115288961D01*
X105837028Y-115336580D01*
X105741790Y-115336580D01*
X105646552Y-115288961D01*
X105598933Y-115241342D01*
X105551314Y-115146104D01*
X105503695Y-114955628D01*
X105503695Y-114717533D01*
X105551314Y-114527057D01*
X105598933Y-114431819D01*
X105646552Y-114384200D01*
X105741790Y-114336580D01*
X106503695Y-114669914D02*
X106503695Y-115336580D01*
X106503695Y-114765152D02*
X106551314Y-114717533D01*
X106646552Y-114669914D01*
X106789409Y-114669914D01*
X106884647Y-114717533D01*
X106932266Y-114812771D01*
X106932266Y-115336580D01*
%TO.C,C7*%
X130093980Y-106021047D02*
X130093980Y-106592476D01*
X130093980Y-106306761D02*
X129093980Y-106306761D01*
X129236838Y-106402000D01*
X129332076Y-106497238D01*
X129379695Y-106592476D01*
X129093980Y-105402000D02*
X129093980Y-105306761D01*
X129141600Y-105211523D01*
X129189219Y-105163904D01*
X129284457Y-105116285D01*
X129474933Y-105068666D01*
X129713028Y-105068666D01*
X129903504Y-105116285D01*
X129998742Y-105163904D01*
X130046361Y-105211523D01*
X130093980Y-105306761D01*
X130093980Y-105402000D01*
X130046361Y-105497238D01*
X129998742Y-105544857D01*
X129903504Y-105592476D01*
X129713028Y-105640095D01*
X129474933Y-105640095D01*
X129284457Y-105592476D01*
X129189219Y-105544857D01*
X129141600Y-105497238D01*
X129093980Y-105402000D01*
X129093980Y-104449619D02*
X129093980Y-104354380D01*
X129141600Y-104259142D01*
X129189219Y-104211523D01*
X129284457Y-104163904D01*
X129474933Y-104116285D01*
X129713028Y-104116285D01*
X129903504Y-104163904D01*
X129998742Y-104211523D01*
X130046361Y-104259142D01*
X130093980Y-104354380D01*
X130093980Y-104449619D01*
X130046361Y-104544857D01*
X129998742Y-104592476D01*
X129903504Y-104640095D01*
X129713028Y-104687714D01*
X129474933Y-104687714D01*
X129284457Y-104640095D01*
X129189219Y-104592476D01*
X129141600Y-104544857D01*
X129093980Y-104449619D01*
X129427314Y-103687714D02*
X130093980Y-103687714D01*
X129522552Y-103687714D02*
X129474933Y-103640095D01*
X129427314Y-103544857D01*
X129427314Y-103402000D01*
X129474933Y-103306761D01*
X129570171Y-103259142D01*
X130093980Y-103259142D01*
%TO.C,D2*%
X93812123Y-137815580D02*
X93812123Y-136815580D01*
X94145457Y-137529866D01*
X94478790Y-136815580D01*
X94478790Y-137815580D01*
X95145457Y-136815580D02*
X95335933Y-136815580D01*
X95431171Y-136863200D01*
X95526409Y-136958438D01*
X95574028Y-137148914D01*
X95574028Y-137482247D01*
X95526409Y-137672723D01*
X95431171Y-137767961D01*
X95335933Y-137815580D01*
X95145457Y-137815580D01*
X95050219Y-137767961D01*
X94954980Y-137672723D01*
X94907361Y-137482247D01*
X94907361Y-137148914D01*
X94954980Y-136958438D01*
X95050219Y-136863200D01*
X95145457Y-136815580D01*
X96002600Y-137815580D02*
X96002600Y-136815580D01*
X96574028Y-137815580D01*
X96574028Y-136815580D01*
X97002600Y-137767961D02*
X97145457Y-137815580D01*
X97383552Y-137815580D01*
X97478790Y-137767961D01*
X97526409Y-137720342D01*
X97574028Y-137625104D01*
X97574028Y-137529866D01*
X97526409Y-137434628D01*
X97478790Y-137387009D01*
X97383552Y-137339390D01*
X97193076Y-137291771D01*
X97097838Y-137244152D01*
X97050219Y-137196533D01*
X97002600Y-137101295D01*
X97002600Y-137006057D01*
X97050219Y-136910819D01*
X97097838Y-136863200D01*
X97193076Y-136815580D01*
X97431171Y-136815580D01*
X97574028Y-136863200D01*
X97859742Y-136815580D02*
X98431171Y-136815580D01*
X98145457Y-137815580D02*
X98145457Y-136815580D01*
X98764504Y-137291771D02*
X99097838Y-137291771D01*
X99240695Y-137815580D02*
X98764504Y-137815580D01*
X98764504Y-136815580D01*
X99240695Y-136815580D01*
X99669266Y-137815580D02*
X99669266Y-136815580D01*
X100050219Y-136815580D01*
X100145457Y-136863200D01*
X100193076Y-136910819D01*
X100240695Y-137006057D01*
X100240695Y-137148914D01*
X100193076Y-137244152D01*
X100145457Y-137291771D01*
X100050219Y-137339390D01*
X99669266Y-137339390D01*
%TO.C,C2*%
X143756680Y-67249847D02*
X143756680Y-67821276D01*
X143756680Y-67535561D02*
X142756680Y-67535561D01*
X142899538Y-67630800D01*
X142994776Y-67726038D01*
X143042395Y-67821276D01*
X142756680Y-66630800D02*
X142756680Y-66535561D01*
X142804300Y-66440323D01*
X142851919Y-66392704D01*
X142947157Y-66345085D01*
X143137633Y-66297466D01*
X143375728Y-66297466D01*
X143566204Y-66345085D01*
X143661442Y-66392704D01*
X143709061Y-66440323D01*
X143756680Y-66535561D01*
X143756680Y-66630800D01*
X143709061Y-66726038D01*
X143661442Y-66773657D01*
X143566204Y-66821276D01*
X143375728Y-66868895D01*
X143137633Y-66868895D01*
X142947157Y-66821276D01*
X142851919Y-66773657D01*
X142804300Y-66726038D01*
X142756680Y-66630800D01*
X142756680Y-65678419D02*
X142756680Y-65583180D01*
X142804300Y-65487942D01*
X142851919Y-65440323D01*
X142947157Y-65392704D01*
X143137633Y-65345085D01*
X143375728Y-65345085D01*
X143566204Y-65392704D01*
X143661442Y-65440323D01*
X143709061Y-65487942D01*
X143756680Y-65583180D01*
X143756680Y-65678419D01*
X143709061Y-65773657D01*
X143661442Y-65821276D01*
X143566204Y-65868895D01*
X143375728Y-65916514D01*
X143137633Y-65916514D01*
X142947157Y-65868895D01*
X142851919Y-65821276D01*
X142804300Y-65773657D01*
X142756680Y-65678419D01*
X143090014Y-64916514D02*
X143756680Y-64916514D01*
X143185252Y-64916514D02*
X143137633Y-64868895D01*
X143090014Y-64773657D01*
X143090014Y-64630800D01*
X143137633Y-64535561D01*
X143232871Y-64487942D01*
X143756680Y-64487942D01*
%TO.C,D39*%
X162804742Y-126842780D02*
X162233314Y-126842780D01*
X162519028Y-126842780D02*
X162519028Y-125842780D01*
X162423790Y-125985638D01*
X162328552Y-126080876D01*
X162233314Y-126128495D01*
X163233314Y-126842780D02*
X163233314Y-125842780D01*
X163804742Y-126842780D01*
X163804742Y-125842780D01*
X164709504Y-126176114D02*
X164709504Y-126842780D01*
X164471409Y-125795161D02*
X164233314Y-126509447D01*
X164852361Y-126509447D01*
X165757123Y-126842780D02*
X165185695Y-126842780D01*
X165471409Y-126842780D02*
X165471409Y-125842780D01*
X165376171Y-125985638D01*
X165280933Y-126080876D01*
X165185695Y-126128495D01*
X166614266Y-126176114D02*
X166614266Y-126842780D01*
X166376171Y-125795161D02*
X166138076Y-126509447D01*
X166757123Y-126509447D01*
X167280933Y-126271352D02*
X167185695Y-126223733D01*
X167138076Y-126176114D01*
X167090457Y-126080876D01*
X167090457Y-126033257D01*
X167138076Y-125938019D01*
X167185695Y-125890400D01*
X167280933Y-125842780D01*
X167471409Y-125842780D01*
X167566647Y-125890400D01*
X167614266Y-125938019D01*
X167661885Y-126033257D01*
X167661885Y-126080876D01*
X167614266Y-126176114D01*
X167566647Y-126223733D01*
X167471409Y-126271352D01*
X167280933Y-126271352D01*
X167185695Y-126318971D01*
X167138076Y-126366590D01*
X167090457Y-126461828D01*
X167090457Y-126652304D01*
X167138076Y-126747542D01*
X167185695Y-126795161D01*
X167280933Y-126842780D01*
X167471409Y-126842780D01*
X167566647Y-126795161D01*
X167614266Y-126747542D01*
X167661885Y-126652304D01*
X167661885Y-126461828D01*
X167614266Y-126366590D01*
X167566647Y-126318971D01*
X167471409Y-126271352D01*
%TO.C,R46*%
X136183761Y-122550180D02*
X135612333Y-122550180D01*
X135898047Y-122550180D02*
X135898047Y-121550180D01*
X135802809Y-121693038D01*
X135707571Y-121788276D01*
X135612333Y-121835895D01*
X136802809Y-121550180D02*
X136898047Y-121550180D01*
X136993285Y-121597800D01*
X137040904Y-121645419D01*
X137088523Y-121740657D01*
X137136142Y-121931133D01*
X137136142Y-122169228D01*
X137088523Y-122359704D01*
X137040904Y-122454942D01*
X136993285Y-122502561D01*
X136898047Y-122550180D01*
X136802809Y-122550180D01*
X136707571Y-122502561D01*
X136659952Y-122454942D01*
X136612333Y-122359704D01*
X136564714Y-122169228D01*
X136564714Y-121931133D01*
X136612333Y-121740657D01*
X136659952Y-121645419D01*
X136707571Y-121597800D01*
X136802809Y-121550180D01*
X137564714Y-122550180D02*
X137564714Y-121550180D01*
X137659952Y-122169228D02*
X137945666Y-122550180D01*
X137945666Y-121883514D02*
X137564714Y-122264466D01*
%TO.C,R50*%
X89066761Y-105836980D02*
X88495333Y-105836980D01*
X88781047Y-105836980D02*
X88781047Y-104836980D01*
X88685809Y-104979838D01*
X88590571Y-105075076D01*
X88495333Y-105122695D01*
X89685809Y-104836980D02*
X89781047Y-104836980D01*
X89876285Y-104884600D01*
X89923904Y-104932219D01*
X89971523Y-105027457D01*
X90019142Y-105217933D01*
X90019142Y-105456028D01*
X89971523Y-105646504D01*
X89923904Y-105741742D01*
X89876285Y-105789361D01*
X89781047Y-105836980D01*
X89685809Y-105836980D01*
X89590571Y-105789361D01*
X89542952Y-105741742D01*
X89495333Y-105646504D01*
X89447714Y-105456028D01*
X89447714Y-105217933D01*
X89495333Y-105027457D01*
X89542952Y-104932219D01*
X89590571Y-104884600D01*
X89685809Y-104836980D01*
X90447714Y-105836980D02*
X90447714Y-104836980D01*
X90542952Y-105456028D02*
X90828666Y-105836980D01*
X90828666Y-105170314D02*
X90447714Y-105551266D01*
%TO.C,U8*%
X133736152Y-118800180D02*
X134402819Y-118800180D01*
X133974247Y-119800180D01*
X135212342Y-119133514D02*
X135212342Y-119800180D01*
X134974247Y-118752561D02*
X134736152Y-119466847D01*
X135355200Y-119466847D01*
X136212342Y-119800180D02*
X135736152Y-119800180D01*
X135736152Y-118800180D01*
X136498057Y-119752561D02*
X136640914Y-119800180D01*
X136879009Y-119800180D01*
X136974247Y-119752561D01*
X137021866Y-119704942D01*
X137069485Y-119609704D01*
X137069485Y-119514466D01*
X137021866Y-119419228D01*
X136974247Y-119371609D01*
X136879009Y-119323990D01*
X136688533Y-119276371D01*
X136593295Y-119228752D01*
X136545676Y-119181133D01*
X136498057Y-119085895D01*
X136498057Y-118990657D01*
X136545676Y-118895419D01*
X136593295Y-118847800D01*
X136688533Y-118800180D01*
X136926628Y-118800180D01*
X137069485Y-118847800D01*
X138021866Y-119800180D02*
X137450438Y-119800180D01*
X137736152Y-119800180D02*
X137736152Y-118800180D01*
X137640914Y-118943038D01*
X137545676Y-119038276D01*
X137450438Y-119085895D01*
X138402819Y-118895419D02*
X138450438Y-118847800D01*
X138545676Y-118800180D01*
X138783771Y-118800180D01*
X138879009Y-118847800D01*
X138926628Y-118895419D01*
X138974247Y-118990657D01*
X138974247Y-119085895D01*
X138926628Y-119228752D01*
X138355200Y-119800180D01*
X138974247Y-119800180D01*
X139879009Y-118800180D02*
X139402819Y-118800180D01*
X139355200Y-119276371D01*
X139402819Y-119228752D01*
X139498057Y-119181133D01*
X139736152Y-119181133D01*
X139831390Y-119228752D01*
X139879009Y-119276371D01*
X139926628Y-119371609D01*
X139926628Y-119609704D01*
X139879009Y-119704942D01*
X139831390Y-119752561D01*
X139736152Y-119800180D01*
X139498057Y-119800180D01*
X139402819Y-119752561D01*
X139355200Y-119704942D01*
%TO.C,SW1*%
X92480380Y-153614380D02*
X92480380Y-152614380D01*
X92813714Y-153328666D01*
X93147047Y-152614380D01*
X93147047Y-153614380D01*
X93813714Y-152614380D02*
X94004190Y-152614380D01*
X94099428Y-152662000D01*
X94194666Y-152757238D01*
X94242285Y-152947714D01*
X94242285Y-153281047D01*
X94194666Y-153471523D01*
X94099428Y-153566761D01*
X94004190Y-153614380D01*
X93813714Y-153614380D01*
X93718476Y-153566761D01*
X93623238Y-153471523D01*
X93575619Y-153281047D01*
X93575619Y-152947714D01*
X93623238Y-152757238D01*
X93718476Y-152662000D01*
X93813714Y-152614380D01*
X94670857Y-153614380D02*
X94670857Y-152614380D01*
X95242285Y-153614380D01*
X95242285Y-152614380D01*
X95670857Y-153566761D02*
X95813714Y-153614380D01*
X96051809Y-153614380D01*
X96147047Y-153566761D01*
X96194666Y-153519142D01*
X96242285Y-153423904D01*
X96242285Y-153328666D01*
X96194666Y-153233428D01*
X96147047Y-153185809D01*
X96051809Y-153138190D01*
X95861333Y-153090571D01*
X95766095Y-153042952D01*
X95718476Y-152995333D01*
X95670857Y-152900095D01*
X95670857Y-152804857D01*
X95718476Y-152709619D01*
X95766095Y-152662000D01*
X95861333Y-152614380D01*
X96099428Y-152614380D01*
X96242285Y-152662000D01*
X96528000Y-152614380D02*
X97099428Y-152614380D01*
X96813714Y-153614380D02*
X96813714Y-152614380D01*
X97432761Y-153090571D02*
X97766095Y-153090571D01*
X97908952Y-153614380D02*
X97432761Y-153614380D01*
X97432761Y-152614380D01*
X97908952Y-152614380D01*
X98337523Y-153614380D02*
X98337523Y-152614380D01*
X98718476Y-152614380D01*
X98813714Y-152662000D01*
X98861333Y-152709619D01*
X98908952Y-152804857D01*
X98908952Y-152947714D01*
X98861333Y-153042952D01*
X98813714Y-153090571D01*
X98718476Y-153138190D01*
X98337523Y-153138190D01*
X99099428Y-153709619D02*
X99861333Y-153709619D01*
X100099428Y-153090571D02*
X100432761Y-153090571D01*
X100575619Y-153614380D02*
X100099428Y-153614380D01*
X100099428Y-152614380D01*
X100575619Y-152614380D01*
X101004190Y-153614380D02*
X101004190Y-152614380D01*
X101575619Y-153614380D01*
X101575619Y-152614380D01*
%TO.C,C8*%
X105575552Y-46985180D02*
X105004123Y-46985180D01*
X105289838Y-46985180D02*
X105289838Y-45985180D01*
X105194600Y-46128038D01*
X105099361Y-46223276D01*
X105004123Y-46270895D01*
X106194600Y-45985180D02*
X106289838Y-45985180D01*
X106385076Y-46032800D01*
X106432695Y-46080419D01*
X106480314Y-46175657D01*
X106527933Y-46366133D01*
X106527933Y-46604228D01*
X106480314Y-46794704D01*
X106432695Y-46889942D01*
X106385076Y-46937561D01*
X106289838Y-46985180D01*
X106194600Y-46985180D01*
X106099361Y-46937561D01*
X106051742Y-46889942D01*
X106004123Y-46794704D01*
X105956504Y-46604228D01*
X105956504Y-46366133D01*
X106004123Y-46175657D01*
X106051742Y-46080419D01*
X106099361Y-46032800D01*
X106194600Y-45985180D01*
X107146980Y-45985180D02*
X107242219Y-45985180D01*
X107337457Y-46032800D01*
X107385076Y-46080419D01*
X107432695Y-46175657D01*
X107480314Y-46366133D01*
X107480314Y-46604228D01*
X107432695Y-46794704D01*
X107385076Y-46889942D01*
X107337457Y-46937561D01*
X107242219Y-46985180D01*
X107146980Y-46985180D01*
X107051742Y-46937561D01*
X107004123Y-46889942D01*
X106956504Y-46794704D01*
X106908885Y-46604228D01*
X106908885Y-46366133D01*
X106956504Y-46175657D01*
X107004123Y-46080419D01*
X107051742Y-46032800D01*
X107146980Y-45985180D01*
X107908885Y-46318514D02*
X107908885Y-46985180D01*
X107908885Y-46413752D02*
X107956504Y-46366133D01*
X108051742Y-46318514D01*
X108194600Y-46318514D01*
X108289838Y-46366133D01*
X108337457Y-46461371D01*
X108337457Y-46985180D01*
%TO.C,C4*%
X130093980Y-114540847D02*
X130093980Y-115112276D01*
X130093980Y-114826561D02*
X129093980Y-114826561D01*
X129236838Y-114921800D01*
X129332076Y-115017038D01*
X129379695Y-115112276D01*
X129093980Y-113921800D02*
X129093980Y-113826561D01*
X129141600Y-113731323D01*
X129189219Y-113683704D01*
X129284457Y-113636085D01*
X129474933Y-113588466D01*
X129713028Y-113588466D01*
X129903504Y-113636085D01*
X129998742Y-113683704D01*
X130046361Y-113731323D01*
X130093980Y-113826561D01*
X130093980Y-113921800D01*
X130046361Y-114017038D01*
X129998742Y-114064657D01*
X129903504Y-114112276D01*
X129713028Y-114159895D01*
X129474933Y-114159895D01*
X129284457Y-114112276D01*
X129189219Y-114064657D01*
X129141600Y-114017038D01*
X129093980Y-113921800D01*
X129093980Y-112969419D02*
X129093980Y-112874180D01*
X129141600Y-112778942D01*
X129189219Y-112731323D01*
X129284457Y-112683704D01*
X129474933Y-112636085D01*
X129713028Y-112636085D01*
X129903504Y-112683704D01*
X129998742Y-112731323D01*
X130046361Y-112778942D01*
X130093980Y-112874180D01*
X130093980Y-112969419D01*
X130046361Y-113064657D01*
X129998742Y-113112276D01*
X129903504Y-113159895D01*
X129713028Y-113207514D01*
X129474933Y-113207514D01*
X129284457Y-113159895D01*
X129189219Y-113112276D01*
X129141600Y-113064657D01*
X129093980Y-112969419D01*
X129427314Y-112207514D02*
X130093980Y-112207514D01*
X129522552Y-112207514D02*
X129474933Y-112159895D01*
X129427314Y-112064657D01*
X129427314Y-111921800D01*
X129474933Y-111826561D01*
X129570171Y-111778942D01*
X130093980Y-111778942D01*
%TO.C,R45*%
X118416485Y-134989914D02*
X118416485Y-135656580D01*
X118178390Y-134608961D02*
X117940295Y-135323247D01*
X118559342Y-135323247D01*
X118845057Y-134656580D02*
X119511723Y-134656580D01*
X119083152Y-135656580D01*
X120464104Y-135656580D02*
X120130771Y-135180390D01*
X119892676Y-135656580D02*
X119892676Y-134656580D01*
X120273628Y-134656580D01*
X120368866Y-134704200D01*
X120416485Y-134751819D01*
X120464104Y-134847057D01*
X120464104Y-134989914D01*
X120416485Y-135085152D01*
X120368866Y-135132771D01*
X120273628Y-135180390D01*
X119892676Y-135180390D01*
%TO.C,C10*%
X109519980Y-122511657D02*
X109519980Y-123083085D01*
X109519980Y-122797371D02*
X108519980Y-122797371D01*
X108662838Y-122892609D01*
X108758076Y-122987847D01*
X108805695Y-123083085D01*
X108519980Y-121892609D02*
X108519980Y-121797371D01*
X108567600Y-121702133D01*
X108615219Y-121654514D01*
X108710457Y-121606895D01*
X108900933Y-121559276D01*
X109139028Y-121559276D01*
X109329504Y-121606895D01*
X109424742Y-121654514D01*
X109472361Y-121702133D01*
X109519980Y-121797371D01*
X109519980Y-121892609D01*
X109472361Y-121987847D01*
X109424742Y-122035466D01*
X109329504Y-122083085D01*
X109139028Y-122130704D01*
X108900933Y-122130704D01*
X108710457Y-122083085D01*
X108615219Y-122035466D01*
X108567600Y-121987847D01*
X108519980Y-121892609D01*
X108853314Y-121130704D02*
X109519980Y-121130704D01*
X108948552Y-121130704D02*
X108900933Y-121083085D01*
X108853314Y-120987847D01*
X108853314Y-120844990D01*
X108900933Y-120749752D01*
X108996171Y-120702133D01*
X109519980Y-120702133D01*
%TO.C,R2*%
X150572933Y-122829580D02*
X150001504Y-122829580D01*
X150287219Y-122829580D02*
X150287219Y-121829580D01*
X150191980Y-121972438D01*
X150096742Y-122067676D01*
X150001504Y-122115295D01*
X151191980Y-121829580D02*
X151287219Y-121829580D01*
X151382457Y-121877200D01*
X151430076Y-121924819D01*
X151477695Y-122020057D01*
X151525314Y-122210533D01*
X151525314Y-122448628D01*
X151477695Y-122639104D01*
X151430076Y-122734342D01*
X151382457Y-122781961D01*
X151287219Y-122829580D01*
X151191980Y-122829580D01*
X151096742Y-122781961D01*
X151049123Y-122734342D01*
X151001504Y-122639104D01*
X150953885Y-122448628D01*
X150953885Y-122210533D01*
X151001504Y-122020057D01*
X151049123Y-121924819D01*
X151096742Y-121877200D01*
X151191980Y-121829580D01*
X152144361Y-121829580D02*
X152239600Y-121829580D01*
X152334838Y-121877200D01*
X152382457Y-121924819D01*
X152430076Y-122020057D01*
X152477695Y-122210533D01*
X152477695Y-122448628D01*
X152430076Y-122639104D01*
X152382457Y-122734342D01*
X152334838Y-122781961D01*
X152239600Y-122829580D01*
X152144361Y-122829580D01*
X152049123Y-122781961D01*
X152001504Y-122734342D01*
X151953885Y-122639104D01*
X151906266Y-122448628D01*
X151906266Y-122210533D01*
X151953885Y-122020057D01*
X152001504Y-121924819D01*
X152049123Y-121877200D01*
X152144361Y-121829580D01*
X153477695Y-122829580D02*
X153144361Y-122353390D01*
X152906266Y-122829580D02*
X152906266Y-121829580D01*
X153287219Y-121829580D01*
X153382457Y-121877200D01*
X153430076Y-121924819D01*
X153477695Y-122020057D01*
X153477695Y-122162914D01*
X153430076Y-122258152D01*
X153382457Y-122305771D01*
X153287219Y-122353390D01*
X152906266Y-122353390D01*
%TO.C,R1*%
X144952980Y-110602638D02*
X144952980Y-111174066D01*
X144952980Y-110888352D02*
X143952980Y-110888352D01*
X144095838Y-110983590D01*
X144191076Y-111078828D01*
X144238695Y-111174066D01*
X143952980Y-109983590D02*
X143952980Y-109888352D01*
X144000600Y-109793114D01*
X144048219Y-109745495D01*
X144143457Y-109697876D01*
X144333933Y-109650257D01*
X144572028Y-109650257D01*
X144762504Y-109697876D01*
X144857742Y-109745495D01*
X144905361Y-109793114D01*
X144952980Y-109888352D01*
X144952980Y-109983590D01*
X144905361Y-110078828D01*
X144857742Y-110126447D01*
X144762504Y-110174066D01*
X144572028Y-110221685D01*
X144333933Y-110221685D01*
X144143457Y-110174066D01*
X144048219Y-110126447D01*
X144000600Y-110078828D01*
X143952980Y-109983590D01*
X144952980Y-109221685D02*
X143952980Y-109221685D01*
X144572028Y-109126447D02*
X144952980Y-108840733D01*
X144286314Y-108840733D02*
X144667266Y-109221685D01*
%TO.C,SW7*%
X113284523Y-153566761D02*
X113427380Y-153614380D01*
X113665476Y-153614380D01*
X113760714Y-153566761D01*
X113808333Y-153519142D01*
X113855952Y-153423904D01*
X113855952Y-153328666D01*
X113808333Y-153233428D01*
X113760714Y-153185809D01*
X113665476Y-153138190D01*
X113475000Y-153090571D01*
X113379761Y-153042952D01*
X113332142Y-152995333D01*
X113284523Y-152900095D01*
X113284523Y-152804857D01*
X113332142Y-152709619D01*
X113379761Y-152662000D01*
X113475000Y-152614380D01*
X113713095Y-152614380D01*
X113855952Y-152662000D01*
X114284523Y-153614380D02*
X114284523Y-152614380D01*
X114760714Y-153614380D02*
X114760714Y-152614380D01*
X115332142Y-153614380D01*
X115332142Y-152614380D01*
X116332142Y-152662000D02*
X116236904Y-152614380D01*
X116094047Y-152614380D01*
X115951190Y-152662000D01*
X115855952Y-152757238D01*
X115808333Y-152852476D01*
X115760714Y-153042952D01*
X115760714Y-153185809D01*
X115808333Y-153376285D01*
X115855952Y-153471523D01*
X115951190Y-153566761D01*
X116094047Y-153614380D01*
X116189285Y-153614380D01*
X116332142Y-153566761D01*
X116379761Y-153519142D01*
X116379761Y-153185809D01*
X116189285Y-153185809D01*
X117284523Y-153614380D02*
X116808333Y-153614380D01*
X116808333Y-152614380D01*
X117617857Y-153090571D02*
X117951190Y-153090571D01*
X118094047Y-153614380D02*
X117617857Y-153614380D01*
X117617857Y-152614380D01*
X118094047Y-152614380D01*
X119855952Y-153519142D02*
X119808333Y-153566761D01*
X119665476Y-153614380D01*
X119570238Y-153614380D01*
X119427380Y-153566761D01*
X119332142Y-153471523D01*
X119284523Y-153376285D01*
X119236904Y-153185809D01*
X119236904Y-153042952D01*
X119284523Y-152852476D01*
X119332142Y-152757238D01*
X119427380Y-152662000D01*
X119570238Y-152614380D01*
X119665476Y-152614380D01*
X119808333Y-152662000D01*
X119855952Y-152709619D01*
X120760714Y-153614380D02*
X120284523Y-153614380D01*
X120284523Y-152614380D01*
X121094047Y-153614380D02*
X121094047Y-152614380D01*
X121665476Y-153614380D02*
X121236904Y-153042952D01*
X121665476Y-152614380D02*
X121094047Y-153185809D01*
%TO.C,R47*%
X118530761Y-131363980D02*
X117959333Y-131363980D01*
X118245047Y-131363980D02*
X118245047Y-130363980D01*
X118149809Y-130506838D01*
X118054571Y-130602076D01*
X117959333Y-130649695D01*
X119149809Y-130363980D02*
X119245047Y-130363980D01*
X119340285Y-130411600D01*
X119387904Y-130459219D01*
X119435523Y-130554457D01*
X119483142Y-130744933D01*
X119483142Y-130983028D01*
X119435523Y-131173504D01*
X119387904Y-131268742D01*
X119340285Y-131316361D01*
X119245047Y-131363980D01*
X119149809Y-131363980D01*
X119054571Y-131316361D01*
X119006952Y-131268742D01*
X118959333Y-131173504D01*
X118911714Y-130983028D01*
X118911714Y-130744933D01*
X118959333Y-130554457D01*
X119006952Y-130459219D01*
X119054571Y-130411600D01*
X119149809Y-130363980D01*
X119911714Y-131363980D02*
X119911714Y-130363980D01*
X120006952Y-130983028D02*
X120292666Y-131363980D01*
X120292666Y-130697314D02*
X119911714Y-131078266D01*
D13*
%TO.C,J5*%
X104984771Y-137398057D02*
X104584771Y-136826628D01*
X104299057Y-137398057D02*
X104299057Y-136198057D01*
X104756200Y-136198057D01*
X104870485Y-136255200D01*
X104927628Y-136312342D01*
X104984771Y-136426628D01*
X104984771Y-136598057D01*
X104927628Y-136712342D01*
X104870485Y-136769485D01*
X104756200Y-136826628D01*
X104299057Y-136826628D01*
X106013342Y-137398057D02*
X106013342Y-136769485D01*
X105956200Y-136655200D01*
X105841914Y-136598057D01*
X105613342Y-136598057D01*
X105499057Y-136655200D01*
X106013342Y-137340914D02*
X105899057Y-137398057D01*
X105613342Y-137398057D01*
X105499057Y-137340914D01*
X105441914Y-137226628D01*
X105441914Y-137112342D01*
X105499057Y-136998057D01*
X105613342Y-136940914D01*
X105899057Y-136940914D01*
X106013342Y-136883771D01*
X106584771Y-136598057D02*
X106584771Y-137398057D01*
X106584771Y-136712342D02*
X106641914Y-136655200D01*
X106756200Y-136598057D01*
X106927628Y-136598057D01*
X107041914Y-136655200D01*
X107099057Y-136769485D01*
X107099057Y-137398057D01*
X108184771Y-136598057D02*
X108184771Y-137569485D01*
X108127628Y-137683771D01*
X108070485Y-137740914D01*
X107956200Y-137798057D01*
X107784771Y-137798057D01*
X107670485Y-137740914D01*
X108184771Y-137340914D02*
X108070485Y-137398057D01*
X107841914Y-137398057D01*
X107727628Y-137340914D01*
X107670485Y-137283771D01*
X107613342Y-137169485D01*
X107613342Y-136826628D01*
X107670485Y-136712342D01*
X107727628Y-136655200D01*
X107841914Y-136598057D01*
X108070485Y-136598057D01*
X108184771Y-136655200D01*
X109213342Y-137340914D02*
X109099057Y-137398057D01*
X108870485Y-137398057D01*
X108756200Y-137340914D01*
X108699057Y-137226628D01*
X108699057Y-136769485D01*
X108756200Y-136655200D01*
X108870485Y-136598057D01*
X109099057Y-136598057D01*
X109213342Y-136655200D01*
X109270485Y-136769485D01*
X109270485Y-136883771D01*
X108699057Y-136998057D01*
D10*
%TO.C,SW6*%
X134166409Y-137709480D02*
X133833076Y-137233290D01*
X133594980Y-137709480D02*
X133594980Y-136709480D01*
X133975933Y-136709480D01*
X134071171Y-136757100D01*
X134118790Y-136804719D01*
X134166409Y-136899957D01*
X134166409Y-137042814D01*
X134118790Y-137138052D01*
X134071171Y-137185671D01*
X133975933Y-137233290D01*
X133594980Y-137233290D01*
X135023552Y-137042814D02*
X135023552Y-137709480D01*
X134594980Y-137042814D02*
X134594980Y-137566623D01*
X134642600Y-137661861D01*
X134737838Y-137709480D01*
X134880695Y-137709480D01*
X134975933Y-137661861D01*
X135023552Y-137614242D01*
X135499742Y-137042814D02*
X135499742Y-137709480D01*
X135499742Y-137138052D02*
X135547361Y-137090433D01*
X135642600Y-137042814D01*
X135785457Y-137042814D01*
X135880695Y-137090433D01*
X135928314Y-137185671D01*
X135928314Y-137709480D01*
X137118790Y-136661861D02*
X136261647Y-137947576D01*
X137452123Y-137709480D02*
X137452123Y-136709480D01*
X137833076Y-136709480D01*
X137928314Y-136757100D01*
X137975933Y-136804719D01*
X138023552Y-136899957D01*
X138023552Y-137042814D01*
X137975933Y-137138052D01*
X137928314Y-137185671D01*
X137833076Y-137233290D01*
X137452123Y-137233290D01*
X138452123Y-136709480D02*
X138452123Y-137519004D01*
X138499742Y-137614242D01*
X138547361Y-137661861D01*
X138642600Y-137709480D01*
X138833076Y-137709480D01*
X138928314Y-137661861D01*
X138975933Y-137614242D01*
X139023552Y-137519004D01*
X139023552Y-136709480D01*
X139975933Y-137709480D02*
X139499742Y-137709480D01*
X139499742Y-136709480D01*
X140261647Y-137661861D02*
X140404504Y-137709480D01*
X140642600Y-137709480D01*
X140737838Y-137661861D01*
X140785457Y-137614242D01*
X140833076Y-137519004D01*
X140833076Y-137423766D01*
X140785457Y-137328528D01*
X140737838Y-137280909D01*
X140642600Y-137233290D01*
X140452123Y-137185671D01*
X140356885Y-137138052D01*
X140309266Y-137090433D01*
X140261647Y-136995195D01*
X140261647Y-136899957D01*
X140309266Y-136804719D01*
X140356885Y-136757100D01*
X140452123Y-136709480D01*
X140690219Y-136709480D01*
X140833076Y-136757100D01*
X141261647Y-137185671D02*
X141594980Y-137185671D01*
X141737838Y-137709480D02*
X141261647Y-137709480D01*
X141261647Y-136709480D01*
X141737838Y-136709480D01*
%TO.C,R29*%
X89041361Y-113304580D02*
X88469933Y-113304580D01*
X88755647Y-113304580D02*
X88755647Y-112304580D01*
X88660409Y-112447438D01*
X88565171Y-112542676D01*
X88469933Y-112590295D01*
X89660409Y-112304580D02*
X89755647Y-112304580D01*
X89850885Y-112352200D01*
X89898504Y-112399819D01*
X89946123Y-112495057D01*
X89993742Y-112685533D01*
X89993742Y-112923628D01*
X89946123Y-113114104D01*
X89898504Y-113209342D01*
X89850885Y-113256961D01*
X89755647Y-113304580D01*
X89660409Y-113304580D01*
X89565171Y-113256961D01*
X89517552Y-113209342D01*
X89469933Y-113114104D01*
X89422314Y-112923628D01*
X89422314Y-112685533D01*
X89469933Y-112495057D01*
X89517552Y-112399819D01*
X89565171Y-112352200D01*
X89660409Y-112304580D01*
X90422314Y-113304580D02*
X90422314Y-112304580D01*
X90517552Y-112923628D02*
X90803266Y-113304580D01*
X90803266Y-112637914D02*
X90422314Y-113018866D01*
%TO.C,U3*%
X172347680Y-70057904D02*
X172347680Y-69391238D01*
X173347680Y-69819809D01*
X172681014Y-68581714D02*
X173347680Y-68581714D01*
X172300061Y-68819809D02*
X173014347Y-69057904D01*
X173014347Y-68438857D01*
X173347680Y-68057904D02*
X172347680Y-68057904D01*
X172823871Y-68057904D02*
X172823871Y-67486476D01*
X173347680Y-67486476D02*
X172347680Y-67486476D01*
X173252442Y-66438857D02*
X173300061Y-66486476D01*
X173347680Y-66629333D01*
X173347680Y-66724571D01*
X173300061Y-66867428D01*
X173204823Y-66962666D01*
X173109585Y-67010285D01*
X172919109Y-67057904D01*
X172776252Y-67057904D01*
X172585776Y-67010285D01*
X172490538Y-66962666D01*
X172395300Y-66867428D01*
X172347680Y-66724571D01*
X172347680Y-66629333D01*
X172395300Y-66486476D01*
X172442919Y-66438857D01*
X172442919Y-66057904D02*
X172395300Y-66010285D01*
X172347680Y-65915047D01*
X172347680Y-65676952D01*
X172395300Y-65581714D01*
X172442919Y-65534095D01*
X172538157Y-65486476D01*
X172633395Y-65486476D01*
X172776252Y-65534095D01*
X173347680Y-66105523D01*
X173347680Y-65486476D01*
X172681014Y-64629333D02*
X173347680Y-64629333D01*
X172300061Y-64867428D02*
X173014347Y-65105523D01*
X173014347Y-64486476D01*
X172347680Y-63629333D02*
X172347680Y-64105523D01*
X172823871Y-64153142D01*
X172776252Y-64105523D01*
X172728633Y-64010285D01*
X172728633Y-63772190D01*
X172776252Y-63676952D01*
X172823871Y-63629333D01*
X172919109Y-63581714D01*
X173157204Y-63581714D01*
X173252442Y-63629333D01*
X173300061Y-63676952D01*
X173347680Y-63772190D01*
X173347680Y-64010285D01*
X173300061Y-64105523D01*
X173252442Y-64153142D01*
%TO.C,R51*%
X88914361Y-109545380D02*
X88342933Y-109545380D01*
X88628647Y-109545380D02*
X88628647Y-108545380D01*
X88533409Y-108688238D01*
X88438171Y-108783476D01*
X88342933Y-108831095D01*
X89533409Y-108545380D02*
X89628647Y-108545380D01*
X89723885Y-108593000D01*
X89771504Y-108640619D01*
X89819123Y-108735857D01*
X89866742Y-108926333D01*
X89866742Y-109164428D01*
X89819123Y-109354904D01*
X89771504Y-109450142D01*
X89723885Y-109497761D01*
X89628647Y-109545380D01*
X89533409Y-109545380D01*
X89438171Y-109497761D01*
X89390552Y-109450142D01*
X89342933Y-109354904D01*
X89295314Y-109164428D01*
X89295314Y-108926333D01*
X89342933Y-108735857D01*
X89390552Y-108640619D01*
X89438171Y-108593000D01*
X89533409Y-108545380D01*
X90295314Y-109545380D02*
X90295314Y-108545380D01*
X90390552Y-109164428D02*
X90676266Y-109545380D01*
X90676266Y-108878714D02*
X90295314Y-109259666D01*
%TO.C,U5*%
X172604180Y-57586704D02*
X172604180Y-56920038D01*
X173604180Y-57348609D01*
X172937514Y-56110514D02*
X173604180Y-56110514D01*
X172556561Y-56348609D02*
X173270847Y-56586704D01*
X173270847Y-55967657D01*
X173604180Y-55586704D02*
X172604180Y-55586704D01*
X173080371Y-55586704D02*
X173080371Y-55015276D01*
X173604180Y-55015276D02*
X172604180Y-55015276D01*
X173508942Y-53967657D02*
X173556561Y-54015276D01*
X173604180Y-54158133D01*
X173604180Y-54253371D01*
X173556561Y-54396228D01*
X173461323Y-54491466D01*
X173366085Y-54539085D01*
X173175609Y-54586704D01*
X173032752Y-54586704D01*
X172842276Y-54539085D01*
X172747038Y-54491466D01*
X172651800Y-54396228D01*
X172604180Y-54253371D01*
X172604180Y-54158133D01*
X172651800Y-54015276D01*
X172699419Y-53967657D01*
X172699419Y-53586704D02*
X172651800Y-53539085D01*
X172604180Y-53443847D01*
X172604180Y-53205752D01*
X172651800Y-53110514D01*
X172699419Y-53062895D01*
X172794657Y-53015276D01*
X172889895Y-53015276D01*
X173032752Y-53062895D01*
X173604180Y-53634323D01*
X173604180Y-53015276D01*
X172937514Y-52158133D02*
X173604180Y-52158133D01*
X172556561Y-52396228D02*
X173270847Y-52634323D01*
X173270847Y-52015276D01*
X172604180Y-51158133D02*
X172604180Y-51634323D01*
X173080371Y-51681942D01*
X173032752Y-51634323D01*
X172985133Y-51539085D01*
X172985133Y-51300990D01*
X173032752Y-51205752D01*
X173080371Y-51158133D01*
X173175609Y-51110514D01*
X173413704Y-51110514D01*
X173508942Y-51158133D01*
X173556561Y-51205752D01*
X173604180Y-51300990D01*
X173604180Y-51539085D01*
X173556561Y-51634323D01*
X173508942Y-51681942D01*
%TO.C,J2*%
X177525523Y-63037980D02*
X177525523Y-62037980D01*
X177858857Y-62752266D01*
X178192190Y-62037980D01*
X178192190Y-63037980D01*
X178858857Y-62037980D02*
X179049333Y-62037980D01*
X179144571Y-62085600D01*
X179239809Y-62180838D01*
X179287428Y-62371314D01*
X179287428Y-62704647D01*
X179239809Y-62895123D01*
X179144571Y-62990361D01*
X179049333Y-63037980D01*
X178858857Y-63037980D01*
X178763619Y-62990361D01*
X178668380Y-62895123D01*
X178620761Y-62704647D01*
X178620761Y-62371314D01*
X178668380Y-62180838D01*
X178763619Y-62085600D01*
X178858857Y-62037980D01*
X179716000Y-63037980D02*
X179716000Y-62037980D01*
X180287428Y-63037980D01*
X180287428Y-62037980D01*
X180716000Y-62990361D02*
X180858857Y-63037980D01*
X181096952Y-63037980D01*
X181192190Y-62990361D01*
X181239809Y-62942742D01*
X181287428Y-62847504D01*
X181287428Y-62752266D01*
X181239809Y-62657028D01*
X181192190Y-62609409D01*
X181096952Y-62561790D01*
X180906476Y-62514171D01*
X180811238Y-62466552D01*
X180763619Y-62418933D01*
X180716000Y-62323695D01*
X180716000Y-62228457D01*
X180763619Y-62133219D01*
X180811238Y-62085600D01*
X180906476Y-62037980D01*
X181144571Y-62037980D01*
X181287428Y-62085600D01*
X181573142Y-62037980D02*
X182144571Y-62037980D01*
X181858857Y-63037980D02*
X181858857Y-62037980D01*
X182477904Y-62514171D02*
X182811238Y-62514171D01*
X182954095Y-63037980D02*
X182477904Y-63037980D01*
X182477904Y-62037980D01*
X182954095Y-62037980D01*
X183382666Y-63037980D02*
X183382666Y-62037980D01*
X183763619Y-62037980D01*
X183858857Y-62085600D01*
X183906476Y-62133219D01*
X183954095Y-62228457D01*
X183954095Y-62371314D01*
X183906476Y-62466552D01*
X183858857Y-62514171D01*
X183763619Y-62561790D01*
X183382666Y-62561790D01*
%TO.C,SW3*%
X165584761Y-153566761D02*
X165727619Y-153614380D01*
X165965714Y-153614380D01*
X166060952Y-153566761D01*
X166108571Y-153519142D01*
X166156190Y-153423904D01*
X166156190Y-153328666D01*
X166108571Y-153233428D01*
X166060952Y-153185809D01*
X165965714Y-153138190D01*
X165775238Y-153090571D01*
X165680000Y-153042952D01*
X165632380Y-152995333D01*
X165584761Y-152900095D01*
X165584761Y-152804857D01*
X165632380Y-152709619D01*
X165680000Y-152662000D01*
X165775238Y-152614380D01*
X166013333Y-152614380D01*
X166156190Y-152662000D01*
X166584761Y-153614380D02*
X166584761Y-152614380D01*
X167060952Y-153614380D02*
X167060952Y-152614380D01*
X167632380Y-153614380D01*
X167632380Y-152614380D01*
X168632380Y-152662000D02*
X168537142Y-152614380D01*
X168394285Y-152614380D01*
X168251428Y-152662000D01*
X168156190Y-152757238D01*
X168108571Y-152852476D01*
X168060952Y-153042952D01*
X168060952Y-153185809D01*
X168108571Y-153376285D01*
X168156190Y-153471523D01*
X168251428Y-153566761D01*
X168394285Y-153614380D01*
X168489523Y-153614380D01*
X168632380Y-153566761D01*
X168680000Y-153519142D01*
X168680000Y-153185809D01*
X168489523Y-153185809D01*
X169584761Y-153614380D02*
X169108571Y-153614380D01*
X169108571Y-152614380D01*
X169918095Y-153090571D02*
X170251428Y-153090571D01*
X170394285Y-153614380D02*
X169918095Y-153614380D01*
X169918095Y-152614380D01*
X170394285Y-152614380D01*
X171537142Y-153566761D02*
X171680000Y-153614380D01*
X171918095Y-153614380D01*
X172013333Y-153566761D01*
X172060952Y-153519142D01*
X172108571Y-153423904D01*
X172108571Y-153328666D01*
X172060952Y-153233428D01*
X172013333Y-153185809D01*
X171918095Y-153138190D01*
X171727619Y-153090571D01*
X171632380Y-153042952D01*
X171584761Y-152995333D01*
X171537142Y-152900095D01*
X171537142Y-152804857D01*
X171584761Y-152709619D01*
X171632380Y-152662000D01*
X171727619Y-152614380D01*
X171965714Y-152614380D01*
X172108571Y-152662000D01*
X172394285Y-152614380D02*
X172965714Y-152614380D01*
X172680000Y-153614380D02*
X172680000Y-152614380D01*
X173299047Y-153090571D02*
X173632380Y-153090571D01*
X173775238Y-153614380D02*
X173299047Y-153614380D01*
X173299047Y-152614380D01*
X173775238Y-152614380D01*
X174203809Y-153614380D02*
X174203809Y-152614380D01*
X174584761Y-152614380D01*
X174680000Y-152662000D01*
X174727619Y-152709619D01*
X174775238Y-152804857D01*
X174775238Y-152947714D01*
X174727619Y-153042952D01*
X174680000Y-153090571D01*
X174584761Y-153138190D01*
X174203809Y-153138190D01*
%TO.C,C11*%
X106080580Y-123038647D02*
X106080580Y-123610076D01*
X106080580Y-123324361D02*
X105080580Y-123324361D01*
X105223438Y-123419600D01*
X105318676Y-123514838D01*
X105366295Y-123610076D01*
X105080580Y-122419600D02*
X105080580Y-122324361D01*
X105128200Y-122229123D01*
X105175819Y-122181504D01*
X105271057Y-122133885D01*
X105461533Y-122086266D01*
X105699628Y-122086266D01*
X105890104Y-122133885D01*
X105985342Y-122181504D01*
X106032961Y-122229123D01*
X106080580Y-122324361D01*
X106080580Y-122419600D01*
X106032961Y-122514838D01*
X105985342Y-122562457D01*
X105890104Y-122610076D01*
X105699628Y-122657695D01*
X105461533Y-122657695D01*
X105271057Y-122610076D01*
X105175819Y-122562457D01*
X105128200Y-122514838D01*
X105080580Y-122419600D01*
X105080580Y-121467219D02*
X105080580Y-121371980D01*
X105128200Y-121276742D01*
X105175819Y-121229123D01*
X105271057Y-121181504D01*
X105461533Y-121133885D01*
X105699628Y-121133885D01*
X105890104Y-121181504D01*
X105985342Y-121229123D01*
X106032961Y-121276742D01*
X106080580Y-121371980D01*
X106080580Y-121467219D01*
X106032961Y-121562457D01*
X105985342Y-121610076D01*
X105890104Y-121657695D01*
X105699628Y-121705314D01*
X105461533Y-121705314D01*
X105271057Y-121657695D01*
X105175819Y-121610076D01*
X105128200Y-121562457D01*
X105080580Y-121467219D01*
X105413914Y-120705314D02*
X106080580Y-120705314D01*
X105509152Y-120705314D02*
X105461533Y-120657695D01*
X105413914Y-120562457D01*
X105413914Y-120419600D01*
X105461533Y-120324361D01*
X105556771Y-120276742D01*
X106080580Y-120276742D01*
%TO.C,RV1*%
X159316419Y-149118266D02*
X159268800Y-149070647D01*
X159221180Y-148975409D01*
X159221180Y-148737314D01*
X159268800Y-148642076D01*
X159316419Y-148594457D01*
X159411657Y-148546838D01*
X159506895Y-148546838D01*
X159649752Y-148594457D01*
X160221180Y-149165885D01*
X160221180Y-148546838D01*
X159221180Y-147927790D02*
X159221180Y-147832552D01*
X159268800Y-147737314D01*
X159316419Y-147689695D01*
X159411657Y-147642076D01*
X159602133Y-147594457D01*
X159840228Y-147594457D01*
X160030704Y-147642076D01*
X160125942Y-147689695D01*
X160173561Y-147737314D01*
X160221180Y-147832552D01*
X160221180Y-147927790D01*
X160173561Y-148023028D01*
X160125942Y-148070647D01*
X160030704Y-148118266D01*
X159840228Y-148165885D01*
X159602133Y-148165885D01*
X159411657Y-148118266D01*
X159316419Y-148070647D01*
X159268800Y-148023028D01*
X159221180Y-147927790D01*
X160221180Y-147165885D02*
X159221180Y-147165885D01*
X159840228Y-147070647D02*
X160221180Y-146784933D01*
X159554514Y-146784933D02*
X159935466Y-147165885D01*
%TO.C,J4*%
X150599838Y-137364742D02*
X150552219Y-137412361D01*
X150409361Y-137459980D01*
X150314123Y-137459980D01*
X150171266Y-137412361D01*
X150076028Y-137317123D01*
X150028409Y-137221885D01*
X149980790Y-137031409D01*
X149980790Y-136888552D01*
X150028409Y-136698076D01*
X150076028Y-136602838D01*
X150171266Y-136507600D01*
X150314123Y-136459980D01*
X150409361Y-136459980D01*
X150552219Y-136507600D01*
X150599838Y-136555219D01*
X151504600Y-137459980D02*
X151028409Y-137459980D01*
X151028409Y-136459980D01*
X151837933Y-137459980D02*
X151837933Y-136459980D01*
X152409361Y-137459980D02*
X151980790Y-136888552D01*
X152409361Y-136459980D02*
X151837933Y-137031409D01*
X153599838Y-137459980D02*
X153599838Y-136459980D01*
X153837933Y-136459980D01*
X153980790Y-136507600D01*
X154076028Y-136602838D01*
X154123647Y-136698076D01*
X154171266Y-136888552D01*
X154171266Y-137031409D01*
X154123647Y-137221885D01*
X154076028Y-137317123D01*
X153980790Y-137412361D01*
X153837933Y-137459980D01*
X153599838Y-137459980D01*
X155171266Y-137459980D02*
X154837933Y-136983790D01*
X154599838Y-137459980D02*
X154599838Y-136459980D01*
X154980790Y-136459980D01*
X155076028Y-136507600D01*
X155123647Y-136555219D01*
X155171266Y-136650457D01*
X155171266Y-136793314D01*
X155123647Y-136888552D01*
X155076028Y-136936171D01*
X154980790Y-136983790D01*
X154599838Y-136983790D01*
X155456980Y-136459980D02*
X155790314Y-137459980D01*
X156123647Y-136459980D01*
%TO.C,R43*%
X182686580Y-54290838D02*
X182686580Y-54862266D01*
X182686580Y-54576552D02*
X181686580Y-54576552D01*
X181829438Y-54671790D01*
X181924676Y-54767028D01*
X181972295Y-54862266D01*
X181686580Y-53671790D02*
X181686580Y-53576552D01*
X181734200Y-53481314D01*
X181781819Y-53433695D01*
X181877057Y-53386076D01*
X182067533Y-53338457D01*
X182305628Y-53338457D01*
X182496104Y-53386076D01*
X182591342Y-53433695D01*
X182638961Y-53481314D01*
X182686580Y-53576552D01*
X182686580Y-53671790D01*
X182638961Y-53767028D01*
X182591342Y-53814647D01*
X182496104Y-53862266D01*
X182305628Y-53909885D01*
X182067533Y-53909885D01*
X181877057Y-53862266D01*
X181781819Y-53814647D01*
X181734200Y-53767028D01*
X181686580Y-53671790D01*
X182686580Y-52909885D02*
X181686580Y-52909885D01*
X182305628Y-52814647D02*
X182686580Y-52528933D01*
X182019914Y-52528933D02*
X182400866Y-52909885D01*
%TO.C,SW5*%
X135167952Y-153614380D02*
X135167952Y-152614380D01*
X135548904Y-152614380D01*
X135644142Y-152662000D01*
X135691761Y-152709619D01*
X135739380Y-152804857D01*
X135739380Y-152947714D01*
X135691761Y-153042952D01*
X135644142Y-153090571D01*
X135548904Y-153138190D01*
X135167952Y-153138190D01*
X136167952Y-152614380D02*
X136167952Y-153423904D01*
X136215571Y-153519142D01*
X136263190Y-153566761D01*
X136358428Y-153614380D01*
X136548904Y-153614380D01*
X136644142Y-153566761D01*
X136691761Y-153519142D01*
X136739380Y-153423904D01*
X136739380Y-152614380D01*
X137691761Y-153614380D02*
X137215571Y-153614380D01*
X137215571Y-152614380D01*
X137977476Y-153566761D02*
X138120333Y-153614380D01*
X138358428Y-153614380D01*
X138453666Y-153566761D01*
X138501285Y-153519142D01*
X138548904Y-153423904D01*
X138548904Y-153328666D01*
X138501285Y-153233428D01*
X138453666Y-153185809D01*
X138358428Y-153138190D01*
X138167952Y-153090571D01*
X138072714Y-153042952D01*
X138025095Y-152995333D01*
X137977476Y-152900095D01*
X137977476Y-152804857D01*
X138025095Y-152709619D01*
X138072714Y-152662000D01*
X138167952Y-152614380D01*
X138406047Y-152614380D01*
X138548904Y-152662000D01*
X138977476Y-153090571D02*
X139310809Y-153090571D01*
X139453666Y-153614380D02*
X138977476Y-153614380D01*
X138977476Y-152614380D01*
X139453666Y-152614380D01*
%TO.C,C3*%
X143759180Y-55819847D02*
X143759180Y-56391276D01*
X143759180Y-56105561D02*
X142759180Y-56105561D01*
X142902038Y-56200800D01*
X142997276Y-56296038D01*
X143044895Y-56391276D01*
X142759180Y-55200800D02*
X142759180Y-55105561D01*
X142806800Y-55010323D01*
X142854419Y-54962704D01*
X142949657Y-54915085D01*
X143140133Y-54867466D01*
X143378228Y-54867466D01*
X143568704Y-54915085D01*
X143663942Y-54962704D01*
X143711561Y-55010323D01*
X143759180Y-55105561D01*
X143759180Y-55200800D01*
X143711561Y-55296038D01*
X143663942Y-55343657D01*
X143568704Y-55391276D01*
X143378228Y-55438895D01*
X143140133Y-55438895D01*
X142949657Y-55391276D01*
X142854419Y-55343657D01*
X142806800Y-55296038D01*
X142759180Y-55200800D01*
X142759180Y-54248419D02*
X142759180Y-54153180D01*
X142806800Y-54057942D01*
X142854419Y-54010323D01*
X142949657Y-53962704D01*
X143140133Y-53915085D01*
X143378228Y-53915085D01*
X143568704Y-53962704D01*
X143663942Y-54010323D01*
X143711561Y-54057942D01*
X143759180Y-54153180D01*
X143759180Y-54248419D01*
X143711561Y-54343657D01*
X143663942Y-54391276D01*
X143568704Y-54438895D01*
X143378228Y-54486514D01*
X143140133Y-54486514D01*
X142949657Y-54438895D01*
X142854419Y-54391276D01*
X142806800Y-54343657D01*
X142759180Y-54248419D01*
X143092514Y-53486514D02*
X143759180Y-53486514D01*
X143187752Y-53486514D02*
X143140133Y-53438895D01*
X143092514Y-53343657D01*
X143092514Y-53200800D01*
X143140133Y-53105561D01*
X143235371Y-53057942D01*
X143759180Y-53057942D01*
%TO.C,U9*%
X116070885Y-118820580D02*
X116737552Y-118820580D01*
X116308980Y-119820580D01*
X117547076Y-119153914D02*
X117547076Y-119820580D01*
X117308980Y-118772961D02*
X117070885Y-119487247D01*
X117689933Y-119487247D01*
X118070885Y-119820580D02*
X118070885Y-118820580D01*
X118070885Y-119296771D02*
X118642314Y-119296771D01*
X118642314Y-119820580D02*
X118642314Y-118820580D01*
X119689933Y-119725342D02*
X119642314Y-119772961D01*
X119499457Y-119820580D01*
X119404219Y-119820580D01*
X119261361Y-119772961D01*
X119166123Y-119677723D01*
X119118504Y-119582485D01*
X119070885Y-119392009D01*
X119070885Y-119249152D01*
X119118504Y-119058676D01*
X119166123Y-118963438D01*
X119261361Y-118868200D01*
X119404219Y-118820580D01*
X119499457Y-118820580D01*
X119642314Y-118868200D01*
X119689933Y-118915819D01*
X120023266Y-118820580D02*
X120689933Y-118820580D01*
X120261361Y-119820580D01*
X121499457Y-119153914D02*
X121499457Y-119820580D01*
X121261361Y-118772961D02*
X121023266Y-119487247D01*
X121642314Y-119487247D01*
%TO.C,J6*%
X177641619Y-69883600D02*
X178117809Y-69883600D01*
X177879714Y-71165980D02*
X177879714Y-70165980D01*
X178117809Y-69883600D02*
X179165428Y-69883600D01*
X178355904Y-71165980D02*
X178355904Y-70165980D01*
X178927333Y-71165980D01*
X178927333Y-70165980D01*
X179165428Y-69883600D02*
X179927333Y-69883600D01*
X179260666Y-70165980D02*
X179832095Y-70165980D01*
X179546380Y-71165980D02*
X179546380Y-70165980D01*
X180927333Y-71165980D02*
X180927333Y-70165980D01*
X181165428Y-70165980D01*
X181308285Y-70213600D01*
X181403523Y-70308838D01*
X181451142Y-70404076D01*
X181498761Y-70594552D01*
X181498761Y-70737409D01*
X181451142Y-70927885D01*
X181403523Y-71023123D01*
X181308285Y-71118361D01*
X181165428Y-71165980D01*
X180927333Y-71165980D01*
X182498761Y-71165980D02*
X182165428Y-70689790D01*
X181927333Y-71165980D02*
X181927333Y-70165980D01*
X182308285Y-70165980D01*
X182403523Y-70213600D01*
X182451142Y-70261219D01*
X182498761Y-70356457D01*
X182498761Y-70499314D01*
X182451142Y-70594552D01*
X182403523Y-70642171D01*
X182308285Y-70689790D01*
X181927333Y-70689790D01*
X182784476Y-70165980D02*
X183117809Y-71165980D01*
X183451142Y-70165980D01*
%TO.C,U1*%
X149344885Y-118820580D02*
X150011552Y-118820580D01*
X149582980Y-119820580D01*
X150821076Y-119153914D02*
X150821076Y-119820580D01*
X150582980Y-118772961D02*
X150344885Y-119487247D01*
X150963933Y-119487247D01*
X151344885Y-119820580D02*
X151344885Y-118820580D01*
X151344885Y-119296771D02*
X151916314Y-119296771D01*
X151916314Y-119820580D02*
X151916314Y-118820580D01*
X152963933Y-119725342D02*
X152916314Y-119772961D01*
X152773457Y-119820580D01*
X152678219Y-119820580D01*
X152535361Y-119772961D01*
X152440123Y-119677723D01*
X152392504Y-119582485D01*
X152344885Y-119392009D01*
X152344885Y-119249152D01*
X152392504Y-119058676D01*
X152440123Y-118963438D01*
X152535361Y-118868200D01*
X152678219Y-118820580D01*
X152773457Y-118820580D01*
X152916314Y-118868200D01*
X152963933Y-118915819D01*
X153916314Y-119820580D02*
X153344885Y-119820580D01*
X153630600Y-119820580D02*
X153630600Y-118820580D01*
X153535361Y-118963438D01*
X153440123Y-119058676D01*
X153344885Y-119106295D01*
X154773457Y-119153914D02*
X154773457Y-119820580D01*
X154535361Y-118772961D02*
X154297266Y-119487247D01*
X154916314Y-119487247D01*
%TO.C,D40*%
X149647542Y-126893580D02*
X149076114Y-126893580D01*
X149361828Y-126893580D02*
X149361828Y-125893580D01*
X149266590Y-126036438D01*
X149171352Y-126131676D01*
X149076114Y-126179295D01*
X150076114Y-126893580D02*
X150076114Y-125893580D01*
X150647542Y-126893580D01*
X150647542Y-125893580D01*
X151552304Y-126226914D02*
X151552304Y-126893580D01*
X151314209Y-125845961D02*
X151076114Y-126560247D01*
X151695161Y-126560247D01*
X152599923Y-126893580D02*
X152028495Y-126893580D01*
X152314209Y-126893580D02*
X152314209Y-125893580D01*
X152218971Y-126036438D01*
X152123733Y-126131676D01*
X152028495Y-126179295D01*
X153457066Y-126226914D02*
X153457066Y-126893580D01*
X153218971Y-125845961D02*
X152980876Y-126560247D01*
X153599923Y-126560247D01*
X154123733Y-126322152D02*
X154028495Y-126274533D01*
X153980876Y-126226914D01*
X153933257Y-126131676D01*
X153933257Y-126084057D01*
X153980876Y-125988819D01*
X154028495Y-125941200D01*
X154123733Y-125893580D01*
X154314209Y-125893580D01*
X154409447Y-125941200D01*
X154457066Y-125988819D01*
X154504685Y-126084057D01*
X154504685Y-126131676D01*
X154457066Y-126226914D01*
X154409447Y-126274533D01*
X154314209Y-126322152D01*
X154123733Y-126322152D01*
X154028495Y-126369771D01*
X153980876Y-126417390D01*
X153933257Y-126512628D01*
X153933257Y-126703104D01*
X153980876Y-126798342D01*
X154028495Y-126845961D01*
X154123733Y-126893580D01*
X154314209Y-126893580D01*
X154409447Y-126845961D01*
X154457066Y-126798342D01*
X154504685Y-126703104D01*
X154504685Y-126512628D01*
X154457066Y-126417390D01*
X154409447Y-126369771D01*
X154314209Y-126322152D01*
%TO.C,U7*%
X103478895Y-74776180D02*
X104145561Y-74776180D01*
X103716990Y-75776180D01*
X104955085Y-75109514D02*
X104955085Y-75776180D01*
X104716990Y-74728561D02*
X104478895Y-75442847D01*
X105097942Y-75442847D01*
X105478895Y-75776180D02*
X105478895Y-74776180D01*
X105478895Y-75252371D02*
X106050323Y-75252371D01*
X106050323Y-75776180D02*
X106050323Y-74776180D01*
X107097942Y-75680942D02*
X107050323Y-75728561D01*
X106907466Y-75776180D01*
X106812228Y-75776180D01*
X106669371Y-75728561D01*
X106574133Y-75633323D01*
X106526514Y-75538085D01*
X106478895Y-75347609D01*
X106478895Y-75204752D01*
X106526514Y-75014276D01*
X106574133Y-74919038D01*
X106669371Y-74823800D01*
X106812228Y-74776180D01*
X106907466Y-74776180D01*
X107050323Y-74823800D01*
X107097942Y-74871419D01*
X107478895Y-74871419D02*
X107526514Y-74823800D01*
X107621752Y-74776180D01*
X107859847Y-74776180D01*
X107955085Y-74823800D01*
X108002704Y-74871419D01*
X108050323Y-74966657D01*
X108050323Y-75061895D01*
X108002704Y-75204752D01*
X107431276Y-75776180D01*
X108050323Y-75776180D01*
X108907466Y-75109514D02*
X108907466Y-75776180D01*
X108669371Y-74728561D02*
X108431276Y-75442847D01*
X109050323Y-75442847D01*
X109907466Y-74776180D02*
X109431276Y-74776180D01*
X109383657Y-75252371D01*
X109431276Y-75204752D01*
X109526514Y-75157133D01*
X109764609Y-75157133D01*
X109859847Y-75204752D01*
X109907466Y-75252371D01*
X109955085Y-75347609D01*
X109955085Y-75585704D01*
X109907466Y-75680942D01*
X109859847Y-75728561D01*
X109764609Y-75776180D01*
X109526514Y-75776180D01*
X109431276Y-75728561D01*
X109383657Y-75680942D01*
%TO.C,C12*%
X173680380Y-105219047D02*
X173680380Y-105790476D01*
X173680380Y-105504761D02*
X172680380Y-105504761D01*
X172823238Y-105600000D01*
X172918476Y-105695238D01*
X172966095Y-105790476D01*
X172680380Y-104600000D02*
X172680380Y-104504761D01*
X172728000Y-104409523D01*
X172775619Y-104361904D01*
X172870857Y-104314285D01*
X173061333Y-104266666D01*
X173299428Y-104266666D01*
X173489904Y-104314285D01*
X173585142Y-104361904D01*
X173632761Y-104409523D01*
X173680380Y-104504761D01*
X173680380Y-104600000D01*
X173632761Y-104695238D01*
X173585142Y-104742857D01*
X173489904Y-104790476D01*
X173299428Y-104838095D01*
X173061333Y-104838095D01*
X172870857Y-104790476D01*
X172775619Y-104742857D01*
X172728000Y-104695238D01*
X172680380Y-104600000D01*
X172680380Y-103647619D02*
X172680380Y-103552380D01*
X172728000Y-103457142D01*
X172775619Y-103409523D01*
X172870857Y-103361904D01*
X173061333Y-103314285D01*
X173299428Y-103314285D01*
X173489904Y-103361904D01*
X173585142Y-103409523D01*
X173632761Y-103457142D01*
X173680380Y-103552380D01*
X173680380Y-103647619D01*
X173632761Y-103742857D01*
X173585142Y-103790476D01*
X173489904Y-103838095D01*
X173299428Y-103885714D01*
X173061333Y-103885714D01*
X172870857Y-103838095D01*
X172775619Y-103790476D01*
X172728000Y-103742857D01*
X172680380Y-103647619D01*
X173013714Y-102885714D02*
X173680380Y-102885714D01*
X173108952Y-102885714D02*
X173061333Y-102838095D01*
X173013714Y-102742857D01*
X173013714Y-102600000D01*
X173061333Y-102504761D01*
X173156571Y-102457142D01*
X173680380Y-102457142D01*
%TO.C,U10*%
X105569314Y-111215580D02*
X105093123Y-111215580D01*
X105045504Y-111691771D01*
X105093123Y-111644152D01*
X105188361Y-111596533D01*
X105426457Y-111596533D01*
X105521695Y-111644152D01*
X105569314Y-111691771D01*
X105616933Y-111787009D01*
X105616933Y-112025104D01*
X105569314Y-112120342D01*
X105521695Y-112167961D01*
X105426457Y-112215580D01*
X105188361Y-112215580D01*
X105093123Y-112167961D01*
X105045504Y-112120342D01*
X106521695Y-111215580D02*
X106045504Y-111215580D01*
X105997885Y-111691771D01*
X106045504Y-111644152D01*
X106140742Y-111596533D01*
X106378838Y-111596533D01*
X106474076Y-111644152D01*
X106521695Y-111691771D01*
X106569314Y-111787009D01*
X106569314Y-112025104D01*
X106521695Y-112120342D01*
X106474076Y-112167961D01*
X106378838Y-112215580D01*
X106140742Y-112215580D01*
X106045504Y-112167961D01*
X105997885Y-112120342D01*
X107474076Y-111215580D02*
X106997885Y-111215580D01*
X106950266Y-111691771D01*
X106997885Y-111644152D01*
X107093123Y-111596533D01*
X107331219Y-111596533D01*
X107426457Y-111644152D01*
X107474076Y-111691771D01*
X107521695Y-111787009D01*
X107521695Y-112025104D01*
X107474076Y-112120342D01*
X107426457Y-112167961D01*
X107331219Y-112215580D01*
X107093123Y-112215580D01*
X106997885Y-112167961D01*
X106950266Y-112120342D01*
D14*
%TO.C,U6*%
X115119800Y-49184800D02*
X115119800Y-59464800D01*
X140759800Y-59464800D02*
X140759800Y-49184800D01*
X140759800Y-49184800D02*
X115119800Y-49184800D01*
X140699800Y-56974800D02*
X140699800Y-55324800D01*
X115179800Y-51674800D02*
X115179800Y-56974800D01*
X115119800Y-59464800D02*
X140759800Y-59464800D01*
X140699800Y-51674800D02*
X115179800Y-51674800D01*
X140699800Y-53324800D02*
X140699800Y-51674800D01*
X115179800Y-56974800D02*
X140699800Y-56974800D01*
X140699800Y-53324800D02*
G75*
G03*
X140699800Y-55324800I0J-1000000D01*
G01*
%TO.C,U4*%
X115114800Y-60878800D02*
X115114800Y-71158800D01*
X140694800Y-63368800D02*
X115174800Y-63368800D01*
X140754800Y-71158800D02*
X140754800Y-60878800D01*
X115114800Y-71158800D02*
X140754800Y-71158800D01*
X140694800Y-65018800D02*
X140694800Y-63368800D01*
X140754800Y-60878800D02*
X115114800Y-60878800D01*
X115174800Y-63368800D02*
X115174800Y-68668800D01*
X140694800Y-68668800D02*
X140694800Y-67018800D01*
X115174800Y-68668800D02*
X140694800Y-68668800D01*
X140694800Y-65018800D02*
G75*
G03*
X140694800Y-67018800I0J-1000000D01*
G01*
%TO.C,D36*%
X85430000Y-53952000D02*
X85430000Y-54108000D01*
X85430000Y-51636000D02*
X85430000Y-51792000D01*
X85430000Y-54107516D02*
G75*
G03*
X88662335Y-53950608I1560000J1235516D01*
G01*
X88031130Y-51792163D02*
G75*
G03*
X85949039Y-51792000I-1041130J-1079837D01*
G01*
X85949039Y-53952000D02*
G75*
G03*
X88031130Y-53951837I1040961J1080000D01*
G01*
X88662335Y-51793392D02*
G75*
G03*
X85430000Y-51636484I-1672335J-1078608D01*
G01*
%TO.C,D32*%
X106489000Y-27137200D02*
X106333000Y-27137200D01*
X108805000Y-27137200D02*
X108649000Y-27137200D01*
X108648837Y-29738330D02*
G75*
G03*
X108649000Y-27656239I-1079837J1041130D01*
G01*
X106489000Y-27656239D02*
G75*
G03*
X106489163Y-29738330I1080000J-1040961D01*
G01*
X106333484Y-27137200D02*
G75*
G03*
X106490392Y-30369535I1235516J-1560000D01*
G01*
X108647608Y-30369535D02*
G75*
G03*
X108804516Y-27137200I-1078608J1672335D01*
G01*
%TO.C,R7*%
X165250800Y-76449800D02*
X162510800Y-76449800D01*
X162510800Y-76449800D02*
X162510800Y-82989800D01*
X163880800Y-83759800D02*
X163880800Y-82989800D01*
X165250800Y-82989800D02*
X165250800Y-76449800D01*
X163880800Y-75679800D02*
X163880800Y-76449800D01*
X162510800Y-82989800D02*
X165250800Y-82989800D01*
%TO.C,D17*%
X107760000Y-94265000D02*
X107916000Y-94265000D01*
X105444000Y-94265000D02*
X105600000Y-94265000D01*
X107915516Y-94265000D02*
G75*
G03*
X107758608Y-91032665I-1235516J1560000D01*
G01*
X105600163Y-91663870D02*
G75*
G03*
X105600000Y-93745961I1079837J-1041130D01*
G01*
X105601392Y-91032665D02*
G75*
G03*
X105444484Y-94265000I1078608J-1672335D01*
G01*
X107760000Y-93745961D02*
G75*
G03*
X107759837Y-91663870I-1080000J1040961D01*
G01*
%TO.C,R10*%
X152604800Y-76449800D02*
X152604800Y-82989800D01*
X155344800Y-76449800D02*
X152604800Y-76449800D01*
X155344800Y-82989800D02*
X155344800Y-76449800D01*
X152604800Y-82989800D02*
X155344800Y-82989800D01*
X153974800Y-75679800D02*
X153974800Y-76449800D01*
X153974800Y-83759800D02*
X153974800Y-82989800D01*
%TO.C,R44*%
X122370600Y-120905600D02*
X115830600Y-120905600D01*
X115830600Y-120905600D02*
X115830600Y-123645600D01*
X123140600Y-122275600D02*
X122370600Y-122275600D01*
X122370600Y-123645600D02*
X122370600Y-120905600D01*
X115830600Y-123645600D02*
X122370600Y-123645600D01*
X115060600Y-122275600D02*
X115830600Y-122275600D01*
%TO.C,R42*%
X91340000Y-71763000D02*
X94080000Y-71763000D01*
X92710000Y-72533000D02*
X92710000Y-71763000D01*
X92710000Y-64453000D02*
X92710000Y-65223000D01*
X94080000Y-71763000D02*
X94080000Y-65223000D01*
X91340000Y-65223000D02*
X91340000Y-71763000D01*
X94080000Y-65223000D02*
X91340000Y-65223000D01*
%TO.C,R38*%
X116382800Y-37330800D02*
X116382800Y-38100800D01*
X117752800Y-38100800D02*
X115012800Y-38100800D01*
X115012800Y-44640800D02*
X117752800Y-44640800D01*
X115012800Y-38100800D02*
X115012800Y-44640800D01*
X117752800Y-44640800D02*
X117752800Y-38100800D01*
X116382800Y-45410800D02*
X116382800Y-44640800D01*
%TO.C,R34*%
X129590800Y-45410800D02*
X129590800Y-44640800D01*
X130960800Y-44640800D02*
X130960800Y-38100800D01*
X128220800Y-38100800D02*
X128220800Y-44640800D01*
X129590800Y-37330800D02*
X129590800Y-38100800D01*
X130960800Y-38100800D02*
X128220800Y-38100800D01*
X128220800Y-44640800D02*
X130960800Y-44640800D01*
%TO.C,R49*%
X85647400Y-101625400D02*
X86417400Y-101625400D01*
X92957400Y-102995400D02*
X92957400Y-100255400D01*
X92957400Y-100255400D02*
X86417400Y-100255400D01*
X86417400Y-102995400D02*
X92957400Y-102995400D01*
X86417400Y-100255400D02*
X86417400Y-102995400D01*
X93727400Y-101625400D02*
X92957400Y-101625400D01*
%TO.C,D8*%
X154247000Y-94260000D02*
X154403000Y-94260000D01*
X151931000Y-94260000D02*
X152087000Y-94260000D01*
X154402516Y-94260000D02*
G75*
G03*
X154245608Y-91027665I-1235516J1560000D01*
G01*
X154247000Y-93740961D02*
G75*
G03*
X154246837Y-91658870I-1080000J1040961D01*
G01*
X152088392Y-91027665D02*
G75*
G03*
X151931484Y-94260000I1078608J-1672335D01*
G01*
X152087163Y-91658870D02*
G75*
G03*
X152087000Y-93740961I1079837J-1041130D01*
G01*
%TO.C,R15*%
X132892800Y-83764800D02*
X132892800Y-82994800D01*
X134262800Y-82994800D02*
X134262800Y-76454800D01*
X131522800Y-76454800D02*
X131522800Y-82994800D01*
X132892800Y-75684800D02*
X132892800Y-76454800D01*
X131522800Y-82994800D02*
X134262800Y-82994800D01*
X134262800Y-76454800D02*
X131522800Y-76454800D01*
%TO.C,D22*%
X164481800Y-27137200D02*
X164325800Y-27137200D01*
X162165800Y-27137200D02*
X162009800Y-27137200D01*
X162165800Y-27656239D02*
G75*
G03*
X162165963Y-29738330I1080000J-1040961D01*
G01*
X164325637Y-29738330D02*
G75*
G03*
X164325800Y-27656239I-1079837J1041130D01*
G01*
X162010284Y-27137200D02*
G75*
G03*
X162167192Y-30369535I1235516J-1560000D01*
G01*
X164324408Y-30369535D02*
G75*
G03*
X164481316Y-27137200I-1078608J1672335D01*
G01*
%TO.C,D42*%
X116126600Y-127911200D02*
X116126600Y-127581200D01*
X121566600Y-127911200D02*
X116126600Y-127911200D01*
X121566600Y-124971200D02*
X116126600Y-124971200D01*
X120546600Y-127911200D02*
X120546600Y-124971200D01*
X121566600Y-125301200D02*
X121566600Y-124971200D01*
X120666600Y-127911200D02*
X120666600Y-124971200D01*
X121566600Y-127581200D02*
X121566600Y-127911200D01*
X116126600Y-124971200D02*
X116126600Y-125301200D01*
X120786600Y-127911200D02*
X120786600Y-124971200D01*
%TO.C,C9*%
X97152600Y-107607600D02*
X97152600Y-100367600D01*
X99392600Y-107607600D02*
X99392600Y-100367600D01*
X97152600Y-100367600D02*
X99392600Y-100367600D01*
X97152600Y-107607600D02*
X99392600Y-107607600D01*
%TO.C,D27*%
X136872000Y-27086400D02*
X136716000Y-27086400D01*
X134556000Y-27086400D02*
X134400000Y-27086400D01*
X134556000Y-27605439D02*
G75*
G03*
X134556163Y-29687530I1080000J-1040961D01*
G01*
X136715837Y-29687530D02*
G75*
G03*
X136716000Y-27605439I-1079837J1041130D01*
G01*
X134400484Y-27086400D02*
G75*
G03*
X134557392Y-30318735I1235516J-1560000D01*
G01*
X136714608Y-30318735D02*
G75*
G03*
X136871516Y-27086400I-1078608J1672335D01*
G01*
%TO.C,R23*%
X165250800Y-44640800D02*
X165250800Y-38100800D01*
X163880800Y-45410800D02*
X163880800Y-44640800D01*
X165250800Y-38100800D02*
X162510800Y-38100800D01*
X163880800Y-37330800D02*
X163880800Y-38100800D01*
X162510800Y-38100800D02*
X162510800Y-44640800D01*
X162510800Y-44640800D02*
X165250800Y-44640800D01*
%TO.C,D18*%
X100059200Y-94320800D02*
X100215200Y-94320800D01*
X102375200Y-94320800D02*
X102531200Y-94320800D01*
X100215363Y-91719670D02*
G75*
G03*
X100215200Y-93801761I1079837J-1041130D01*
G01*
X102530716Y-94320800D02*
G75*
G03*
X102373808Y-91088465I-1235516J1560000D01*
G01*
X100216592Y-91088465D02*
G75*
G03*
X100059684Y-94320800I1078608J-1672335D01*
G01*
X102375200Y-93801761D02*
G75*
G03*
X102375037Y-91719670I-1080000J1040961D01*
G01*
%TO.C,R28*%
X146000800Y-38100800D02*
X146000800Y-44640800D01*
X147370800Y-45410800D02*
X147370800Y-44640800D01*
X148740800Y-44640800D02*
X148740800Y-38100800D01*
X148740800Y-38100800D02*
X146000800Y-38100800D01*
X147370800Y-37330800D02*
X147370800Y-38100800D01*
X146000800Y-44640800D02*
X148740800Y-44640800D01*
%TO.C,R39*%
X94642000Y-58235600D02*
X97382000Y-58235600D01*
X96012000Y-59005600D02*
X96012000Y-58235600D01*
X97382000Y-58235600D02*
X97382000Y-51695600D01*
X94642000Y-51695600D02*
X94642000Y-58235600D01*
X96012000Y-50925600D02*
X96012000Y-51695600D01*
X97382000Y-51695600D02*
X94642000Y-51695600D01*
%TO.C,D29*%
X124095800Y-27137200D02*
X123939800Y-27137200D01*
X121779800Y-27137200D02*
X121623800Y-27137200D01*
X123939637Y-29738330D02*
G75*
G03*
X123939800Y-27656239I-1079837J1041130D01*
G01*
X123938408Y-30369535D02*
G75*
G03*
X124095316Y-27137200I-1078608J1672335D01*
G01*
X121779800Y-27656239D02*
G75*
G03*
X121779963Y-29738330I1080000J-1040961D01*
G01*
X121624284Y-27137200D02*
G75*
G03*
X121781192Y-30369535I1235516J-1560000D01*
G01*
%TO.C,D16*%
X110524000Y-94270000D02*
X110680000Y-94270000D01*
X112840000Y-94270000D02*
X112996000Y-94270000D01*
X110680163Y-91668870D02*
G75*
G03*
X110680000Y-93750961I1079837J-1041130D01*
G01*
X112840000Y-93750961D02*
G75*
G03*
X112839837Y-91668870I-1080000J1040961D01*
G01*
X110681392Y-91037665D02*
G75*
G03*
X110524484Y-94270000I1078608J-1672335D01*
G01*
X112995516Y-94270000D02*
G75*
G03*
X112838608Y-91037665I-1235516J1560000D01*
G01*
%TO.C,D34*%
X93946000Y-27137200D02*
X93790000Y-27137200D01*
X91630000Y-27137200D02*
X91474000Y-27137200D01*
X91630000Y-27656239D02*
G75*
G03*
X91630163Y-29738330I1080000J-1040961D01*
G01*
X93789837Y-29738330D02*
G75*
G03*
X93790000Y-27656239I-1079837J1041130D01*
G01*
X91474484Y-27137200D02*
G75*
G03*
X91631392Y-30369535I1235516J-1560000D01*
G01*
X93788608Y-30369535D02*
G75*
G03*
X93945516Y-27137200I-1078608J1672335D01*
G01*
%TO.C,R30*%
X127709600Y-106788200D02*
X124969600Y-106788200D01*
X127709600Y-113328200D02*
X127709600Y-106788200D01*
X124969600Y-113328200D02*
X127709600Y-113328200D01*
X124969600Y-106788200D02*
X124969600Y-113328200D01*
X126339600Y-106018200D02*
X126339600Y-106788200D01*
X126339600Y-114098200D02*
X126339600Y-113328200D01*
%TO.C,R48*%
X92932000Y-117956000D02*
X92932000Y-115216000D01*
X86392000Y-115216000D02*
X86392000Y-117956000D01*
X93702000Y-116586000D02*
X92932000Y-116586000D01*
X85622000Y-116586000D02*
X86392000Y-116586000D01*
X92932000Y-115216000D02*
X86392000Y-115216000D01*
X86392000Y-117956000D02*
X92932000Y-117956000D01*
%TO.C,R27*%
X150672800Y-45410800D02*
X150672800Y-44640800D01*
X150672800Y-37330800D02*
X150672800Y-38100800D01*
X152042800Y-38100800D02*
X149302800Y-38100800D01*
X152042800Y-44640800D02*
X152042800Y-38100800D01*
X149302800Y-38100800D02*
X149302800Y-44640800D01*
X149302800Y-44640800D02*
X152042800Y-44640800D01*
%TO.C,D4*%
X174337200Y-94260000D02*
X174493200Y-94260000D01*
X172021200Y-94260000D02*
X172177200Y-94260000D01*
X172177363Y-91658870D02*
G75*
G03*
X172177200Y-93740961I1079837J-1041130D01*
G01*
X174492716Y-94260000D02*
G75*
G03*
X174335808Y-91027665I-1235516J1560000D01*
G01*
X172178592Y-91027665D02*
G75*
G03*
X172021684Y-94260000I1078608J-1672335D01*
G01*
X174337200Y-93740961D02*
G75*
G03*
X174337037Y-91658870I-1080000J1040961D01*
G01*
%TO.C,R19*%
X121049800Y-76464800D02*
X118309800Y-76464800D01*
X121049800Y-83004800D02*
X121049800Y-76464800D01*
X118309800Y-83004800D02*
X121049800Y-83004800D01*
X119679800Y-75694800D02*
X119679800Y-76464800D01*
X118309800Y-76464800D02*
X118309800Y-83004800D01*
X119679800Y-83774800D02*
X119679800Y-83004800D01*
%TO.C,C6*%
X99458600Y-121232200D02*
X100353600Y-121232200D01*
X102033600Y-121112200D02*
X102843600Y-121112200D01*
X99755600Y-120872200D02*
X100353600Y-120872200D01*
X100113600Y-120592200D02*
X100353600Y-120592200D01*
X100253600Y-120512200D02*
X102133600Y-120512200D01*
X102033600Y-121753200D02*
X103175600Y-121753200D01*
X99116600Y-122273200D02*
X103270600Y-122273200D01*
X99993600Y-120672200D02*
X100353600Y-120672200D01*
X99797600Y-120832200D02*
X100353600Y-120832200D01*
X100180600Y-120552200D02*
X102206600Y-120552200D01*
X99114600Y-122313200D02*
X103272600Y-122313200D01*
X102033600Y-121352200D02*
X103001600Y-121352200D01*
X102033600Y-120992200D02*
X102745600Y-120992200D01*
X102033600Y-121272200D02*
X102953600Y-121272200D01*
X99513600Y-121152200D02*
X100353600Y-121152200D01*
X99286600Y-121552200D02*
X100353600Y-121552200D01*
X102033600Y-121072200D02*
X102812600Y-121072200D01*
X102033600Y-121192200D02*
X102901600Y-121192200D01*
X99842600Y-120792200D02*
X100353600Y-120792200D01*
X102033600Y-121672200D02*
X103147600Y-121672200D01*
X102033600Y-120672200D02*
X102393600Y-120672200D01*
X99998600Y-124663001D02*
X99998600Y-124263001D01*
X99225600Y-121713200D02*
X100353600Y-121713200D01*
X99798600Y-124463001D02*
X100198600Y-124463001D01*
X102033600Y-121312200D02*
X102978600Y-121312200D01*
X99177600Y-121873200D02*
X100353600Y-121873200D01*
X102033600Y-120712200D02*
X102447600Y-120712200D01*
X99113600Y-122393200D02*
X103273600Y-122393200D01*
X99211600Y-121753200D02*
X100353600Y-121753200D01*
X99151600Y-121993200D02*
X100353600Y-121993200D01*
X102033600Y-122073200D02*
X103249600Y-122073200D01*
X99188600Y-121833200D02*
X100353600Y-121833200D01*
X102033600Y-121152200D02*
X102873600Y-121152200D01*
X102033600Y-121632200D02*
X103133600Y-121632200D01*
X99119600Y-122233200D02*
X103267600Y-122233200D01*
X99939600Y-120712200D02*
X100353600Y-120712200D01*
X99385600Y-121352200D02*
X100353600Y-121352200D01*
X99253600Y-121632200D02*
X100353600Y-121632200D01*
X102033600Y-121232200D02*
X102928600Y-121232200D01*
X102033600Y-121713200D02*
X103161600Y-121713200D01*
X99715600Y-120912200D02*
X100353600Y-120912200D01*
X100823600Y-120312200D02*
X101563600Y-120312200D01*
X99269600Y-121592200D02*
X100353600Y-121592200D01*
X99199600Y-121793200D02*
X100353600Y-121793200D01*
X99342600Y-121432200D02*
X100353600Y-121432200D01*
X100425600Y-120432200D02*
X101961600Y-120432200D01*
X102033600Y-121993200D02*
X103235600Y-121993200D01*
X99113600Y-122353200D02*
X103273600Y-122353200D01*
X102033600Y-120832200D02*
X102589600Y-120832200D01*
X99889600Y-120752200D02*
X100353600Y-120752200D01*
X99168600Y-121913200D02*
X100353600Y-121913200D01*
X102033600Y-122153200D02*
X103260600Y-122153200D01*
X99606600Y-121032200D02*
X100353600Y-121032200D01*
X100529600Y-120392200D02*
X101857600Y-120392200D01*
X99131600Y-122113200D02*
X100353600Y-122113200D01*
X102033600Y-120632200D02*
X102335600Y-120632200D01*
X102033600Y-121913200D02*
X103218600Y-121913200D01*
X102033600Y-120792200D02*
X102544600Y-120792200D01*
X102033600Y-121833200D02*
X103198600Y-121833200D01*
X100051600Y-120632200D02*
X100353600Y-120632200D01*
X99137600Y-122073200D02*
X100353600Y-122073200D01*
X99126600Y-122153200D02*
X100353600Y-122153200D01*
X99408600Y-121312200D02*
X100353600Y-121312200D01*
X102033600Y-121552200D02*
X103100600Y-121552200D01*
X102033600Y-121512200D02*
X103082600Y-121512200D01*
X100656600Y-120352200D02*
X101730600Y-120352200D01*
X102033600Y-122193200D02*
X103264600Y-122193200D01*
X102033600Y-120872200D02*
X102631600Y-120872200D01*
X99433600Y-121272200D02*
X100353600Y-121272200D01*
X102033600Y-121793200D02*
X103187600Y-121793200D01*
X99641600Y-120992200D02*
X100353600Y-120992200D01*
X102033600Y-120752200D02*
X102497600Y-120752200D01*
X102033600Y-121592200D02*
X103117600Y-121592200D01*
X99304600Y-121512200D02*
X100353600Y-121512200D01*
X99485600Y-121192200D02*
X100353600Y-121192200D01*
X102033600Y-121392200D02*
X103023600Y-121392200D01*
X99677600Y-120952200D02*
X100353600Y-120952200D01*
X102033600Y-122033200D02*
X103243600Y-122033200D01*
X102033600Y-121472200D02*
X103063600Y-121472200D01*
X99239600Y-121672200D02*
X100353600Y-121672200D01*
X99363600Y-121392200D02*
X100353600Y-121392200D01*
X102033600Y-120592200D02*
X102273600Y-120592200D01*
X102033600Y-121873200D02*
X103209600Y-121873200D01*
X102033600Y-121032200D02*
X102780600Y-121032200D01*
X99143600Y-122033200D02*
X100353600Y-122033200D01*
X99574600Y-121072200D02*
X100353600Y-121072200D01*
X102033600Y-122113200D02*
X103255600Y-122113200D01*
X99543600Y-121112200D02*
X100353600Y-121112200D01*
X99122600Y-122193200D02*
X100353600Y-122193200D01*
X102033600Y-120912200D02*
X102671600Y-120912200D01*
X99159600Y-121953200D02*
X100353600Y-121953200D01*
X99323600Y-121472200D02*
X100353600Y-121472200D01*
X102033600Y-120952200D02*
X102709600Y-120952200D01*
X102033600Y-121432200D02*
X103044600Y-121432200D01*
X102033600Y-121953200D02*
X103227600Y-121953200D01*
X100334600Y-120472200D02*
X102052600Y-120472200D01*
X103313600Y-122393200D02*
G75*
G03*
X103313600Y-122393200I-2120000J0D01*
G01*
%TO.C,D12*%
X133160000Y-94270000D02*
X133316000Y-94270000D01*
X130844000Y-94270000D02*
X131000000Y-94270000D01*
X133315516Y-94270000D02*
G75*
G03*
X133158608Y-91037665I-1235516J1560000D01*
G01*
X131001392Y-91037665D02*
G75*
G03*
X130844484Y-94270000I1078608J-1672335D01*
G01*
X133160000Y-93750961D02*
G75*
G03*
X133159837Y-91668870I-1080000J1040961D01*
G01*
X131000163Y-91668870D02*
G75*
G03*
X131000000Y-93750961I1079837J-1041130D01*
G01*
%TO.C,R14*%
X134824800Y-76454800D02*
X134824800Y-82994800D01*
X134824800Y-82994800D02*
X137564800Y-82994800D01*
X136194800Y-75684800D02*
X136194800Y-76454800D01*
X136194800Y-83764800D02*
X136194800Y-82994800D01*
X137564800Y-82994800D02*
X137564800Y-76454800D01*
X137564800Y-76454800D02*
X134824800Y-76454800D01*
%TO.C,R4*%
X171858000Y-116110000D02*
X171858000Y-122650000D01*
X173228000Y-115340000D02*
X173228000Y-116110000D01*
X174598000Y-116110000D02*
X171858000Y-116110000D01*
X173228000Y-123420000D02*
X173228000Y-122650000D01*
X171858000Y-122650000D02*
X174598000Y-122650000D01*
X174598000Y-122650000D02*
X174598000Y-116110000D01*
%TO.C,J3*%
X186528400Y-66395600D02*
X189188400Y-66395600D01*
X186528400Y-66395600D02*
X186528400Y-66455600D01*
X186528400Y-65125600D02*
X186528400Y-63795600D01*
X186528400Y-63795600D02*
X187858400Y-63795600D01*
X189188400Y-66395600D02*
X189188400Y-66455600D01*
X186528400Y-66455600D02*
X189188400Y-66455600D01*
%TO.C,R26*%
X155344800Y-38100800D02*
X152604800Y-38100800D01*
X152604800Y-38100800D02*
X152604800Y-44640800D01*
X153974800Y-37330800D02*
X153974800Y-38100800D01*
X155344800Y-44640800D02*
X155344800Y-38100800D01*
X152604800Y-44640800D02*
X155344800Y-44640800D01*
X153974800Y-45410800D02*
X153974800Y-44640800D01*
%TO.C,R3*%
X178562000Y-57481600D02*
X178562000Y-56711600D01*
X177192000Y-50171600D02*
X177192000Y-56711600D01*
X179932000Y-56711600D02*
X179932000Y-50171600D01*
X178562000Y-49401600D02*
X178562000Y-50171600D01*
X177192000Y-56711600D02*
X179932000Y-56711600D01*
X179932000Y-50171600D02*
X177192000Y-50171600D01*
%TO.C,D30*%
X116699800Y-27137200D02*
X116543800Y-27137200D01*
X119015800Y-27137200D02*
X118859800Y-27137200D01*
X118858408Y-30369535D02*
G75*
G03*
X119015316Y-27137200I-1078608J1672335D01*
G01*
X116544284Y-27137200D02*
G75*
G03*
X116701192Y-30369535I1235516J-1560000D01*
G01*
X118859637Y-29738330D02*
G75*
G03*
X118859800Y-27656239I-1079837J1041130D01*
G01*
X116699800Y-27656239D02*
G75*
G03*
X116699963Y-29738330I1080000J-1040961D01*
G01*
%TO.C,U2*%
X170758000Y-100281200D02*
X160478000Y-100281200D01*
X162968000Y-118241200D02*
X168268000Y-118241200D01*
X164618000Y-100341200D02*
X162968000Y-100341200D01*
X168268000Y-100341200D02*
X166618000Y-100341200D01*
X170758000Y-118301200D02*
X170758000Y-100281200D01*
X160478000Y-118301200D02*
X170758000Y-118301200D01*
X160478000Y-100281200D02*
X160478000Y-118301200D01*
X162968000Y-100341200D02*
X162968000Y-118241200D01*
X168268000Y-118241200D02*
X168268000Y-100341200D01*
X164618000Y-100341200D02*
G75*
G03*
X166618000Y-100341200I1000000J0D01*
G01*
%TO.C,D3*%
X177101200Y-94260000D02*
X177257200Y-94260000D01*
X179417200Y-94260000D02*
X179573200Y-94260000D01*
X177257363Y-91658870D02*
G75*
G03*
X177257200Y-93740961I1079837J-1041130D01*
G01*
X179572716Y-94260000D02*
G75*
G03*
X179415808Y-91027665I-1235516J1560000D01*
G01*
X177258592Y-91027665D02*
G75*
G03*
X177101684Y-94260000I1078608J-1672335D01*
G01*
X179417200Y-93740961D02*
G75*
G03*
X179417037Y-91658870I-1080000J1040961D01*
G01*
%TO.C,C1*%
X161948000Y-123497200D02*
X169188000Y-123497200D01*
X161948000Y-121257200D02*
X169188000Y-121257200D01*
X161948000Y-121257200D02*
X161948000Y-123497200D01*
X169188000Y-121257200D02*
X169188000Y-123497200D01*
%TO.C,SW4*%
X174564600Y-136491700D02*
X174564600Y-136181700D01*
X165744600Y-136491700D02*
X165744600Y-136181700D01*
X168154600Y-131771700D02*
X168654600Y-131271700D01*
X165744600Y-131971700D02*
X174564600Y-131971700D01*
X168654600Y-131271700D02*
X167654600Y-131271700D01*
X165744600Y-132281700D02*
X165744600Y-131971700D01*
X174564600Y-131971700D02*
X174564600Y-132281700D01*
X174564600Y-136491700D02*
X165744600Y-136491700D01*
X167654600Y-131271700D02*
X168154600Y-131771700D01*
%TO.C,D41*%
X134186000Y-124971200D02*
X134186000Y-125301200D01*
X139626000Y-127581200D02*
X139626000Y-127911200D01*
X134186000Y-127911200D02*
X134186000Y-127581200D01*
X138846000Y-127911200D02*
X138846000Y-124971200D01*
X138726000Y-127911200D02*
X138726000Y-124971200D01*
X139626000Y-124971200D02*
X134186000Y-124971200D01*
X139626000Y-125301200D02*
X139626000Y-124971200D01*
X138606000Y-127911200D02*
X138606000Y-124971200D01*
X139626000Y-127911200D02*
X134186000Y-127911200D01*
%TO.C,R33*%
X132892800Y-45410800D02*
X132892800Y-44640800D01*
X134262800Y-44640800D02*
X134262800Y-38100800D01*
X131522800Y-38100800D02*
X131522800Y-44640800D01*
X132892800Y-37330800D02*
X132892800Y-38100800D01*
X131522800Y-44640800D02*
X134262800Y-44640800D01*
X134262800Y-38100800D02*
X131522800Y-38100800D01*
%TO.C,C5*%
X102272600Y-116004200D02*
X102272600Y-113764200D01*
X109512600Y-113764200D02*
X102272600Y-113764200D01*
X109512600Y-116004200D02*
X109512600Y-113764200D01*
X109512600Y-116004200D02*
X102272600Y-116004200D01*
%TO.C,C7*%
X130761600Y-108522000D02*
X128521600Y-108522000D01*
X130761600Y-101282000D02*
X128521600Y-101282000D01*
X130761600Y-101282000D02*
X130761600Y-108522000D01*
X128521600Y-101282000D02*
X128521600Y-108522000D01*
%TO.C,R18*%
X121616800Y-76454800D02*
X121616800Y-82994800D01*
X121616800Y-82994800D02*
X124356800Y-82994800D01*
X124356800Y-82994800D02*
X124356800Y-76454800D01*
X122986800Y-75684800D02*
X122986800Y-76454800D01*
X124356800Y-76454800D02*
X121616800Y-76454800D01*
X122986800Y-83764800D02*
X122986800Y-82994800D01*
%TO.C,R8*%
X159208800Y-76449800D02*
X159208800Y-82989800D01*
X159208800Y-82989800D02*
X161948800Y-82989800D01*
X160578800Y-75679800D02*
X160578800Y-76449800D01*
X161948800Y-82989800D02*
X161948800Y-76449800D01*
X161948800Y-76449800D02*
X159208800Y-76449800D01*
X160578800Y-83759800D02*
X160578800Y-82989800D01*
%TO.C,R24*%
X159208800Y-44640800D02*
X161948800Y-44640800D01*
X161948800Y-38100800D02*
X159208800Y-38100800D01*
X159208800Y-38100800D02*
X159208800Y-44640800D01*
X160578800Y-45410800D02*
X160578800Y-44640800D01*
X161948800Y-44640800D02*
X161948800Y-38100800D01*
X160578800Y-37330800D02*
X160578800Y-38100800D01*
%TO.C,D2*%
X98082600Y-135753200D02*
X98238600Y-135753200D01*
X95766600Y-135753200D02*
X95922600Y-135753200D01*
X98082600Y-135234161D02*
G75*
G03*
X98082437Y-133152070I-1080000J1040961D01*
G01*
X95923992Y-132520865D02*
G75*
G03*
X95767084Y-135753200I1078608J-1672335D01*
G01*
X95922763Y-133152070D02*
G75*
G03*
X95922600Y-135234161I1079837J-1041130D01*
G01*
X98238116Y-135753200D02*
G75*
G03*
X98081208Y-132520865I-1235516J1560000D01*
G01*
%TO.C,C2*%
X142186800Y-62510800D02*
X144426800Y-62510800D01*
X142186800Y-69750800D02*
X142186800Y-62510800D01*
X142186800Y-69750800D02*
X144426800Y-69750800D01*
X144426800Y-69750800D02*
X144426800Y-62510800D01*
%TO.C,R36*%
X121616800Y-44640800D02*
X124356800Y-44640800D01*
X122986800Y-37330800D02*
X122986800Y-38100800D01*
X124356800Y-38100800D02*
X121616800Y-38100800D01*
X121616800Y-38100800D02*
X121616800Y-44640800D01*
X122986800Y-45410800D02*
X122986800Y-44640800D01*
X124356800Y-44640800D02*
X124356800Y-38100800D01*
%TO.C,D39*%
X167566000Y-127911200D02*
X162126000Y-127911200D01*
X166546000Y-127911200D02*
X166546000Y-124971200D01*
X167566000Y-127581200D02*
X167566000Y-127911200D01*
X162126000Y-127911200D02*
X162126000Y-127581200D01*
X162126000Y-124971200D02*
X162126000Y-125301200D01*
X167566000Y-125301200D02*
X167566000Y-124971200D01*
X166786000Y-127911200D02*
X166786000Y-124971200D01*
X166666000Y-127911200D02*
X166666000Y-124971200D01*
X167566000Y-124971200D02*
X162126000Y-124971200D01*
%TO.C,R46*%
X132739000Y-122224800D02*
X133509000Y-122224800D01*
X140049000Y-120854800D02*
X133509000Y-120854800D01*
X140819000Y-122224800D02*
X140049000Y-122224800D01*
X140049000Y-123594800D02*
X140049000Y-120854800D01*
X133509000Y-123594800D02*
X140049000Y-123594800D01*
X133509000Y-120854800D02*
X133509000Y-123594800D01*
%TO.C,R50*%
X85596600Y-105333800D02*
X86366600Y-105333800D01*
X86366600Y-106703800D02*
X92906600Y-106703800D01*
X93676600Y-105333800D02*
X92906600Y-105333800D01*
X92906600Y-106703800D02*
X92906600Y-103963800D01*
X86366600Y-103963800D02*
X86366600Y-106703800D01*
X92906600Y-103963800D02*
X86366600Y-103963800D01*
%TO.C,D26*%
X141845800Y-27137200D02*
X141689800Y-27137200D01*
X144161800Y-27137200D02*
X144005800Y-27137200D01*
X144004408Y-30369535D02*
G75*
G03*
X144161316Y-27137200I-1078608J1672335D01*
G01*
X141845800Y-27656239D02*
G75*
G03*
X141845963Y-29738330I1080000J-1040961D01*
G01*
X141690284Y-27137200D02*
G75*
G03*
X141847192Y-30369535I1235516J-1560000D01*
G01*
X144005637Y-29738330D02*
G75*
G03*
X144005800Y-27656239I-1079837J1041130D01*
G01*
%TO.C,J1*%
X183601900Y-104731600D02*
X183601900Y-78741600D01*
X182291900Y-136121600D02*
X182291900Y-77441600D01*
X190101900Y-78741600D02*
X190101900Y-134821600D01*
X183601900Y-78741600D02*
X190101900Y-78741600D01*
X183601900Y-134821600D02*
X183601900Y-108831600D01*
X191411900Y-136121600D02*
X182291900Y-136121600D01*
X180901900Y-82151600D02*
X180901900Y-83151600D01*
X181901900Y-82651600D02*
X180901900Y-82151600D01*
X183601900Y-108831600D02*
X183601900Y-108831600D01*
X180901900Y-83151600D02*
X181901900Y-82651600D01*
X191411900Y-77441600D02*
X191411900Y-136121600D01*
X183601900Y-108831600D02*
X182291900Y-108831600D01*
X182291900Y-104731600D02*
X183601900Y-104731600D01*
X190101900Y-134821600D02*
X183601900Y-134821600D01*
X182291900Y-77441600D02*
X191411900Y-77441600D01*
%TO.C,U8*%
X135855200Y-100447800D02*
X134205200Y-100447800D01*
X139505200Y-100447800D02*
X137855200Y-100447800D01*
X141995200Y-118407800D02*
X141995200Y-100387800D01*
X134205200Y-118347800D02*
X139505200Y-118347800D01*
X139505200Y-118347800D02*
X139505200Y-100447800D01*
X131715200Y-100387800D02*
X131715200Y-118407800D01*
X131715200Y-118407800D02*
X141995200Y-118407800D01*
X141995200Y-100387800D02*
X131715200Y-100387800D01*
X134205200Y-100447800D02*
X134205200Y-118347800D01*
X135855200Y-100447800D02*
G75*
G03*
X137855200Y-100447800I1000000J0D01*
G01*
%TO.C,R16*%
X130960800Y-82994800D02*
X130960800Y-76454800D01*
X129590800Y-75684800D02*
X129590800Y-76454800D01*
X129590800Y-83764800D02*
X129590800Y-82994800D01*
X128220800Y-76454800D02*
X128220800Y-82994800D01*
X128220800Y-82994800D02*
X130960800Y-82994800D01*
X130960800Y-76454800D02*
X128220800Y-76454800D01*
%TO.C,D7*%
X159327000Y-94260000D02*
X159483000Y-94260000D01*
X157011000Y-94260000D02*
X157167000Y-94260000D01*
X157168392Y-91027665D02*
G75*
G03*
X157011484Y-94260000I1078608J-1672335D01*
G01*
X159482516Y-94260000D02*
G75*
G03*
X159325608Y-91027665I-1235516J1560000D01*
G01*
X159327000Y-93740961D02*
G75*
G03*
X159326837Y-91658870I-1080000J1040961D01*
G01*
X157167163Y-91658870D02*
G75*
G03*
X157167000Y-93740961I1079837J-1041130D01*
G01*
%TO.C,SW1*%
X90868000Y-142112000D02*
X90868000Y-139392000D01*
X93490000Y-144761200D02*
X93490000Y-146261200D01*
X103168000Y-148972000D02*
X103168000Y-151692000D01*
X94740000Y-148761200D02*
X99240000Y-148761200D01*
X99240000Y-142261200D02*
X94740000Y-142261200D01*
X103168000Y-143972000D02*
X103168000Y-147112000D01*
X90868000Y-139392000D02*
X103168000Y-139392000D01*
X90868000Y-147112000D02*
X90868000Y-143972000D01*
X90868000Y-151692000D02*
X90868000Y-148972000D01*
X100490000Y-146261200D02*
X100490000Y-144761200D01*
X103168000Y-139392000D02*
X103168000Y-142112000D01*
X103168000Y-151692000D02*
X90868000Y-151692000D01*
X101497050Y-145502000D02*
G75*
G03*
X101497050Y-145502000I-4579050J0D01*
G01*
%TO.C,D13*%
X128080000Y-94270000D02*
X128236000Y-94270000D01*
X125764000Y-94270000D02*
X125920000Y-94270000D01*
X128080000Y-93750961D02*
G75*
G03*
X128079837Y-91668870I-1080000J1040961D01*
G01*
X128235516Y-94270000D02*
G75*
G03*
X128078608Y-91037665I-1235516J1560000D01*
G01*
X125920163Y-91668870D02*
G75*
G03*
X125920000Y-93750961I1079837J-1041130D01*
G01*
X125921392Y-91037665D02*
G75*
G03*
X125764484Y-94270000I1078608J-1672335D01*
G01*
%TO.C,C8*%
X103136200Y-45362000D02*
X110376200Y-45362000D01*
X110376200Y-45362000D02*
X110376200Y-47602000D01*
X103136200Y-47602000D02*
X110376200Y-47602000D01*
X103136200Y-45362000D02*
X103136200Y-47602000D01*
%TO.C,D15*%
X115604000Y-94270000D02*
X115760000Y-94270000D01*
X117920000Y-94270000D02*
X118076000Y-94270000D01*
X117920000Y-93750961D02*
G75*
G03*
X117919837Y-91668870I-1080000J1040961D01*
G01*
X115760163Y-91668870D02*
G75*
G03*
X115760000Y-93750961I1079837J-1041130D01*
G01*
X118075516Y-94270000D02*
G75*
G03*
X117918608Y-91037665I-1235516J1560000D01*
G01*
X115761392Y-91037665D02*
G75*
G03*
X115604484Y-94270000I1078608J-1672335D01*
G01*
%TO.C,C4*%
X130761600Y-109801800D02*
X130761600Y-117041800D01*
X128521600Y-109801800D02*
X128521600Y-117041800D01*
X130761600Y-117041800D02*
X128521600Y-117041800D01*
X130761600Y-109801800D02*
X128521600Y-109801800D01*
%TO.C,R45*%
X122396000Y-136498000D02*
X122396000Y-133758000D01*
X115086000Y-135128000D02*
X115856000Y-135128000D01*
X123166000Y-135128000D02*
X122396000Y-135128000D01*
X115856000Y-136498000D02*
X122396000Y-136498000D01*
X115856000Y-133758000D02*
X115856000Y-136498000D01*
X122396000Y-133758000D02*
X115856000Y-133758000D01*
%TO.C,C10*%
X110405800Y-125488800D02*
X110405800Y-118248800D01*
X108165800Y-125488800D02*
X108165800Y-118248800D01*
X108165800Y-125488800D02*
X110405800Y-125488800D01*
X108165800Y-118248800D02*
X110405800Y-118248800D01*
%TO.C,D9*%
X146851000Y-94260000D02*
X147007000Y-94260000D01*
X149167000Y-94260000D02*
X149323000Y-94260000D01*
X147008392Y-91027665D02*
G75*
G03*
X146851484Y-94260000I1078608J-1672335D01*
G01*
X147007163Y-91658870D02*
G75*
G03*
X147007000Y-93740961I1079837J-1041130D01*
G01*
X149322516Y-94260000D02*
G75*
G03*
X149165608Y-91027665I-1235516J1560000D01*
G01*
X149167000Y-93740961D02*
G75*
G03*
X149166837Y-91658870I-1080000J1040961D01*
G01*
%TO.C,D37*%
X85430000Y-64173600D02*
X85430000Y-64329600D01*
X85430000Y-61857600D02*
X85430000Y-62013600D01*
X85949039Y-64173600D02*
G75*
G03*
X88031130Y-64173437I1040961J1080000D01*
G01*
X88031130Y-62013763D02*
G75*
G03*
X85949039Y-62013600I-1041130J-1079837D01*
G01*
X88662335Y-62014992D02*
G75*
G03*
X85430000Y-61858084I-1672335J-1078608D01*
G01*
X85430000Y-64329116D02*
G75*
G03*
X88662335Y-64172208I1560000J1235516D01*
G01*
%TO.C,R2*%
X147699600Y-122377200D02*
X148469600Y-122377200D01*
X155009600Y-123747200D02*
X155009600Y-121007200D01*
X155009600Y-121007200D02*
X148469600Y-121007200D01*
X148469600Y-121007200D02*
X148469600Y-123747200D01*
X148469600Y-123747200D02*
X155009600Y-123747200D01*
X155779600Y-122377200D02*
X155009600Y-122377200D01*
%TO.C,R31*%
X139496800Y-37330800D02*
X139496800Y-38100800D01*
X138126800Y-44640800D02*
X140866800Y-44640800D01*
X138126800Y-38100800D02*
X138126800Y-44640800D01*
X140866800Y-44640800D02*
X140866800Y-38100800D01*
X140866800Y-38100800D02*
X138126800Y-38100800D01*
X139496800Y-45410800D02*
X139496800Y-44640800D01*
%TO.C,D10*%
X144087000Y-94260000D02*
X144243000Y-94260000D01*
X141771000Y-94260000D02*
X141927000Y-94260000D01*
X144087000Y-93740961D02*
G75*
G03*
X144086837Y-91658870I-1080000J1040961D01*
G01*
X141927163Y-91658870D02*
G75*
G03*
X141927000Y-93740961I1079837J-1041130D01*
G01*
X141928392Y-91027665D02*
G75*
G03*
X141771484Y-94260000I1078608J-1672335D01*
G01*
X144242516Y-94260000D02*
G75*
G03*
X144085608Y-91027665I-1235516J1560000D01*
G01*
%TO.C,R1*%
X145870600Y-106737400D02*
X143130600Y-106737400D01*
X144500600Y-114047400D02*
X144500600Y-113277400D01*
X143130600Y-106737400D02*
X143130600Y-113277400D01*
X144500600Y-105967400D02*
X144500600Y-106737400D01*
X143130600Y-113277400D02*
X145870600Y-113277400D01*
X145870600Y-113277400D02*
X145870600Y-106737400D01*
%TO.C,SW7*%
X123598000Y-148972000D02*
X123598000Y-151692000D01*
X115170000Y-148761200D02*
X119670000Y-148761200D01*
X123598000Y-139392000D02*
X123598000Y-142112000D01*
X120920000Y-146261200D02*
X120920000Y-144761200D01*
X119670000Y-142261200D02*
X115170000Y-142261200D01*
X123598000Y-143972000D02*
X123598000Y-147112000D01*
X111298000Y-142112000D02*
X111298000Y-139392000D01*
X111298000Y-147112000D02*
X111298000Y-143972000D01*
X111298000Y-151692000D02*
X111298000Y-148972000D01*
X111298000Y-139392000D02*
X123598000Y-139392000D01*
X113920000Y-144761200D02*
X113920000Y-146261200D01*
X123598000Y-151692000D02*
X111298000Y-151692000D01*
X121927050Y-145502000D02*
G75*
G03*
X121927050Y-145502000I-4579050J0D01*
G01*
%TO.C,D20*%
X174641800Y-27137200D02*
X174485800Y-27137200D01*
X172325800Y-27137200D02*
X172169800Y-27137200D01*
X172325800Y-27656239D02*
G75*
G03*
X172325963Y-29738330I1080000J-1040961D01*
G01*
X174484408Y-30369535D02*
G75*
G03*
X174641316Y-27137200I-1078608J1672335D01*
G01*
X172170284Y-27137200D02*
G75*
G03*
X172327192Y-30369535I1235516J-1560000D01*
G01*
X174485637Y-29738330D02*
G75*
G03*
X174485800Y-27656239I-1079837J1041130D01*
G01*
%TO.C,D28*%
X130572800Y-27137200D02*
X130416800Y-27137200D01*
X128256800Y-27137200D02*
X128100800Y-27137200D01*
X130415408Y-30369535D02*
G75*
G03*
X130572316Y-27137200I-1078608J1672335D01*
G01*
X130416637Y-29738330D02*
G75*
G03*
X130416800Y-27656239I-1079837J1041130D01*
G01*
X128101284Y-27137200D02*
G75*
G03*
X128258192Y-30369535I1235516J-1560000D01*
G01*
X128256800Y-27656239D02*
G75*
G03*
X128256963Y-29738330I1080000J-1040961D01*
G01*
%TO.C,R37*%
X118314800Y-38100800D02*
X118314800Y-44640800D01*
X119684800Y-45410800D02*
X119684800Y-44640800D01*
X118314800Y-44640800D02*
X121054800Y-44640800D01*
X121054800Y-44640800D02*
X121054800Y-38100800D01*
X121054800Y-38100800D02*
X118314800Y-38100800D01*
X119684800Y-37330800D02*
X119684800Y-38100800D01*
%TO.C,R41*%
X96012000Y-64453000D02*
X96012000Y-65223000D01*
X94642000Y-71763000D02*
X97382000Y-71763000D01*
X96012000Y-72533000D02*
X96012000Y-71763000D01*
X97382000Y-71763000D02*
X97382000Y-65223000D01*
X94642000Y-65223000D02*
X94642000Y-71763000D01*
X97382000Y-65223000D02*
X94642000Y-65223000D01*
%TO.C,R22*%
X167182800Y-37330800D02*
X167182800Y-38100800D01*
X167182800Y-45410800D02*
X167182800Y-44640800D01*
X165812800Y-38100800D02*
X165812800Y-44640800D01*
X165812800Y-44640800D02*
X168552800Y-44640800D01*
X168552800Y-38100800D02*
X165812800Y-38100800D01*
X168552800Y-44640800D02*
X168552800Y-38100800D01*
%TO.C,D23*%
X157085800Y-27137200D02*
X156929800Y-27137200D01*
X159401800Y-27137200D02*
X159245800Y-27137200D01*
X156930284Y-27137200D02*
G75*
G03*
X157087192Y-30369535I1235516J-1560000D01*
G01*
X159245637Y-29738330D02*
G75*
G03*
X159245800Y-27656239I-1079837J1041130D01*
G01*
X157085800Y-27656239D02*
G75*
G03*
X157085963Y-29738330I1080000J-1040961D01*
G01*
X159244408Y-30369535D02*
G75*
G03*
X159401316Y-27137200I-1078608J1672335D01*
G01*
%TO.C,R47*%
X123166000Y-130911600D02*
X122396000Y-130911600D01*
X122396000Y-132281600D02*
X122396000Y-129541600D01*
X115856000Y-129541600D02*
X115856000Y-132281600D01*
X115856000Y-132281600D02*
X122396000Y-132281600D01*
X122396000Y-129541600D02*
X115856000Y-129541600D01*
X115086000Y-130911600D02*
X115856000Y-130911600D01*
%TO.C,J5*%
X105486200Y-133486200D02*
X105486200Y-130886200D01*
X110626200Y-133486200D02*
X110626200Y-128286200D01*
X105486200Y-133486200D02*
X110626200Y-133486200D01*
X104216200Y-133486200D02*
X102886200Y-133486200D01*
X105486200Y-130886200D02*
X102886200Y-130886200D01*
X102886200Y-128286200D02*
X110626200Y-128286200D01*
X102886200Y-133486200D02*
X102886200Y-132156200D01*
X102886200Y-130886200D02*
X102886200Y-128286200D01*
%TO.C,SW6*%
X135642600Y-131797100D02*
X136142600Y-131297100D01*
X135142600Y-131297100D02*
X135642600Y-131797100D01*
X133232600Y-131997100D02*
X142052600Y-131997100D01*
X142052600Y-131997100D02*
X142052600Y-132307100D01*
X136142600Y-131297100D02*
X135142600Y-131297100D01*
X133232600Y-136517100D02*
X133232600Y-136207100D01*
X142052600Y-136517100D02*
X142052600Y-136207100D01*
X133232600Y-132307100D02*
X133232600Y-131997100D01*
X142052600Y-136517100D02*
X133232600Y-136517100D01*
%TO.C,D19*%
X179721800Y-27137200D02*
X179565800Y-27137200D01*
X177405800Y-27137200D02*
X177249800Y-27137200D01*
X177250284Y-27137200D02*
G75*
G03*
X177407192Y-30369535I1235516J-1560000D01*
G01*
X179564408Y-30369535D02*
G75*
G03*
X179721316Y-27137200I-1078608J1672335D01*
G01*
X177405800Y-27656239D02*
G75*
G03*
X177405963Y-29738330I1080000J-1040961D01*
G01*
X179565637Y-29738330D02*
G75*
G03*
X179565800Y-27656239I-1079837J1041130D01*
G01*
%TO.C,R29*%
X86366600Y-111482200D02*
X86366600Y-114222200D01*
X93676600Y-112852200D02*
X92906600Y-112852200D01*
X85596600Y-112852200D02*
X86366600Y-112852200D01*
X92906600Y-111482200D02*
X86366600Y-111482200D01*
X86366600Y-114222200D02*
X92906600Y-114222200D01*
X92906600Y-114222200D02*
X92906600Y-111482200D01*
%TO.C,R25*%
X157276800Y-45410800D02*
X157276800Y-44640800D01*
X157276800Y-37330800D02*
X157276800Y-38100800D01*
X155906800Y-44640800D02*
X158646800Y-44640800D01*
X158646800Y-38100800D02*
X155906800Y-38100800D01*
X155906800Y-38100800D02*
X155906800Y-44640800D01*
X158646800Y-44640800D02*
X158646800Y-38100800D01*
%TO.C,R32*%
X137564800Y-44640800D02*
X137564800Y-38100800D01*
X137564800Y-38100800D02*
X134824800Y-38100800D01*
X136194800Y-37330800D02*
X136194800Y-38100800D01*
X136194800Y-45410800D02*
X136194800Y-44640800D01*
X134824800Y-44640800D02*
X137564800Y-44640800D01*
X134824800Y-38100800D02*
X134824800Y-44640800D01*
%TO.C,U3*%
X171742800Y-60873800D02*
X146102800Y-60873800D01*
X146102800Y-71153800D02*
X171742800Y-71153800D01*
X146102800Y-60873800D02*
X146102800Y-71153800D01*
X171682800Y-68663800D02*
X171682800Y-67013800D01*
X171682800Y-65013800D02*
X171682800Y-63363800D01*
X171742800Y-71153800D02*
X171742800Y-60873800D01*
X146162800Y-63363800D02*
X146162800Y-68663800D01*
X146162800Y-68663800D02*
X171682800Y-68663800D01*
X171682800Y-63363800D02*
X146162800Y-63363800D01*
X171682800Y-65013800D02*
G75*
G03*
X171682800Y-67013800I0J-1000000D01*
G01*
%TO.C,R51*%
X86392000Y-107672200D02*
X86392000Y-110412200D01*
X92932000Y-107672200D02*
X86392000Y-107672200D01*
X93702000Y-109042200D02*
X92932000Y-109042200D01*
X86392000Y-110412200D02*
X92932000Y-110412200D01*
X92932000Y-110412200D02*
X92932000Y-107672200D01*
X85622000Y-109042200D02*
X86392000Y-109042200D01*
%TO.C,U5*%
X171682800Y-56984800D02*
X171682800Y-55334800D01*
X171742800Y-49194800D02*
X146102800Y-49194800D01*
X146162800Y-51684800D02*
X146162800Y-56984800D01*
X146102800Y-49194800D02*
X146102800Y-59474800D01*
X146162800Y-56984800D02*
X171682800Y-56984800D01*
X171682800Y-53334800D02*
X171682800Y-51684800D01*
X146102800Y-59474800D02*
X171742800Y-59474800D01*
X171742800Y-59474800D02*
X171742800Y-49194800D01*
X171682800Y-51684800D02*
X146162800Y-51684800D01*
X171682800Y-53334800D02*
G75*
G03*
X171682800Y-55334800I0J-1000000D01*
G01*
%TO.C,R20*%
X117747800Y-83004800D02*
X117747800Y-76464800D01*
X115007800Y-76464800D02*
X115007800Y-83004800D01*
X117747800Y-76464800D02*
X115007800Y-76464800D01*
X115007800Y-83004800D02*
X117747800Y-83004800D01*
X116377800Y-75694800D02*
X116377800Y-76464800D01*
X116377800Y-83774800D02*
X116377800Y-83004800D01*
%TO.C,R9*%
X158646800Y-76449800D02*
X155906800Y-76449800D01*
X155906800Y-76449800D02*
X155906800Y-82989800D01*
X157276800Y-83759800D02*
X157276800Y-82989800D01*
X157276800Y-75679800D02*
X157276800Y-76449800D01*
X158646800Y-82989800D02*
X158646800Y-76449800D01*
X155906800Y-82989800D02*
X158646800Y-82989800D01*
%TO.C,D24*%
X152005800Y-27137200D02*
X151849800Y-27137200D01*
X154321800Y-27137200D02*
X154165800Y-27137200D01*
X151850284Y-27137200D02*
G75*
G03*
X152007192Y-30369535I1235516J-1560000D01*
G01*
X154164408Y-30369535D02*
G75*
G03*
X154321316Y-27137200I-1078608J1672335D01*
G01*
X154165637Y-29738330D02*
G75*
G03*
X154165800Y-27656239I-1079837J1041130D01*
G01*
X152005800Y-27656239D02*
G75*
G03*
X152005963Y-29738330I1080000J-1040961D01*
G01*
%TO.C,D1*%
X179798000Y-39943600D02*
X179642000Y-39943600D01*
X177482000Y-39943600D02*
X177326000Y-39943600D01*
X179640608Y-43175935D02*
G75*
G03*
X179797516Y-39943600I-1078608J1672335D01*
G01*
X179641837Y-42544730D02*
G75*
G03*
X179642000Y-40462639I-1079837J1041130D01*
G01*
X177482000Y-40462639D02*
G75*
G03*
X177482163Y-42544730I1080000J-1040961D01*
G01*
X177326484Y-39943600D02*
G75*
G03*
X177483392Y-43175935I1235516J-1560000D01*
G01*
%TO.C,J2*%
X183189000Y-66455600D02*
X183189000Y-63795600D01*
X180589000Y-66455600D02*
X183189000Y-66455600D01*
X177989000Y-66455600D02*
X177989000Y-65125600D01*
X180589000Y-63795600D02*
X183189000Y-63795600D01*
X179319000Y-66455600D02*
X177989000Y-66455600D01*
X180589000Y-66455600D02*
X180589000Y-63795600D01*
%TO.C,R40*%
X92710000Y-50925600D02*
X92710000Y-51695600D01*
X94080000Y-51695600D02*
X91340000Y-51695600D01*
X91340000Y-51695600D02*
X91340000Y-58235600D01*
X92710000Y-59005600D02*
X92710000Y-58235600D01*
X91340000Y-58235600D02*
X94080000Y-58235600D01*
X94080000Y-58235600D02*
X94080000Y-51695600D01*
%TO.C,D11*%
X138240000Y-94270000D02*
X138396000Y-94270000D01*
X135924000Y-94270000D02*
X136080000Y-94270000D01*
X136081392Y-91037665D02*
G75*
G03*
X135924484Y-94270000I1078608J-1672335D01*
G01*
X138240000Y-93750961D02*
G75*
G03*
X138239837Y-91668870I-1080000J1040961D01*
G01*
X138395516Y-94270000D02*
G75*
G03*
X138238608Y-91037665I-1235516J1560000D01*
G01*
X136080163Y-91668870D02*
G75*
G03*
X136080000Y-93750961I1079837J-1041130D01*
G01*
%TO.C,D35*%
X85430000Y-43569600D02*
X85430000Y-43725600D01*
X85430000Y-45885600D02*
X85430000Y-46041600D01*
X88662335Y-43726992D02*
G75*
G03*
X85430000Y-43570084I-1672335J-1078608D01*
G01*
X88031130Y-43725763D02*
G75*
G03*
X85949039Y-43725600I-1041130J-1079837D01*
G01*
X85430000Y-46041116D02*
G75*
G03*
X88662335Y-45884208I1560000J1235516D01*
G01*
X85949039Y-45885600D02*
G75*
G03*
X88031130Y-45885437I1040961J1080000D01*
G01*
%TO.C,R21*%
X170484800Y-45410800D02*
X170484800Y-44640800D01*
X171854800Y-38100800D02*
X169114800Y-38100800D01*
X169114800Y-44640800D02*
X171854800Y-44640800D01*
X171854800Y-44640800D02*
X171854800Y-38100800D01*
X169114800Y-38100800D02*
X169114800Y-44640800D01*
X170484800Y-37330800D02*
X170484800Y-38100800D01*
%TO.C,SW3*%
X176320000Y-151692000D02*
X164020000Y-151692000D01*
X176320000Y-143972000D02*
X176320000Y-147112000D01*
X176320000Y-139392000D02*
X176320000Y-142112000D01*
X173642000Y-146261200D02*
X173642000Y-144761200D01*
X166642000Y-144761200D02*
X166642000Y-146261200D01*
X164020000Y-151692000D02*
X164020000Y-148972000D01*
X164020000Y-147112000D02*
X164020000Y-143972000D01*
X164020000Y-139392000D02*
X176320000Y-139392000D01*
X167892000Y-148761200D02*
X172392000Y-148761200D01*
X172392000Y-142261200D02*
X167892000Y-142261200D01*
X176320000Y-148972000D02*
X176320000Y-151692000D01*
X164020000Y-142112000D02*
X164020000Y-139392000D01*
X174649050Y-145502000D02*
G75*
G03*
X174649050Y-145502000I-4579050J0D01*
G01*
%TO.C,C11*%
X104508200Y-118248800D02*
X106748200Y-118248800D01*
X104508200Y-125488800D02*
X106748200Y-125488800D01*
X104508200Y-125488800D02*
X104508200Y-118248800D01*
X106748200Y-125488800D02*
X106748200Y-118248800D01*
%TO.C,RV1*%
X148597800Y-148072600D02*
X149692800Y-148072600D01*
X148597800Y-143031600D02*
X158638800Y-143031600D01*
X151998800Y-146714600D02*
X151998800Y-143031600D01*
X152544800Y-148072600D02*
X154693800Y-148072600D01*
X151998800Y-143031600D02*
X155238800Y-143031600D01*
X158638800Y-148072600D02*
X158638800Y-143031600D01*
X148597800Y-148072600D02*
X148597800Y-143031600D01*
X152544800Y-148072600D02*
X154693800Y-148072600D01*
X155238800Y-146714600D02*
X155238800Y-143031600D01*
X157543800Y-148072600D02*
X158638800Y-148072600D01*
%TO.C,D14*%
X123000000Y-94270000D02*
X123156000Y-94270000D01*
X120684000Y-94270000D02*
X120840000Y-94270000D01*
X120841392Y-91037665D02*
G75*
G03*
X120684484Y-94270000I1078608J-1672335D01*
G01*
X123155516Y-94270000D02*
G75*
G03*
X122998608Y-91037665I-1235516J1560000D01*
G01*
X123000000Y-93750961D02*
G75*
G03*
X122999837Y-91668870I-1080000J1040961D01*
G01*
X120840163Y-91668870D02*
G75*
G03*
X120840000Y-93750961I1079837J-1041130D01*
G01*
%TO.C,D5*%
X166941200Y-94260000D02*
X167097200Y-94260000D01*
X169257200Y-94260000D02*
X169413200Y-94260000D01*
X169257200Y-93740961D02*
G75*
G03*
X169257037Y-91658870I-1080000J1040961D01*
G01*
X169412716Y-94260000D02*
G75*
G03*
X169255808Y-91027665I-1235516J1560000D01*
G01*
X167098592Y-91027665D02*
G75*
G03*
X166941684Y-94260000I1078608J-1672335D01*
G01*
X167097363Y-91658870D02*
G75*
G03*
X167097200Y-93740961I1079837J-1041130D01*
G01*
%TO.C,D31*%
X111619800Y-27137200D02*
X111463800Y-27137200D01*
X113935800Y-27137200D02*
X113779800Y-27137200D01*
X111619800Y-27656239D02*
G75*
G03*
X111619963Y-29738330I1080000J-1040961D01*
G01*
X113778408Y-30369535D02*
G75*
G03*
X113935316Y-27137200I-1078608J1672335D01*
G01*
X113779637Y-29738330D02*
G75*
G03*
X113779800Y-27656239I-1079837J1041130D01*
G01*
X111464284Y-27137200D02*
G75*
G03*
X111621192Y-30369535I1235516J-1560000D01*
G01*
%TO.C,J4*%
X153136600Y-132883600D02*
X153136600Y-135543600D01*
X155736600Y-132883600D02*
X155736600Y-134213600D01*
X154406600Y-132883600D02*
X155736600Y-132883600D01*
X153136600Y-132883600D02*
X150536600Y-132883600D01*
X150536600Y-132883600D02*
X150536600Y-135543600D01*
X153136600Y-135543600D02*
X150536600Y-135543600D01*
%TO.C,R5*%
X170484800Y-83759800D02*
X170484800Y-82989800D01*
X171854800Y-76449800D02*
X169114800Y-76449800D01*
X169114800Y-82989800D02*
X171854800Y-82989800D01*
X171854800Y-82989800D02*
X171854800Y-76449800D01*
X169114800Y-76449800D02*
X169114800Y-82989800D01*
X170484800Y-75679800D02*
X170484800Y-76449800D01*
%TO.C,R43*%
X183604200Y-50171600D02*
X180864200Y-50171600D01*
X182234200Y-57481600D02*
X182234200Y-56711600D01*
X182234200Y-49401600D02*
X182234200Y-50171600D01*
X180864200Y-50171600D02*
X180864200Y-56711600D01*
X180864200Y-56711600D02*
X183604200Y-56711600D01*
X183604200Y-56711600D02*
X183604200Y-50171600D01*
%TO.C,SW5*%
X139626000Y-142261200D02*
X135126000Y-142261200D01*
X143554000Y-143972000D02*
X143554000Y-147112000D01*
X131254000Y-139392000D02*
X143554000Y-139392000D01*
X131254000Y-147112000D02*
X131254000Y-143972000D01*
X133876000Y-144761200D02*
X133876000Y-146261200D01*
X140876000Y-146261200D02*
X140876000Y-144761200D01*
X143554000Y-151692000D02*
X131254000Y-151692000D01*
X143554000Y-139392000D02*
X143554000Y-142112000D01*
X131254000Y-151692000D02*
X131254000Y-148972000D01*
X143554000Y-148972000D02*
X143554000Y-151692000D01*
X135126000Y-148761200D02*
X139626000Y-148761200D01*
X131254000Y-142112000D02*
X131254000Y-139392000D01*
X141883050Y-145502000D02*
G75*
G03*
X141883050Y-145502000I-4579050J0D01*
G01*
%TO.C,R6*%
X167182800Y-75679800D02*
X167182800Y-76449800D01*
X165812800Y-76449800D02*
X165812800Y-82989800D01*
X167182800Y-83759800D02*
X167182800Y-82989800D01*
X168552800Y-76449800D02*
X165812800Y-76449800D01*
X168552800Y-82989800D02*
X168552800Y-76449800D01*
X165812800Y-82989800D02*
X168552800Y-82989800D01*
%TO.C,D33*%
X99178400Y-27137200D02*
X99022400Y-27137200D01*
X96862400Y-27137200D02*
X96706400Y-27137200D01*
X96706884Y-27137200D02*
G75*
G03*
X96863792Y-30369535I1235516J-1560000D01*
G01*
X99022237Y-29738330D02*
G75*
G03*
X99022400Y-27656239I-1079837J1041130D01*
G01*
X96862400Y-27656239D02*
G75*
G03*
X96862563Y-29738330I1080000J-1040961D01*
G01*
X99021008Y-30369535D02*
G75*
G03*
X99177916Y-27137200I-1078608J1672335D01*
G01*
%TO.C,R17*%
X127658800Y-82994800D02*
X127658800Y-76454800D01*
X126288800Y-83764800D02*
X126288800Y-82994800D01*
X127658800Y-76454800D02*
X124918800Y-76454800D01*
X124918800Y-82994800D02*
X127658800Y-82994800D01*
X126288800Y-75684800D02*
X126288800Y-76454800D01*
X124918800Y-76454800D02*
X124918800Y-82994800D01*
%TO.C,R35*%
X127658800Y-44640800D02*
X127658800Y-38100800D01*
X127658800Y-38100800D02*
X124918800Y-38100800D01*
X124918800Y-38100800D02*
X124918800Y-44640800D01*
X126288800Y-37330800D02*
X126288800Y-38100800D01*
X126288800Y-45410800D02*
X126288800Y-44640800D01*
X124918800Y-44640800D02*
X127658800Y-44640800D01*
%TO.C,D25*%
X146925800Y-27137200D02*
X146769800Y-27137200D01*
X149241800Y-27137200D02*
X149085800Y-27137200D01*
X149084408Y-30369535D02*
G75*
G03*
X149241316Y-27137200I-1078608J1672335D01*
G01*
X146925800Y-27656239D02*
G75*
G03*
X146925963Y-29738330I1080000J-1040961D01*
G01*
X149085637Y-29738330D02*
G75*
G03*
X149085800Y-27656239I-1079837J1041130D01*
G01*
X146770284Y-27137200D02*
G75*
G03*
X146927192Y-30369535I1235516J-1560000D01*
G01*
%TO.C,R13*%
X140866800Y-82994800D02*
X140866800Y-76454800D01*
X139496800Y-83764800D02*
X139496800Y-82994800D01*
X138126800Y-82994800D02*
X140866800Y-82994800D01*
X140866800Y-76454800D02*
X138126800Y-76454800D01*
X138126800Y-76454800D02*
X138126800Y-82994800D01*
X139496800Y-75684800D02*
X139496800Y-76454800D01*
%TO.C,R12*%
X147370800Y-75679800D02*
X147370800Y-76449800D01*
X147370800Y-83759800D02*
X147370800Y-82989800D01*
X148740800Y-76449800D02*
X146000800Y-76449800D01*
X148740800Y-82989800D02*
X148740800Y-76449800D01*
X146000800Y-82989800D02*
X148740800Y-82989800D01*
X146000800Y-76449800D02*
X146000800Y-82989800D01*
%TO.C,C3*%
X142186800Y-58320800D02*
X144426800Y-58320800D01*
X142186800Y-51080800D02*
X144426800Y-51080800D01*
X144426800Y-58320800D02*
X144426800Y-51080800D01*
X142186800Y-58320800D02*
X142186800Y-51080800D01*
%TO.C,U9*%
X121506600Y-100468200D02*
X119856600Y-100468200D01*
X117856600Y-100468200D02*
X116206600Y-100468200D01*
X116206600Y-100468200D02*
X116206600Y-118368200D01*
X121506600Y-118368200D02*
X121506600Y-100468200D01*
X113716600Y-100408200D02*
X113716600Y-118428200D01*
X123996600Y-100408200D02*
X113716600Y-100408200D01*
X116206600Y-118368200D02*
X121506600Y-118368200D01*
X123996600Y-118428200D02*
X123996600Y-100408200D01*
X113716600Y-118428200D02*
X123996600Y-118428200D01*
X117856600Y-100468200D02*
G75*
G03*
X119856600Y-100468200I1000000J0D01*
G01*
%TO.C,D21*%
X167245800Y-27137200D02*
X167089800Y-27137200D01*
X169561800Y-27137200D02*
X169405800Y-27137200D01*
X167245800Y-27656239D02*
G75*
G03*
X167245963Y-29738330I1080000J-1040961D01*
G01*
X169405637Y-29738330D02*
G75*
G03*
X169405800Y-27656239I-1079837J1041130D01*
G01*
X169404408Y-30369535D02*
G75*
G03*
X169561316Y-27137200I-1078608J1672335D01*
G01*
X167090284Y-27137200D02*
G75*
G03*
X167247192Y-30369535I1235516J-1560000D01*
G01*
%TO.C,J6*%
X180594000Y-74837600D02*
X180594000Y-72177600D01*
X180594000Y-74837600D02*
X183194000Y-74837600D01*
X183194000Y-74837600D02*
X183194000Y-72177600D01*
X177994000Y-74837600D02*
X177994000Y-73507600D01*
X180594000Y-72177600D02*
X183194000Y-72177600D01*
X179324000Y-74837600D02*
X177994000Y-74837600D01*
%TO.C,D6*%
X164177200Y-94260000D02*
X164333200Y-94260000D01*
X161861200Y-94260000D02*
X162017200Y-94260000D01*
X162017363Y-91658870D02*
G75*
G03*
X162017200Y-93740961I1079837J-1041130D01*
G01*
X162018592Y-91027665D02*
G75*
G03*
X161861684Y-94260000I1078608J-1672335D01*
G01*
X164332716Y-94260000D02*
G75*
G03*
X164175808Y-91027665I-1235516J1560000D01*
G01*
X164177200Y-93740961D02*
G75*
G03*
X164177037Y-91658870I-1080000J1040961D01*
G01*
%TO.C,U1*%
X154780600Y-100468200D02*
X153130600Y-100468200D01*
X154780600Y-118368200D02*
X154780600Y-100468200D01*
X157270600Y-118428200D02*
X157270600Y-100408200D01*
X146990600Y-118428200D02*
X157270600Y-118428200D01*
X146990600Y-100408200D02*
X146990600Y-118428200D01*
X151130600Y-100468200D02*
X149480600Y-100468200D01*
X149480600Y-100468200D02*
X149480600Y-118368200D01*
X157270600Y-100408200D02*
X146990600Y-100408200D01*
X149480600Y-118368200D02*
X154780600Y-118368200D01*
X151130600Y-100468200D02*
G75*
G03*
X153130600Y-100468200I1000000J0D01*
G01*
%TO.C,D40*%
X154358000Y-124971200D02*
X148918000Y-124971200D01*
X154358000Y-125301200D02*
X154358000Y-124971200D01*
X153578000Y-127911200D02*
X153578000Y-124971200D01*
X148918000Y-124971200D02*
X148918000Y-125301200D01*
X153338000Y-127911200D02*
X153338000Y-124971200D01*
X154358000Y-127581200D02*
X154358000Y-127911200D01*
X148918000Y-127911200D02*
X148918000Y-127581200D01*
X154358000Y-127911200D02*
X148918000Y-127911200D01*
X153458000Y-127911200D02*
X153458000Y-124971200D01*
%TO.C,R11*%
X152042800Y-82989800D02*
X152042800Y-76449800D01*
X150672800Y-83759800D02*
X150672800Y-82989800D01*
X149302800Y-76449800D02*
X149302800Y-82989800D01*
X152042800Y-76449800D02*
X149302800Y-76449800D01*
X149302800Y-82989800D02*
X152042800Y-82989800D01*
X150672800Y-75679800D02*
X150672800Y-76449800D01*
%TO.C,D38*%
X85430000Y-69416000D02*
X85430000Y-69572000D01*
X85430000Y-71732000D02*
X85430000Y-71888000D01*
X88662335Y-69573392D02*
G75*
G03*
X85430000Y-69416484I-1672335J-1078608D01*
G01*
X88031130Y-69572163D02*
G75*
G03*
X85949039Y-69572000I-1041130J-1079837D01*
G01*
X85949039Y-71732000D02*
G75*
G03*
X88031130Y-71731837I1040961J1080000D01*
G01*
X85430000Y-71887516D02*
G75*
G03*
X88662335Y-71730608I1560000J1235516D01*
G01*
%TO.C,SW2*%
X98506000Y-76461600D02*
X98506000Y-79181600D01*
X86206000Y-76461600D02*
X98506000Y-76461600D01*
X94634000Y-79392400D02*
X90134000Y-79392400D01*
X86206000Y-88761600D02*
X86206000Y-86041600D01*
X88884000Y-81892400D02*
X88884000Y-83392400D01*
X98506000Y-86041600D02*
X98506000Y-88761600D01*
X98506000Y-88761600D02*
X86206000Y-88761600D01*
X86206000Y-84181600D02*
X86206000Y-81041600D01*
X86206000Y-79181600D02*
X86206000Y-76461600D01*
X90134000Y-85892400D02*
X94634000Y-85892400D01*
X95884000Y-83392400D02*
X95884000Y-81892400D01*
X98506000Y-81041600D02*
X98506000Y-84181600D01*
X97035050Y-82651600D02*
G75*
G03*
X97035050Y-82651600I-4579050J0D01*
G01*
%TO.C,U7*%
X111880800Y-48743800D02*
X101600800Y-48743800D01*
X105740800Y-48803800D02*
X104090800Y-48803800D01*
X109390800Y-48803800D02*
X107740800Y-48803800D01*
X104090800Y-74323800D02*
X109390800Y-74323800D01*
X101600800Y-48743800D02*
X101600800Y-74383800D01*
X104090800Y-48803800D02*
X104090800Y-74323800D01*
X101600800Y-74383800D02*
X111880800Y-74383800D01*
X111880800Y-74383800D02*
X111880800Y-48743800D01*
X109390800Y-74323800D02*
X109390800Y-48803800D01*
X105740800Y-48803800D02*
G75*
G03*
X107740800Y-48803800I1000000J0D01*
G01*
%TO.C,C12*%
X174348000Y-100480000D02*
X174348000Y-107720000D01*
X174348000Y-107720000D02*
X172108000Y-107720000D01*
X174348000Y-100480000D02*
X172108000Y-100480000D01*
X172108000Y-100480000D02*
X172108000Y-107720000D01*
%TO.C,U10*%
X101143600Y-100423200D02*
X101143600Y-110823200D01*
X108933600Y-110763200D02*
X108933600Y-100483200D01*
X101143600Y-110823200D02*
X111423600Y-110823200D01*
X105283600Y-100483200D02*
X103633600Y-100483200D01*
X103633600Y-110763200D02*
X108933600Y-110763200D01*
X108933600Y-100483200D02*
X107283600Y-100483200D01*
X111423600Y-110823200D02*
X111423600Y-100423200D01*
X111423600Y-100423200D02*
X101143600Y-100423200D01*
X103633600Y-100483200D02*
X103633600Y-110763200D01*
X105283600Y-100483200D02*
G75*
G03*
X107283600Y-100483200I1000000J0D01*
G01*
%TD*%
M02*
